<?xml version="1.0" encoding="UTF-8" standalone="no"?>
<svg xmlns="http://www.w3.org/2000/svg" viewBox="1 -16 511.999 511">
 <path d="m454.18 295.22h-396.19c-13.609 0-24.645 11.031-24.645 24.645v21.586c0 5.3555 4.3438 9.6992 9.7031 9.6992h426.08c5.3555 0 9.6992-4.3438 9.6992-9.6992v-21.586c0-13.613-11.031-24.645-24.645-24.645z" fill="#912c2c"/>
 <path d="m454.18 295.22h-33.195v55.934h48.141c5.3594 0 9.6992-4.3438 9.6992-9.7031v-21.586c0-13.613-11.031-24.645-24.645-24.645z" fill="#7c1e1e"/>
 <path d="m470.76 265.78c12.832 0 23.648 10.656 23.66 24.035 0.011719 19.105-21.77 29.215-47.07 25.512-23.633-3.457-23.93-14.332-47.863-14.332-23.93 0-23.93 14.332-47.863 14.332-23.93 0-23.93-14.332-47.859-14.332-23.93 0-23.93 14.332-47.859 14.332-23.934 0-23.93-14.332-47.863-14.332-23.93 0-23.93 14.332-47.859 14.332-23.93 0-23.93-14.332-47.863-14.332-23.93 0-24.23 10.871-47.859 14.332-25.305 3.7031-47.082-6.4062-47.07-25.512 0.007812-13.379 10.824-24.035 23.656-24.035z" fill="#a0e557"/>
 <path d="m494.42 289.81c-0.011719-13.379-10.828-24.035-23.66-24.035h-35.91v46.457c3.3945 1.2539 7.4023 2.3438 12.5 3.0898 25.301 3.7031 47.082-6.4062 47.07-25.512z" fill="#93cc4a"/>
 <path d="m484.31 346.18h-456.62c-11.145 0-20.176 9.0352-20.176 20.176 0 57.93 46.961 104.89 104.89 104.89h287.2c57.93 0 104.89-46.961 104.89-104.89 0-11.141-9.0352-20.176-20.176-20.176z" fill="#efa335"/>
 <path d="m484.31 346.18h-37.562v40.355c0 46.785-37.93 84.715-84.715 84.715h37.562c57.93 0 104.89-46.965 104.89-104.89 0-11.141-9.0352-20.176-20.176-20.176z" fill="#fd8f31"/>
 <path d="m454.09 240.09h-396.19c-13.613 0-24.645-11.031-24.645-24.645v-21.586c0-5.3594 4.3438-9.7031 9.6992-9.7031h426.08c5.3555 0 9.6992 4.3438 9.6992 9.7031v21.586c0 13.613-11.031 24.645-24.645 24.645z" fill="#fc4e51"/>
 <path d="m469.04 184.16h-47.965v40.992c0 8.25-6.6875 14.941-14.941 14.941h47.965c13.609 0 24.645-11.031 24.645-24.645v-21.586c-0.003907-5.3594-4.3477-9.7031-9.7031-9.7031z" fill="#ea3942"/>
 <path d="m474.91 235.41h-437.35c-9.918 0-18.34 8.1172-18.156 18.031 0.17969 9.6172 8.0312 17.355 17.691 17.355h277.88c4.5156 0 8.8789 1.6133 12.309 4.5508l39.438 33.793c11.52 9.8711 28.715 9.1289 39.348-1.6914l30.449-30.992c3.5547-3.6211 8.418-5.6602 13.492-5.6602h24.441c9.9141 0 18.34-8.1133 18.152-18.031-0.17969-9.6172-8.0312-17.355-17.691-17.355z" fill="#fccf3f"/>
 <path d="m256 8.0117c-231.36 0.085937-248.49 152.71-248.49 174.32 0 11.145 9.0352 20.176 20.176 20.176h456.62c11.141 0 20.176-9.0312 20.176-20.176 0-21.613-17.129-174.23-248.49-174.32z" fill="#efa335"/>
 <path d="m504.48 181.76c0-0.0625-0.003906-0.12891-0.003906-0.19531 0-0.14453-0.003907-0.29297-0.007813-0.44531-0.003906-0.070313-0.003906-0.14453-0.007812-0.21875-0.003906-0.15625-0.007813-0.32031-0.015625-0.48438 0-0.078124-0.003907-0.15234-0.007813-0.23047-0.007812-0.17969-0.015625-0.36328-0.023437-0.55078-0.003907-0.070312-0.007813-0.13672-0.011719-0.20312-0.007812-0.22266-0.023438-0.44922-0.035156-0.68359-0.003906-0.042969-0.003906-0.082032-0.007813-0.12109-0.085937-1.4609-0.22656-3.1602-0.43359-5.0625v-0.007812c-4.2422-38.996-37.328-165.46-247.93-165.54-10.023 0.003906-19.637 0.30078-28.871 0.85156 140.16 8.3984 191.4 77.426 209.74 126.49 7.7148 20.645-7.7227 42.621-29.758 42.621h-379.43c-8.3086 0-15.441-5.0273-18.535-12.203-1.2852 7.6562-1.6406 13.461-1.6406 16.562 0 11.145 9.0352 20.176 20.176 20.176h456.62c11.141 0 20.176-9.0312 20.176-20.176 0-0.17969 0-0.375-0.003906-0.57422z" fill="#fd8f31"/>
 <path d="m474.91 235.41h-40.059v42.738l1.6641-1.6914c3.5547-3.6211 8.418-5.6602 13.492-5.6602h24.441c9.9141 0 18.34-8.1172 18.152-18.031-0.17969-9.6172-8.0312-17.355-17.691-17.355z" fill="#efc03c"/>
 <path d="m486.34 338.75v-18.891c0-1.1328-0.082032-2.2617-0.19922-3.3789 1.8633-1.1172 3.5938-2.3516 5.1641-3.7109 6.957-6.0156 10.629-13.957 10.621-22.965-0.003906-7.707-2.8398-15.055-7.7422-20.73 3.8477-4.5703 6.0352-10.391 5.9219-16.453-0.19922-10.77-7.2969-19.949-16.992-23.332 2.0117-4.1953 3.1367-8.8906 3.1367-13.844v-5.5039c14.367-1 25.75-13 25.75-27.613 0-2.1133-0.44531-52.309-39.168-99.969-19.68-24.223-45.73-43.406-77.438-57.02-38.352-16.465-85.25-24.824-139.4-24.844-68.199 0.023438-124.52 13.211-167.39 39.188-3.5508 2.1523-4.6836 6.7695-2.5352 10.316 2.1523 3.5469 6.7695 4.6836 10.316 2.5312 40.496-24.535 94.195-36.988 159.61-37.012 52.098 0.019531 97 7.9648 133.47 23.625 29.449 12.645 53.574 30.371 71.703 52.688 35.398 43.566 35.805 88.602 35.805 90.496 0 6.9844-5.6797 12.664-12.664 12.664h-456.62c-6.9844 0-12.664-5.6797-12.664-12.664 0-1.8867 0.24609-19.125 8.8359-42.816 9.3945-25.922 24.68-48.465 45.422-67 3.0938-2.7656 3.3633-7.5156 0.59766-10.605-2.7656-3.0938-7.5117-3.3594-10.605-0.59766-58.598 52.367-59.273 118.24-59.273 121.02 0 14.613 11.383 26.613 25.746 27.613v5.5039c0 4.9961 1.1484 9.7305 3.1914 13.953-3.6758 1.3125-7.0625 3.4453-9.8359 6.2695-4.7734 4.8633-7.332 11.227-7.207 17.91 0.10547 5.793 2.1797 11.211 5.7188 15.508-4.8984 5.6758-7.7305 13.023-7.7344 20.719-0.007812 9.0078 3.6641 16.949 10.621 22.965 1.668 1.4414 3.5195 2.7422 5.5117 3.9102-0.10547 1.0547-0.17578 2.1133-0.17578 3.1797v18.875c-14.406 0.96094-25.836 12.977-25.836 27.621 0 61.98 50.426 112.4 112.4 112.4h287.2c61.977 0 112.4-50.422 112.4-112.4 0-14.582-11.336-26.562-25.66-27.605zm-4.8594-37.344c-6.9062 5.9727-19.566 8.457-33.047 6.4844-9.543-1.3984-14.566-4.0547-19.883-6.8711-1.2227-0.64453-2.457-1.3008-3.7461-1.9375l17.062-17.367c2.1289-2.168 5.0938-3.4102 8.1367-3.4102h24.438c2.3359 0 4.6328-0.31641 6.8672-0.94531 3.5078 3.1172 5.5938 7.6562 5.5977 12.457 0 4.5742-1.8242 8.4766-5.4258 11.59zm-440.71-91.387h430.46v5.4258c0 5.832-2.9336 10.988-7.3984 14.082-0.125 0.089844-0.25391 0.17188-0.38281 0.25391-0.32031 0.21094-0.64844 0.41016-0.98047 0.59766-0.11719 0.066407-0.23047 0.13281-0.34375 0.19531-0.42578 0.22656-0.85938 0.4375-1.3047 0.62891-0.027343 0.011719-0.050781 0.023438-0.074218 0.035157-0.49609 0.20703-1.0039 0.39453-1.5234 0.55469-0.058594 0.019531-0.11719 0.035156-0.17578 0.050781-0.43359 0.13281-0.875 0.24609-1.3242 0.33984-0.14062 0.03125-0.27734 0.058594-0.41797 0.085938-0.38672 0.070312-0.77734 0.13281-1.1719 0.17969-0.14844 0.015625-0.29297 0.035156-0.44141 0.050781-0.52734 0.050782-1.0586 0.082032-1.5977 0.082032h-396.19c-9.4453 0-17.133-7.6875-17.133-17.133zm-10.945 36.172c2.043-2.0781 4.8594-3.2734 7.7344-3.2734h3.6484c4.8711 2.9688 10.586 4.6836 16.699 4.6836h396.19c0.66797 0 1.3281-0.027344 1.9844-0.066407 0.21094-0.011718 0.41797-0.03125 0.625-0.046874 0.46094-0.039063 0.92188-0.085938 1.3789-0.14453 0.22266-0.027344 0.44922-0.050781 0.67188-0.082031 0.58594-0.085937 1.168-0.18359 1.7422-0.30078 0.24219-0.050782 0.48047-0.10938 0.72266-0.16406 0.39453-0.089843 0.78906-0.18359 1.1797-0.28906 0.29687-0.078125 0.59375-0.16406 0.88672-0.25 0.31641-0.09375 0.62891-0.19922 0.94141-0.30078 0.30078-0.097657 0.59766-0.19531 0.89453-0.30078 0.51172-0.19141 1.0195-0.39062 1.5195-0.60156 0.30078-0.12891 0.59766-0.26953 0.89453-0.40625 0.28125-0.12891 0.55859-0.26172 0.83203-0.39844 0.29297-0.14844 0.58594-0.29297 0.875-0.44922 0.32812-0.17578 0.65234-0.36328 0.97656-0.55078 0.19531-0.11328 0.39453-0.21484 0.58984-0.33203h4.0977c5.5117 0 10.078 4.4805 10.18 9.9844 0.074218 3.8359-2.2695 7.4805-5.9648 9.2773h-0.003906c-1.5039 0.73047-3.0781 1.1055-4.6758 1.1055h-24.441c-7.043 0-13.914 2.8789-18.852 7.9062l-30.449 30.992c-7.2578 7.3906-18.766 8.3906-27.168 2.707-0.18359-0.125-0.36328-0.25-0.54297-0.37891-0.46875-0.33594-0.93359-0.6875-1.3828-1.0703 0-0.003906-0.003907-0.007812-0.007813-0.007812l-39.438-33.793c-4.7852-4.0977-10.891-6.3555-17.191-6.3555h-277.88c-1.5469 0-3.0469-0.35547-4.4648-1.0508h-0.003906c-3.4531-1.6953-5.6406-5.1211-5.7109-8.9375-0.050781-2.6172 0.98438-5.1406 2.9102-7.1055zm-4.9219 43.621c0-4.7695 2.0664-9.2852 5.543-12.402 2.1562 0.59375 4.3789 0.89453 6.6484 0.89453h277.88c2.7227 0 5.3555 0.97656 7.4219 2.7422l31.188 26.727c-0.625 0.023437-1.2773 0.035156-1.9531 0.035156-9.8867 0-14.383-2.6914-20.07-6.0977-6.4453-3.8594-13.75-8.2344-27.793-8.2344-14.039 0-21.344 4.375-27.789 8.2344-5.6875 3.4062-10.18 6.0977-20.07 6.0977s-14.383-2.6914-20.07-6.0977c-6.4453-3.8594-13.75-8.2344-27.789-8.2344-14.043 0-21.348 4.375-27.793 8.2344-5.6875 3.4062-10.18 6.0977-20.07 6.0977-9.8906 0-14.383-2.6914-20.07-6.0977-6.4453-3.8594-13.75-8.2344-27.793-8.2344-14.836 0-22.074 3.8359-29.074 7.543-5.3125 2.8125-10.332 5.4727-19.875 6.8672-13.48 1.9727-26.141-0.51172-33.043-6.4805-3.6016-3.1133-5.4258-7.0156-5.4219-11.594zm374.7 173.93h-287.2c-53.695 0-97.379-43.688-97.379-97.383 0-6.9844 5.6797-12.664 12.664-12.664h336.73c4.1484 0 7.5117-3.3633 7.5117-7.5117s-3.3633-7.5117-7.5117-7.5117h-323.56v-16.449c4.2695 0.89062 8.8164 1.3594 13.539 1.3594 3.6328 0 7.3672-0.27344 11.148-0.82422 12.105-1.7734 18.812-5.3242 24.73-8.457 6.1133-3.2383 10.941-5.7969 22.043-5.7969 9.8867 0 14.383 2.6914 20.07 6.0977 6.4453 3.8594 13.75 8.2344 27.793 8.2344 14.039 0 21.344-4.375 27.789-8.2344 5.6875-3.4062 10.18-6.0977 20.07-6.0977s14.383 2.6914 20.07 6.0977c6.4453 3.8594 13.75 8.2344 27.793 8.2344 14.039 0 21.344-4.375 27.789-8.2344 5.6875-3.4062 10.18-6.0977 20.07-6.0977s14.383 2.6914 20.07 6.0977c6.4453 3.8594 13.75 8.2344 27.789 8.2344 6.6875 0 12.297-0.96875 17.688-3.0547 5.082 2.5156 10.617 3.7734 16.152 3.7734 9.457 0 18.891-3.6484 25.957-10.84l2.1016-2.1367c2.8242 0.99609 5.2891 2.2891 8.0078 3.7266 5.918 3.1328 12.625 6.6797 24.73 8.4531 3.7812 0.55469 7.5156 0.82422 11.148 0.82422 4.8594 0 9.5312-0.49609 13.91-1.4375v16.527h-71.949c-4.1484 0-7.5117 3.3633-7.5117 7.5117s3.3633 7.5117 7.5117 7.5117h84.941c6.9844 0 12.668 5.6797 12.668 12.664-0.003907 53.695-43.688 97.383-97.383 97.383z"/>
</svg>
