<svg xmlns="http://www.w3.org/2000/svg" viewBox="0 0 469.85 384.56"><defs><style>.cls-1{fill:#4d2600;}.cls-2{fill:#804000;}.cls-3{fill:#e60000;}.cls-4{fill:#f90;}.cls-5{fill:#ff4d4d;}.cls-6{fill:none;stroke-linecap:round;stroke-width:4px;}.cls-6,.cls-7{stroke:#000;stroke-miterlimit:10;}.cls-7{fill:lime;stroke-width:5px;}.cls-8{fill:#ff0;}.cls-9{fill:#f2d7cb;}</style></defs><title>Asset 1</title><g id="Layer_2" data-name="Layer 2"><g id="Слой_2" data-name="Слой 2"><path class="cls-1" d="M157.46,339.15q0-35.5,0-71a1478.62,1478.62,0,0,0,163.38-.51q0,35.5,0,71A1478.62,1478.62,0,0,1,157.46,339.15Z" transform="translate(0 -20.35)"/><path d="M318.84,269.77q0,33.5,0,67a1487.22,1487.22,0,0,1-159.37.49q0-33.5,0-67a1487.24,1487.24,0,0,0,159.37-.49m4-4.25a1478.5,1478.5,0,0,1-167.39.52q0,37.5,0,75a1478.5,1478.5,0,0,0,167.39-.52q0-37.5,0-75Z" transform="translate(0 -20.35)"/><path class="cls-2" d="M18.31,335.07a12.22,12.22,0,0,1-9.94-11.63v-16a8.26,8.26,0,0,1,9.94-8.37,1406.4,1406.4,0,0,0,430.69.41,8.28,8.28,0,0,1,9.94,8.39v16A12.19,12.19,0,0,1,449,335.47,1406.4,1406.4,0,0,1,18.31,335.07Z" transform="translate(0 -20.35)"/><path d="M449,301.47a6.63,6.63,0,0,1,8,6.71v16a9.74,9.74,0,0,1-8,9.29,1406.4,1406.4,0,0,1-430.69-.41,9.77,9.77,0,0,1-8-9.3v-16a6.61,6.61,0,0,1,8-6.7,1406.4,1406.4,0,0,0,430.69.41m0-4a1406.4,1406.4,0,0,1-430.69-.41c-6.59-1.06-11.92,3.4-11.92,10v16a14.65,14.65,0,0,0,11.92,14,1406.4,1406.4,0,0,0,430.69.41,14.62,14.62,0,0,0,11.93-13.95v-16c0-6.63-5.34-11.1-11.93-10.05Z" transform="translate(0 -20.35)"/><path class="cls-3" d="M369.9,326.73c-5.46.54-11.1,1-16.61,1.24C321.48,329.28,268,331.67,244,308a7.31,7.31,0,0,1-2.48-5.31,7.18,7.18,0,0,1,2.27-4.48,18.33,18.33,0,0,1,2.44-2.12C276.65,315,320,314.81,354,313.39c5.57-.23,11.32-.67,16.79-1.27,30.63-3.34,65.92-8.79,92-27.22a13.55,13.55,0,0,1,2.19,1.87c1.28,1.38,2.07,3,1.85,4.29C462.44,316.27,391.52,324.18,369.9,326.73Z" transform="translate(0 -20.35)"/><path d="M246.37,299.21c31.21,18,72.77,17.84,107.5,16.69,5.65-.29,11.33-.72,16.88-1.27,31-3.65,65-9,91.6-26.59a9.38,9.38,0,0,1,.67.66,3.87,3.87,0,0,1,1.28,2.69c-4.17,9.28-16.41,13.77-25.23,17.3-22.19,8.74-45.61,12.72-69.18,15.53-5.43.54-11,1-16.52,1.24-31,1-82.24,3.88-107.55-19.13-.86-.92-1.87-2.27-1.81-3.51a4.84,4.84,0,0,1,1.6-2.89q.34-.36.75-.73m-.12-6.13a23,23,0,0,0-4.28,3.45,9.48,9.48,0,0,0-3,6.1c5.93,33,93.41,28.52,114.19,27.84q8.51-.43,16.7-1.25c22.2-2.63,93.61-8.14,99.37-38.47a7.92,7.92,0,0,0-2.39-5.87,17.16,17.16,0,0,0-3.93-3c-25.35,19.3-61.6,24.16-92.2,27.79-5.45.54-11,1-16.7,1.26-33.64,1.07-78.44,2.23-107.8-17.8Z" transform="translate(0 -20.35)"/><path class="cls-4" d="M19.88,146.82c-4-.63-7.6-2.53-9.49-4.93a4.32,4.32,0,0,1-1.12-3c9.31-98.14,150.47-116.08,224.37-116,74.06.07,215,18.31,224.39,116.43a4.31,4.31,0,0,1-1.12,3c-1.89,2.4-5.52,4.29-9.49,4.91A1407.43,1407.43,0,0,1,19.88,146.82Z" transform="translate(0 -20.35)"/><path d="M233.65,25.35c52.25.71,106.3,7.18,153.74,30.59,33.37,17.82,64.37,43.76,68.18,84a1.93,1.93,0,0,1-.48,1c-1.16,1.47-4,3.22-7.65,3.8a1407.43,1407.43,0,0,1-427.55-.4c-3.68-.59-6.49-2.34-7.65-3.81a1.93,1.93,0,0,1-.48-1c3-40,35.34-66.39,68.17-83.86C127.36,32.32,181.43,26,233.65,25.35m0-5C157.61,21.2,16.23,38.6,6.81,138.21c-.46,4.78,5.54,9.91,13.07,11.11a1407.43,1407.43,0,0,0,427.55.4c7.54-1.19,13.53-6.3,13.08-11.09C451.09,39,309.85,21.35,233.65,20.35Z" transform="translate(0 -20.35)"/><path class="cls-2" d="M18.31,205.07a12.22,12.22,0,0,1-9.94-11.63v-16a8.26,8.26,0,0,1,9.94-8.37,1406.4,1406.4,0,0,0,430.69.41,8.28,8.28,0,0,1,9.94,8.39v16A12.19,12.19,0,0,1,449,205.47,1406.4,1406.4,0,0,1,18.31,205.07Z" transform="translate(0 -20.35)"/><path d="M449,171.47a6.63,6.63,0,0,1,8,6.71v16a9.74,9.74,0,0,1-8,9.29,1406.4,1406.4,0,0,1-430.69-.41,9.77,9.77,0,0,1-8-9.3v-16a6.61,6.61,0,0,1,8-6.7,1406.4,1406.4,0,0,0,430.69.41m0-4a1406.4,1406.4,0,0,1-430.69-.41c-6.59-1.06-11.92,3.4-11.92,10v16a14.65,14.65,0,0,0,11.92,14,1406.4,1406.4,0,0,0,430.69.41,14.62,14.62,0,0,0,11.93-13.95v-16c0-6.63-5.34-11.1-11.93-10.05Z" transform="translate(0 -20.35)"/><path class="cls-4" d="M41.2,389c-17.32-2.69-32.8-19.58-32.33-37.53v-7a7.85,7.85,0,0,1,9.44-8A1406.4,1406.4,0,0,0,449,337a7.86,7.86,0,0,1,9.44,8v7c-.21,17.45-14.45,35.44-32.34,37.46A1411.72,1411.72,0,0,1,41.2,389Z" transform="translate(0 -20.35)"/><path d="M449,339.47a5.8,5.8,0,0,1,7,5.88v7c-.19,16.11-13.35,32.68-29.85,34.56a1411.72,1411.72,0,0,1-384.91-.36c-16-2.48-30.28-18-29.85-34.61v-7a5.79,5.79,0,0,1,7-5.86,1406.4,1406.4,0,0,0,430.69.41m0-5a1406.4,1406.4,0,0,1-430.69-.41c-6.59-1.06-11.92,3.4-11.92,10v7c.16,19.44,15.52,37.52,34.81,40.44a1411.71,1411.71,0,0,0,384.91.36c19.3-2.88,34.66-20.94,34.82-40.38v-7c0-6.63-5.34-11.1-11.93-10.05Z" transform="translate(0 -20.35)"/><path class="cls-5" d="M370.49,313c-5.46.54-11.1,1-16.61,1.25-32.8,1.37-78.46,2.5-106.38-17.33a18.1,18.1,0,0,1-3.52-3.26c-1.3-1.59-2.09-3.36-1.87-4.6,4.06-22.38,79.29-25,97.49-26.52,5.44-.44,11.09-.81,16.62-1.08,29.09-1.4,85.08-9.35,108.7,10.93a6.23,6.23,0,0,1,2.45,4.9,8.65,8.65,0,0,1-2.24,4.85,23.89,23.89,0,0,1-3.78,3.69C437.15,304.82,400.55,309.45,370.49,313Z" transform="translate(0 -20.35)"/><path d="M339.61,265.05c5.44-.42,11-.78,16.53-1.07,29.23-1.29,81.52-9.25,107,10.43a4.65,4.65,0,0,1,1.79,3.21,5.86,5.86,0,0,1-1.58,3.15A22.39,22.39,0,0,1,460,284c-24.56,18.52-60,23-89.53,26.54-5.43.54-11,1-16.52,1.24-22,.75-44.16.46-65.91-3.51-13.19-2.15-27.84-5.74-39.05-13.32a17,17,0,0,1-3.1-2.85,4.56,4.56,0,0,1-1.3-2.9c4.7-8.12,16.94-11.67,25.47-13.67,22.61-6.19,46.25-8.41,69.51-10.44h0m0-5c-19,1.64-94.12,1.95-100,28.92a9.25,9.25,0,0,0,2.42,6.27,21.73,21.73,0,0,0,4,3.69c29.36,20,74.16,18.89,107.8,17.82q8.51-.43,16.7-1.26c30.6-3.63,66.85-8.48,92.2-27.78a28.59,28.59,0,0,0,4.24-4.15,11.43,11.43,0,0,0,2.93-6.6c-2.55-28.3-98.24-18.68-113.54-18q-8.51.45-16.71,1.08Z" transform="translate(0 -20.35)"/><path class="cls-6" d="M241.69,290.51l-.47,10.74" transform="translate(0 -20.35)"/><path class="cls-3" d="M241.69,290.51l-.47,10.74" transform="translate(0 -20.35)"/><path class="cls-6" d="M467.67,278.76l-.47,10.81" transform="translate(0 -20.35)"/><path class="cls-3" d="M467.67,278.76l-.47,10.81" transform="translate(0 -20.35)"/><path class="cls-3" d="M90.62,326.3c-21.41-2.74-84.2-10.89-87.77-36-.22-1.51.61-3.42,1.9-5a14.57,14.57,0,0,1,2-2C30.15,301,62,306.67,90.09,310c6.45.76,13.31,1.26,19.93,1.45,32.85.93,74.24,0,102.76-19.88a17.29,17.29,0,0,1,2.06,2.1c1.4,1.72,2.28,3.57,2.16,5.12-2.25,29.11-86.63,29.55-106.71,29C103.75,327.53,97.06,327,90.62,326.3Z" transform="translate(0 -20.35)"/><path d="M212.56,294.8l.36.42a5.92,5.92,0,0,1,1.57,3.57c-3.76,11.21-18.27,14.71-28.26,18.29-24.72,7.41-50.44,8.63-76.07,8.14-6.56-.26-13.14-.74-19.54-1.42-20.31-2.6-76.94-7.62-85.28-33.09a5.58,5.58,0,0,1,1.46-3.62q.2-.26.44-.51c23.9,16.9,54.45,22.27,82.86,25.89,6.57.7,13.32,1.19,20.06,1.46,33.59.6,73.07-.34,102.41-19.13m.19-6.46c-26.58,21.49-70.89,21.17-102.87,20.57-6.76-.27-13.37-.76-19.79-1.44-28.15-3.64-61-8.62-83.57-27.41a18.1,18.1,0,0,0-3.79,3.45A9.7,9.7,0,0,0,.37,290c4.89,29.88,68.58,36,90.25,38.82,6.42.68,13,1.17,19.8,1.43,20.19.36,106.12,2.36,109.09-31.5a10.83,10.83,0,0,0-2.73-6.64,22.15,22.15,0,0,0-4-3.75Z" transform="translate(0 -20.35)"/><path class="cls-5" d="M90.25,311.37c-27.58-3.54-60.79-8.24-82.11-26.67a22.48,22.48,0,0,1-3.52-3.85c-1.39-1.94-2.27-3.92-2.14-5.46,2.28-25.93,88.83-21.08,106.12-20.48,6.57.23,13.27.62,19.69,1.16,17.94,1.52,85.64,4.34,88.33,27.79.18,1.56-.61,3.52-1.92,5.33a19.73,19.73,0,0,1-3.43,3.61c-25.59,21.1-70.29,20.91-101.36,20C103.38,312.61,96.7,312.05,90.25,311.37Z" transform="translate(0 -20.35)"/><path d="M128.3,258.58c18.74,1.7,77.66,1.85,85.82,25.31a6.42,6.42,0,0,1-1.47,3.84,17.92,17.92,0,0,1-3,3.15c-10.81,8.37-24.22,11.46-37.2,14.71a315.35,315.35,0,0,1-62.64,4.69c-6.56-.26-13.13-.74-19.53-1.42-26.95-3.47-58.91-8.09-80.64-25.95a21.22,21.22,0,0,1-3.09-3.36A7,7,0,0,1,5,275.75C8.49,265.42,24,263.38,33,261.23c24.93-4.69,50.52-4.55,75.77-3.81,6.56.27,13.14.65,19.56,1.16h0m0-5c-6.43-.5-13.06-.9-19.82-1.17C92.3,251.93,2.22,244.63,0,275a12.74,12.74,0,0,0,2.7,7.08,27.41,27.41,0,0,0,4,4.37c22.58,18.79,55.42,23.77,83.57,27.4,6.42.68,13,1.17,19.79,1.44,32,.59,76.29.91,102.87-20.59a22.71,22.71,0,0,0,3.83-4,11.13,11.13,0,0,0,2.39-6.85c-4.69-27.49-71.62-28.5-90.84-30.26Z" transform="translate(0 -20.35)"/><path class="cls-6" d="M2,279.95l.6,11.78" transform="translate(0 -20.35)"/><path class="cls-3" d="M2,279.95l.6,11.78" transform="translate(0 -20.35)"/><path class="cls-6" d="M203.67,278.3l1.41,9.13" transform="translate(0 -20.35)"/><path class="cls-3" d="M203.67,278.3l1.41,9.13" transform="translate(0 -20.35)"/><path class="cls-4" d="M18.31,252.57a11.6,11.6,0,0,1-9.44-11v-28a7.85,7.85,0,0,1,9.44-8A1406.4,1406.4,0,0,0,449,206a7.86,7.86,0,0,1,9.44,8v28A11.58,11.58,0,0,1,449,253,1406.4,1406.4,0,0,1,18.31,252.57Z" transform="translate(0 -20.35)"/><path d="M449,208.47a5.8,5.8,0,0,1,7,5.88v28a8.52,8.52,0,0,1-7,8.12,1406.4,1406.4,0,0,1-430.69-.41,8.54,8.54,0,0,1-7-8.14v-28a5.79,5.79,0,0,1,7-5.86,1406.4,1406.4,0,0,0,430.69.41m0-5a1406.4,1406.4,0,0,1-430.69-.41c-6.59-1.06-11.92,3.4-11.92,10v28a14.65,14.65,0,0,0,11.92,14,1406.4,1406.4,0,0,0,430.69.41,14.62,14.62,0,0,0,11.93-13.95v-28c0-6.63-5.34-11.1-11.93-10.05Z" transform="translate(0 -20.35)"/><path class="cls-7" d="M447.37,365.73c-14.94,2.69-20.58-15.47-35.4-13.6-15.55,2-20.23,21.51-35.5,22.87-14.78,1.32-20.54-16.49-35.57-15.47-15.57,1.07-20.11,19.87-35.63,21-15.23,1.11-20.46-17.5-35.66-17.33-15.45.17-20.27,18.89-35.68,19.14s-20.35-18.49-35.68-19.19-20.41,17.9-35.66,17.28c-15.61-.64-20.49-20.12-35.63-21.06-14.76-.91-20.5,16.9-35.57,15.41-15.71-1.55-20.3-21.09-35.5-22.92-14.55-1.75-20.39,15.75-35.41,13.55-7.19-1.14-13-6.7-13-12.33v-13.6c0-5.63,5.82-9.21,13-8.07a1407.46,1407.46,0,0,0,425.79.49c7.19-1.13,13,2.46,13,8.1v13.6c0,5.63-5.82,11.18-13,12.3Z" transform="translate(0 -20.35)"/><path class="cls-8" d="M69.88,248.34c-7.31-.89-13.25-7-13.25-13.6q0-31,0-62.08Q38,170.21,19.48,167.25c-6.13-1-11.1-6.31-11.1-11.82s5-9.16,11.1-8.18a1407.42,1407.42,0,0,0,428.36.4c6.13-1,11.11,2.69,11.11,8.2s-5,10.83-11.11,11.8a1422.8,1422.8,0,0,1-316.39,12.76q0,20.27,0,40.53c0,6.57-6,11.47-13.29,10.84s-13.29-6.55-13.29-13.12v-8.53c0-5.56-4.88-10.54-10.87-11.16s-10.86,3.35-10.86,8.91q0,15,0,30.08C83.14,244.54,77.19,249.23,69.88,248.34Z" transform="translate(0 -20.35)"/><path d="M447.84,149.66c5-.79,9.12,2.12,9.12,6.53s-4.09,8.68-9.12,9.47a1422.85,1422.85,0,0,1-314.38,12.92l-4-.3v4q0,19.27,0,38.53c0,5.47-5.07,9.53-11.29,9s-11.29-5.46-11.29-10.93v-8.53c0-6.66-5.78-12.62-12.87-13.35s-12.86,4-12.86,10.69q0,15,0,30.08c0,5.47-5.05,9.35-11.26,8.6S58.62,240.48,58.62,235q0-30,0-60.08v-4l-4-.53Q37,168.06,19.48,165.25c-5-.8-9.12-5.08-9.12-9.49s4.09-7.32,9.12-6.51a1407.42,1407.42,0,0,0,428.36.4m0-4a1407.42,1407.42,0,0,1-428.36-.4c-7.23-1.15-13.09,3.22-13.09,9.84s5.86,13,13.09,14.16q17.54,2.8,35.15,5.15,0,30,0,60.08c0,7.69,6.82,14.84,15.24,15.86h0c8.42,1,15.26-4.46,15.26-12.15q0-15,0-30.08c0-4.46,4-7.64,8.87-7.13h0c4.9.51,8.87,4.51,8.87,9v8.53c0,7.69,6.84,14.59,15.29,15.32h0c8.45.72,15.3-5,15.3-12.69V182.57a1422.85,1422.85,0,0,0,314.38-12.92c7.23-1.14,13.09-7.5,13.09-14.13s-5.86-11-13.09-9.87Z" transform="translate(0 -20.35)"/><path class="cls-8" d="M392.74,358.2c-6.86.8-12.44-3.35-12.44-9.17q0-21.52,0-43c0-3.8-3.42-6.52-7.62-6.09l-5.35.53c-4.2.41-7.62,3.81-7.62,7.61v4.65c0,3.64-3.55,6.93-7.91,7.31s-7.91-2.31-7.91-5.95V286A1422.67,1422.67,0,0,1,19.48,273.25c-6.13-1-11.1-6.31-11.1-11.82s5-9.16,11.1-8.18a1407.42,1407.42,0,0,0,428.36.4c6.13-1,11.11,2.69,11.11,8.2s-5,10.83-11.11,11.8c-3.42.54-5.12.8-8.54,1.32V323c0,4.41-4.24,8.65-9.46,9.4s-9.47-2.26-9.47-6.67c0-9.86,0-14.79,0-24.66,0-3.8-3.41-6.42-7.6-5.87s-7.6,4.06-7.6,7.86q0,21.52,0,43C405.16,352,399.59,357.41,392.74,358.2Z" transform="translate(0 -20.35)"/><path d="M447.84,255.66c5-.79,9.12,2.12,9.12,6.53s-4.09,8.68-9.12,9.47l-6.55,1-4,.6v50.06c0,3.31-3.35,6.51-7.47,7.1s-7.48-1.64-7.48-4.95V300.84c0-4.9-4.3-8.29-9.59-7.59s-9.6,5.21-9.6,10.11v43c0,4.72-4.68,9.14-10.43,9.81s-10.44-2.67-10.44-7.39v-43c0-4.9-4.31-8.41-9.62-7.88l-5.35.53c-5.3.52-9.62,4.89-9.62,9.79v4.65c0,2.5-2.7,4.85-5.91,5.13s-5.91-1.62-5.91-4.11c0-10.42,0-15.64,0-26.06v-4l-4,.32a1422.71,1422.71,0,0,1-322.41-12.9c-5-.8-9.12-5.08-9.12-9.49s4.09-7.32,9.12-6.51a1407.42,1407.42,0,0,0,428.36.4m0-4a1407.42,1407.42,0,0,1-428.36-.4c-7.23-1.15-13.09,3.22-13.09,9.84s5.86,13,13.09,14.16a1422.71,1422.71,0,0,0,322.41,12.9c0,10.42,0,15.64,0,26.06,0,4.75,4.44,8.26,9.91,7.79s9.91-4.74,9.91-9.49v-4.65c0-2.7,2.52-5.12,5.62-5.42l5.35-.53c3.1-.31,5.62,1.61,5.62,4.3v43c0,6.94,6.47,11.89,14.44,11s14.42-7.38,14.42-14.32v-43c0-2.7,2.51-5.2,5.61-5.61s5.6,1.44,5.6,4.14V326c0,5.52,5.14,9.31,11.47,8.4h0c6.33-.91,11.45-6.18,11.45-11.7V276.68l6.55-1c7.23-1.14,13.09-7.5,13.09-14.13s-5.86-11-13.09-9.87Z" transform="translate(0 -20.35)"/><path class="cls-9" d="M140.77,56.3a6.06,6.06,0,0,1-6.61,6.13,7.25,7.25,0,0,1-6.61-7.1,6,6,0,0,1,6.61-6.1A7.22,7.22,0,0,1,140.77,56.3Z" transform="translate(0 -20.35)"/><path class="cls-9" d="M165.43,61.58a6.2,6.2,0,0,1-6.62,6.25,7.09,7.09,0,0,1-6.62-7,6.17,6.17,0,0,1,6.62-6.21A7.06,7.06,0,0,1,165.43,61.58Z" transform="translate(0 -20.35)"/><path class="cls-9" d="M180.87,42.88a6.28,6.28,0,0,1-6.62,6.32,7,7,0,0,1-6.62-6.91A6.25,6.25,0,0,1,174.25,36,7,7,0,0,1,180.87,42.88Z" transform="translate(0 -20.35)"/><path class="cls-9" d="M180.67,76.67A6.28,6.28,0,0,1,174.05,83a7,7,0,0,1-6.62-6.91,6.25,6.25,0,0,1,6.62-6.29A7,7,0,0,1,180.67,76.67Z" transform="translate(0 -20.35)"/></g></g></svg>