<?xml version="1.0" encoding="UTF-8" standalone="no"?>
<svg width="496pt" xmlns="http://www.w3.org/2000/svg" viewBox="0 -59 496 495" height="496pt">
 <path d="m248 288.5c-61.855 0-112-50.145-112-112h-128v192h480v-192h-128c0 61.855-50.145 112-112 112zm-160 48" fill="#cc7a00"/>
 <g fill="#804d00">
  <path d="m495.48 173.65-64-168c-1.1836-3.1055-4.1602-5.1523-7.4805-5.1523h-352c-3.3203 0-6.2969 2.0469-7.4805 5.1523l-64 168c-0.29297 0.82422-0.44922 1.6875-0.46484 2.5586 0 0.10547-0.054688 0.18359-0.054688 0.28906v192c0 4.418 3.582 8 8 8h480c4.418 0 8-3.582 8-8v-192c0-0.10547-0.054688-0.18359-0.054688-0.28906-0.015624-0.87109-0.17187-1.7344-0.46484-2.5586zm-417.97-157.15h340.98l57.902 152h-116.39c-4.418 0-8 3.582-8 8 0 57.438-46.562 104-104 104s-104-46.562-104-104c0-4.418-3.582-8-8-8h-116.39zm402.49 344h-464v-176h112.27c4.1875 63.047 56.547 112.04 119.73 112.04s115.55-48.996 119.73-112.04h112.27z"/>
  <path d="m56 328.5h-8v-24c0-4.418-3.582-8-8-8s-8 3.582-8 8v32c0 4.418 3.582 8 8 8h16c4.418 0 8-3.582 8-8s-3.582-8-8-8z"/>
  <path d="m104 328.5h-16c-4.418 0-8 3.582-8 8s3.582 8 8 8h16c4.418 0 8-3.582 8-8s-3.582-8-8-8z"/>
 </g>
</svg>
