<?xml version="1.0" encoding="UTF-8" standalone="no"?>
<!-- Generator: Adobe Illustrator 16.0.0, SVG Export Plug-In . SVG Version: 6.00 Build 0)  -->
<!DOCTYPE svg  PUBLIC '-//W3C//DTD SVG 1.1//EN'  'http://www.w3.org/Graphics/SVG/1.1/DTD/svg11.dtd'>
<svg id="Capa_1" style="enable-background:new 0 0 487.23 487.23" xmlns="http://www.w3.org/2000/svg" xml:space="preserve" height="487.23px" viewBox="0 0 487.23 487.23" width="487.23px" version="1.1" y="0px" x="0px" xmlns:xlink="http://www.w3.org/1999/xlink">
		<path d="m55.323 203.64c15.664 0 29.813-9.405 35.872-23.854 25.017-59.604 83.842-101.61 152.42-101.61 37.797 0 72.449 12.955 100.23 34.442l-21.775 3.371c-7.438 1.153-13.224 7.054-14.232 14.512-1.01 7.454 3.008 14.686 9.867 17.768l119.75 53.872c5.249 2.357 11.33 1.904 16.168-1.205 4.83-3.114 7.764-8.458 7.796-14.208l0.621-131.94c0.042-7.506-4.851-14.144-12.024-16.332-7.185-2.188-14.947 0.589-19.104 6.837l-16.505 24.805c-44.04-43.322-104.34-70.1-170.82-70.1-100.81 0-187.49 61.562-224.45 149.06-5.134 12.128-3.84 26.015 3.429 36.987 7.266 10.97 19.553 17.59 32.724 17.59z"/>
		<path d="m464.64 301.18c-7.27-10.977-19.558-17.594-32.728-17.594-15.664 0-29.813 9.405-35.872 23.854-25.018 59.604-83.843 101.61-152.42 101.61-37.798 0-72.45-12.955-100.23-34.442l21.776-3.369c7.437-1.153 13.223-7.055 14.233-14.514 1.009-7.453-3.008-14.686-9.867-17.768l-119.75-53.87c-5.25-2.356-11.33-1.905-16.169 1.205-4.829 3.114-7.764 8.458-7.795 14.207l-0.622 131.94c-0.042 7.506 4.85 14.144 12.024 16.332 7.185 2.188 14.948-0.59 19.104-6.839l16.505-24.805c44.004 43.32 104.3 70.098 170.79 70.098 100.81 0 187.48-61.561 224.45-149.06 5.13-12.14 3.83-26.02-3.43-37z"/>
</svg>
