<?xml version="1.0" encoding="UTF-8" standalone="no"?>
<svg id="Layer_1" style="enable-background:new 0 0 512 512" xmlns="http://www.w3.org/2000/svg" xml:space="preserve" viewBox="0 0 512 512" version="1.1" y="0px" x="0px" xmlns:xlink="http://www.w3.org/1999/xlink">
<path d="m501.46 383.8l-180.96-332.4c-13.8-22.8-37.8-36.6-64.5-36.6s-50.7 13.8-64.501 36.601l-180.96 332.4c-13.799 23.7-14.1 51.9-0.599 75.6 13.499 23.699 37.798 37.8 65.099 37.8h361.92c27.301 0 51.601-14.101 65.099-37.8 13.5-23.7 13.2-51.9-0.6-75.6z" fill="#495A79"/>
<path d="m502.06 459.4c-13.499 23.699-37.798 37.8-65.099 37.8h-180.96v-482.4c26.7 0 50.7 13.801 64.501 36.601l180.96 332.4c13.8 23.7 14.1 51.9 0.6 75.6z" fill="#42516D"/>
<path d="m475.66 399.1l-180.96-332.4c-8.1-13.8-22.8-21.9-38.7-21.9s-30.601 8.101-38.699 21.899l-180.96 332.4c-8.399 14.101-8.399 31.199-0.298 45.3 8.099 14.399 22.798 22.8 39 22.8h361.92c16.201 0 30.901-8.401 39-22.8 8.1-14.1 8.1-31.2-0.3-45.3z" fill="#FFDE33"/>
<path d="m475.96 444.4c-8.099 14.399-22.798 22.8-39 22.8h-180.96v-422.4c15.901 0 30.601 8.101 38.699 21.899l180.96 332.4c8.4 14.1 8.4 31.2 0.3 45.3z" fill="#FFBC33"/>
<g fill="#495A79">
	<path d="m256 437.2c-16.538 0-30-13.462-30-30s13.462-30 30-30 30 13.462 30 30-13.46 30-30 30z"/>
	<path d="m286 317.2c0 16.538-13.462 30-30 30s-30-13.462-30-30v-150c0-16.538 13.462-30 30-30s30 13.462 30 30v150z"/>
</g>
<g fill="#42516D">
	<path d="m286 407.2c0-16.538-13.462-30-30-30v60c16.54 0 30-13.46 30-30z"/>
	<path d="m286 317.2v-150c0-16.538-13.462-30-30-30v210c16.54 0 30-13.46 30-30z"/>
</g>
</svg>
