<?xml version="1.0" encoding="utf-8"?>
<!-- Generator: Adobe Illustrator 21.0.0, SVG Export Plug-In . SVG Version: 6.00 Build 0)  -->
<svg version="1.1" id="Layer_1" xmlns="http://www.w3.org/2000/svg" xmlns:xlink="http://www.w3.org/1999/xlink" x="0px" y="0px"
	 viewBox="0 0 1400 980" style="enable-background:new 0 0 1400 980;" xml:space="preserve">
<style type="text/css">
	.st0{fill:#FFE39A;}
	.st1{fill:#3A3E3F;}
	.st2{fill:#71E289;}
	.st3{fill:#DBDBDB;}
	.st4{fill:#874D4D;}
	.st5{fill:#E8E4DA;}
	.st6{fill:#683B11;}
	.st7{fill:#7E4E24;}
	.st8{fill:#FFFFFF;}
	.st9{opacity:0.5;}
	.st10{fill:#DEE247;}
	.st11{fill:#2D2D2D;}
	.st12{fill:#E0978D;}
	.st13{fill:#F9BBAF;}
	.st14{fill:#EDE7E6;}
	.st15{fill:#536D6D;}
	.st16{fill:#3A130A;}
	.st17{fill:#4F1B0D;}
	.st18{fill:#662719;}
	.st19{fill:#7A3023;}
	.st20{fill:#CC8A83;}
	.st21{fill:#E09F96;}
	.st22{fill:#DD6B6B;}
	.st23{fill:#212121;}
	.st24{fill:#D64D4D;}
	.st25{fill:#E09B92;}
	.st26{fill:#262626;}
	.st27{fill:#353433;}
	.st28{fill:#F5F7F5;}
	.st29{fill:#DD988E;}
	.st30{fill:#5CAABF;}
	.st31{fill:#777776;}
	.st32{fill:#8A9691;}
	.st33{fill:#A5A046;}
	.st34{fill:#456A7C;}
	.st35{fill:#577C93;}
	.st36{fill:#3F3F3F;}
	.st37{fill:#C9C657;}
	.st38{fill:#CE9265;}
	.st39{fill:#CEDFD9;}
	.st40{fill:#797F7D;}
	.st41{fill:#AEBAB5;}
	.st42{fill:#E4E8EF;}
	.st43{fill:#EDED7E;}
	.st44{fill:#9E9E9E;}
	.st45{fill:#34C17E;}
	.st46{fill:#15683E;}
	.st47{fill:#CE3A49;}
	.st48{fill:#E84B56;}
	.st49{fill:#808080;}
	.st50{fill:#585B57;}
	.st51{fill:#A82C3E;}
	.st52{fill:#DD4747;}
	.st53{fill:#C13636;}
	.st54{fill:#BC2F2F;}
	.st55{fill:#CE3E3E;}
	.st56{fill:#564F4F;}
	.st57{fill:#383535;}
	.st58{fill:#482718;}
	.st59{fill:#CE5F7F;}
	.st60{fill:#ED7493;}
	.st61{fill:#F4B8C9;}
	.st62{fill:#CE9E19;}
	.st63{fill:#DDAE1B;}
	.st64{fill:#B28916;}
	.st65{fill:#478593;}
	.st66{fill:#A54C4C;}
	.st67{fill:#C16565;}
	.st68{fill:#EDEDED;}
	.st69{fill:#6C686D;}
	.st70{fill:#9B391F;}
	.st71{font-family:'ArialMT';}
	.st72{font-size:78.42px;}
	.st73{letter-spacing:7;}
	.st74{letter-spacing:1;}
	.st75{letter-spacing:8;}
	.st76{letter-spacing:10;}
	.st77{font-size:20.89px;}
	.st78{letter-spacing:2;}
	.st79{fill:#873D36;}
</style>
<title>BurgerParty</title>
<g>
	<g id="Layer_1_1_">
		<rect class="st0" width="1400" height="980"/>
		<path class="st1" d="M198.1,531.9v7.6h14.3v-7.6c0-1.3-1.1-2.4-2.4-2.4c0,0,0,0,0,0h-9.5C199.2,529.5,198.1,530.6,198.1,531.9z"/>
		<path class="st2" d="M187.6,633.8c0,0.4,0,0.9,0.2,1.3c0.5,1.3,1.6,2.4,2.9,3l0.5,0.2c0.5,0.2,1.1,0.5,1.6,0.7l0.2,0.1
			c0.3,0.1,0.6,0.2,0.8,0.2l0.6,0.2l0.4,0.1l0.7,0.1c6.5,1.1,13.1,1.1,19.5,0l0.6-0.1l0.5-0.1l0.5-0.1c0.6-0.1,1.1-0.3,1.6-0.5h0.1
			l0.3-0.1c2.3-0.9,3.6-2.2,4-3.5c0-0.1,0.1-0.2,0.1-0.3s0-0.1,0-0.2s0-0.2,0-0.3s0-0.1,0-0.1s0-0.2,0-0.3c0,0,0-0.1,0-0.1v-0.3
			c0-0.1,0-0.1,0-0.2v-0.2l-0.1-0.3v-0.1c-0.2-0.5-0.4-1-0.6-1.4c-0.5-1.3-0.8-2.7-0.9-4.1c-0.2-1.9-0.3-4.3-0.4-7
			c-0.1-4.9-0.1-10.9,0-17s0.3-12,0.5-17.2c0.1-3.3,0.3-6.3,0.4-8.6v-0.3c0-3-2-5.7-4.9-6.5c-2.8-0.8-4.8-3.3-4.9-6.3l-0.1-3.5
			l-0.8-21.3h-11.8l-0.8,20.9v0.4l-0.1,3.5c-0.1,2.5-1.5,4.7-3.7,5.8c-0.4,0.2-0.8,0.3-1.2,0.5c-0.5,0.2-1,0.4-1.5,0.7
			c-2.2,1.3-3.5,3.6-3.4,6.2c0.1,1.4,0.1,3.1,0.2,4.9c0,1.2,0.1,2.4,0.2,3.7c0.6,16.6,1.3,42.3-0.6,45.3
			C188,632.2,187.7,633,187.6,633.8z"/>
		<path class="st3" d="M187.6,633.8c0,0.4,0,0.9,0.2,1.3c0.5,1.3,1.6,2.4,2.9,3l0.5,0.2c0.5,0.2,1.1,0.5,1.6,0.7l0.2,0.1
			c0.3,0.1,0.6,0.2,0.8,0.2l0.6,0.2l0.4,0.1l0.7,0.1c3.2,0.6,6.5,0.9,9.7,0.8v-111h-4.8c-1.3,0-2.4,1.1-2.4,2.4l0,0v7.6h1.2
			l-0.8,20.9v0.4l-0.1,3.5c-0.1,2.5-1.5,4.7-3.7,5.8c-0.4,0.2-0.8,0.3-1.2,0.5c-0.5,0.2-1,0.4-1.5,0.7c-2.2,1.3-3.5,3.6-3.4,6.2
			c0.1,1.4,0.1,3.1,0.2,4.9c0,1.2,0.1,2.4,0.2,3.7c0.6,16.6,1.3,42.3-0.6,45.3C187.9,632.2,187.6,633,187.6,633.8z"/>
		<path class="st1" d="M241.6,531.9v7.6h14.3v-7.6c0-1.3-1.1-2.4-2.4-2.4h0H244C242.7,529.5,241.6,530.5,241.6,531.9
			C241.6,531.9,241.6,531.9,241.6,531.9z"/>
		<path class="st4" d="M231,633.8c0,0.4,0,0.9,0.2,1.3c0.5,1.3,1.6,2.4,2.9,3l0.5,0.2c0.5,0.2,1.1,0.5,1.6,0.7l0.2,0.1
			c0.3,0.1,0.6,0.2,0.8,0.2l0.6,0.2l0.4,0.1l0.7,0.1c6.5,1.1,13.1,1.1,19.5,0l0.6-0.1l0.5-0.1l0.5-0.1c0.6-0.1,1.1-0.3,1.6-0.5h0.1
			l0.3-0.1c2.3-0.9,3.6-2.2,4-3.5c0-0.1,0.1-0.2,0.1-0.3s0-0.1,0-0.2s0-0.2,0-0.3s0-0.1,0-0.1s0-0.2,0-0.3c0,0,0-0.1,0-0.1v-0.3
			c0-0.1,0-0.1,0-0.2v-0.2l-0.1-0.3v-0.1c-0.2-0.5-0.4-1-0.6-1.4c-0.5-1.3-0.8-2.7-0.9-4.1c-0.2-1.9-0.3-4.3-0.4-7
			c-0.1-4.9-0.1-10.9,0-17s0.3-12,0.5-17.2c0.1-3.3,0.3-6.3,0.4-8.6v-0.3c0-3-2-5.7-4.9-6.5c-2.8-0.8-4.8-3.3-4.9-6.3l-0.1-3.5
			l-0.8-21.3h-11.8l-0.8,20.9v0.4l-0.1,3.5c-0.1,2.5-1.5,4.7-3.7,5.8c-0.4,0.2-0.8,0.3-1.2,0.5c-0.5,0.2-1,0.4-1.5,0.7
			c-2.2,1.3-3.5,3.6-3.4,6.2c0.1,1.4,0.1,3.1,0.2,4.9c0.1,1.2,0.1,2.4,0.2,3.7c0.6,16.6,1.3,42.3-0.6,45.3
			C231.4,632.2,231.1,633,231,633.8z"/>
		<path class="st3" d="M231,633.8c0,0.4,0,0.9,0.2,1.3c0.5,1.3,1.6,2.4,2.9,3l0.5,0.2c0.5,0.2,1.1,0.5,1.6,0.7l0.2,0.1
			c0.3,0.1,0.6,0.2,0.8,0.2l0.6,0.2l0.4,0.1l0.7,0.1c3.2,0.6,6.5,0.9,9.7,0.8v-111H244c-1.3,0-2.4,1.1-2.4,2.4l0,0v7.6h1.2
			l-0.8,20.9v0.4l-0.1,3.5c-0.1,2.5-1.5,4.7-3.7,5.8c-0.4,0.2-0.8,0.3-1.2,0.5c-0.5,0.2-1,0.4-1.5,0.7c-2.2,1.3-3.5,3.6-3.4,6.2
			c0.1,1.4,0.1,3.1,0.2,4.9c0.1,1.2,0.1,2.4,0.2,3.7c0.6,16.6,1.3,42.3-0.6,45.3C231.4,632.2,231.1,633,231,633.8z"/>
		<path class="st5" d="M101.5,863.1v-182c0-5.1-4.2-9.3-9.3-9.3l0,0c-5.1,0-9.3,4.2-9.3,9.3l-0.2,182L101.5,863.1z"/>
		<path class="st5" d="M136.4,863.1v-182c0-5.1-4.2-9.3-9.3-9.3l0,0c-5.1,0-9.3,4.2-9.3,9.3v182.2L136.4,863.1z"/>
		<path class="st5" d="M169.2,863.1v-182c0-5.1-4.2-9.3-9.3-9.3l0,0c-5.1,0-9.3,4.2-9.3,9.3v182.2L169.2,863.1z"/>
		<path class="st5" d="M202,863.1v-182c0-5.1-4.2-9.3-9.3-9.3l0,0c-5.1,0-9.3,4.2-9.3,9.3l0.1,182.2L202,863.1z"/>
		<path class="st5" d="M234.9,863.1v-182c0-5.1-4.2-9.3-9.3-9.3l0,0c-5.1,0-9.3,4.2-9.3,9.3l-0.2,182L234.9,863.1z"/>
		<path class="st5" d="M267.7,863.1v-182c0-5.1-4.2-9.3-9.3-9.3l0,0c-5.1,0-9.3,4.2-9.3,9.3l-0.4,182L267.7,863.1z"/>
		<path class="st5" d="M300.5,863.1v-182c0-5.1-4.2-9.3-9.3-9.3l0,0c-5.1,0-9.3,4.2-9.3,9.3l-0.2,182L300.5,863.1z"/>
		<rect x="84.7" y="697" class="st5" width="213" height="7.2"/>
		<rect x="84.7" y="746.2" class="st5" width="215.4" height="7.2"/>
		<path class="st5" d="M301,863.1v-182c0-5.1-4.2-9.3-9.3-9.3l0,0c-5.1,0-9.3,4.2-9.3,9.3l-0.2,182L301,863.1z"/>
		<path class="st5" d="M335.8,863.1v-182c0-5.1-4.2-9.3-9.3-9.3l0,0c-5.1,0-9.3,4.2-9.3,9.3v182.2L335.8,863.1z"/>
		<path class="st5" d="M368.6,863.1v-182c0-5.1-4.2-9.3-9.3-9.3l0,0c-5.1,0-9.3,4.2-9.3,9.3v182.2L368.6,863.1z"/>
		<path class="st5" d="M401.5,863.1v-182c0-5.1-4.2-9.3-9.3-9.3l0,0c-5.1,0-9.3,4.2-9.3,9.3l0.1,182.2L401.5,863.1z"/>
		<path class="st5" d="M434.3,863.1v-182c0-5.1-4.2-9.3-9.3-9.3l0,0c-5.1,0-9.3,4.2-9.3,9.3l-0.2,182L434.3,863.1z"/>
		<path class="st5" d="M467.1,863.1v-182c0-5.1-4.2-9.3-9.3-9.3l0,0c-5.1,0-9.3,4.2-9.3,9.3l-0.4,182L467.1,863.1z"/>
		<path class="st5" d="M500,863.1v-182c0-5.1-4.2-9.3-9.3-9.3l0,0c-5.1,0-9.3,4.2-9.3,9.3l-0.2,182L500,863.1z"/>
		<rect x="284.1" y="697" class="st5" width="213" height="7.2"/>
		<rect x="284.1" y="746.2" class="st5" width="215.4" height="7.2"/>
		<path class="st5" d="M499.9,863.1v-182c0-5.1-4.2-9.3-9.3-9.3l0,0c-5.1,0-9.3,4.2-9.3,9.3l-0.2,182L499.9,863.1z"/>
		<path class="st5" d="M534.8,863.1v-182c0-5.1-4.2-9.3-9.3-9.3l0,0c-5.1,0-9.3,4.2-9.3,9.3v182.2L534.8,863.1z"/>
		<path class="st5" d="M567.6,863.1v-182c0-5.1-4.2-9.3-9.3-9.3l0,0c-5.1,0-9.3,4.2-9.3,9.3v182.2L567.6,863.1z"/>
		<path class="st5" d="M600.5,863.1v-182c0-5.1-4.2-9.3-9.3-9.3l0,0c-5.1,0-9.3,4.2-9.3,9.3l0.2,182.2L600.5,863.1z"/>
		<path class="st5" d="M633.3,863.1v-182c0-5.1-4.2-9.3-9.3-9.3l0,0c-5.1,0-9.3,4.2-9.3,9.3l-0.2,182L633.3,863.1z"/>
		<path class="st5" d="M666.1,863.1v-182c0-5.1-4.2-9.3-9.3-9.3l0,0c-5.1,0-9.3,4.2-9.3,9.3l-0.3,182L666.1,863.1z"/>
		<path class="st5" d="M699,863.1v-182c0-5.1-4.2-9.3-9.3-9.3l0,0c-5.1,0-9.3,4.2-9.3,9.3l-0.2,182L699,863.1z"/>
		<rect x="483.1" y="697" class="st5" width="213" height="7.2"/>
		<rect x="483.1" y="746.2" class="st5" width="215.4" height="7.2"/>
		<rect x="424" y="666.8" class="st6" width="22.6" height="195.8"/>
		<rect x="147.7" y="636.7" class="st7" width="338.9" height="30.2"/>
		<rect x="187.6" y="666.8" class="st6" width="23" height="195.8"/>
		<polygon class="st8" points="192.7,636.7 317.2,761.2 441.7,636.7 		"/>
		<g class="st9">
			<polygon class="st10" points="432.1,646.2 441.7,636.7 422.5,636.7 			"/>
		</g>
		<g class="st9">
			<polygon class="st10" points="384.2,636.7 413,665.4 422.5,655.8 403.4,636.7 			"/>
		</g>
		<g class="st9">
			<polygon class="st10" points="345.9,636.7 393.8,684.5 403.4,675 365.1,636.7 			"/>
		</g>
		<g class="st9">
			<polygon class="st10" points="307.6,636.7 374.6,703.7 384.2,694.1 326.8,636.7 			"/>
		</g>
		<g class="st9">
			<polygon class="st10" points="269.3,636.7 355.5,722.8 365.1,713.3 288.4,636.7 			"/>
		</g>
		<g class="st9">
			<polygon class="st10" points="231,636.7 336.3,742 345.9,732.4 250.1,636.7 			"/>
		</g>
		<g class="st9">
			<polygon class="st10" points="192.7,636.7 317.2,761.2 326.8,751.6 211.8,636.7 			"/>
		</g>
		<g class="st9">
			<polygon class="st10" points="307.6,751.6 317.2,761.2 441.7,636.7 422.5,636.7 			"/>
		</g>
		<g class="st9">
			<polygon class="st10" points="384.2,636.7 288.4,732.4 298,742 403.4,636.7 			"/>
		</g>
		<g class="st9">
			<polygon class="st10" points="345.9,636.7 269.3,713.3 278.9,722.8 365.1,636.7 			"/>
		</g>
		<g class="st9">
			<polygon class="st10" points="307.6,636.7 250.1,694.1 259.7,703.7 326.8,636.7 			"/>
		</g>
		<g class="st9">
			<polygon class="st10" points="269.3,636.7 231,675 240.6,684.5 288.4,636.7 			"/>
		</g>
		<g class="st9">
			<polygon class="st10" points="231,636.7 211.8,655.8 221.4,665.4 250.1,636.7 			"/>
		</g>
		<g class="st9">
			<polygon class="st10" points="192.7,636.7 202.2,646.2 211.8,636.7 			"/>
		</g>
		<path class="st5" d="M700,863.1v-182c0-5.1-4.2-9.3-9.3-9.3l0,0c-5.1,0-9.3,4.2-9.3,9.3l-0.2,182L700,863.1z"/>
		<path class="st5" d="M734.9,863.1v-182c0-5.1-4.2-9.3-9.3-9.3l0,0c-5.1,0-9.3,4.2-9.3,9.3v182.2L734.9,863.1z"/>
		<path class="st5" d="M767.7,863.1v-182c0-5.1-4.2-9.3-9.3-9.3l0,0c-5.1,0-9.3,4.2-9.3,9.3v182.2L767.7,863.1z"/>
		<path class="st5" d="M800.5,863.1v-182c0-5.1-4.2-9.3-9.3-9.3l0,0c-5.1,0-9.3,4.2-9.3,9.3l0.2,182.2L800.5,863.1z"/>
		<path class="st5" d="M833.4,863.1v-182c0-5.1-4.2-9.3-9.3-9.3l0,0c-5.1,0-9.3,4.2-9.3,9.3l-0.2,182L833.4,863.1z"/>
		<path class="st5" d="M866.2,863.1v-182c0-5.1-4.2-9.3-9.3-9.3l0,0c-5.1,0-9.3,4.2-9.3,9.3l-0.3,182L866.2,863.1z"/>
		<path class="st5" d="M899.1,863.1v-182c0-5.1-4.2-9.3-9.3-9.3l0,0c-5.1,0-9.3,4.2-9.3,9.3l-0.2,182L899.1,863.1z"/>
		<rect x="683.2" y="697" class="st5" width="213" height="7.2"/>
		<rect x="683.2" y="746.2" class="st5" width="215.4" height="7.2"/>
		<path class="st5" d="M899.5,863.1v-182c0-5.1-4.2-9.3-9.3-9.3l0,0c-5.1,0-9.3,4.2-9.3,9.3l-0.2,182L899.5,863.1z"/>
		<path class="st5" d="M934.3,863.1v-182c0-5.1-4.2-9.3-9.3-9.3l0,0c-5.1,0-9.3,4.2-9.3,9.3v182.2L934.3,863.1z"/>
		<path class="st5" d="M967.2,863.1v-182c0-5.1-4.2-9.3-9.3-9.3l0,0c-5.1,0-9.3,4.2-9.3,9.3v182.2L967.2,863.1z"/>
		<path class="st5" d="M1000,863.1v-182c0-5.1-4.2-9.3-9.3-9.3l0,0c-5.1,0-9.3,4.2-9.3,9.3l0.2,182.2L1000,863.1z"/>
		<path class="st5" d="M1032.8,863.1v-182c0-5.1-4.2-9.3-9.3-9.3l0,0c-5.1,0-9.3,4.2-9.3,9.3l-0.2,182L1032.8,863.1z"/>
		<path class="st5" d="M1065.7,863.1v-182c0-5.1-4.2-9.3-9.3-9.3l0,0c-5.1,0-9.3,4.2-9.3,9.3l-0.3,182L1065.7,863.1z"/>
		<path class="st5" d="M1098.5,863.1v-182c0-5.1-4.2-9.3-9.3-9.3l0,0c-5.1,0-9.3,4.2-9.3,9.3l-0.2,182L1098.5,863.1z"/>
		<rect x="882.6" y="697" class="st5" width="213" height="7.2"/>
		<rect x="882.6" y="746.2" class="st5" width="215.4" height="7.2"/>
		<path class="st5" d="M1098.4,863.1v-182c0-5.1-4.2-9.3-9.3-9.3l0,0c-5.1,0-9.3,4.2-9.3,9.3l-0.2,182L1098.4,863.1z"/>
		<path class="st5" d="M1133.3,863.1v-182c0-5.1-4.2-9.3-9.3-9.3l0,0c-5.1,0-9.3,4.2-9.3,9.3v182.2L1133.3,863.1z"/>
		<path class="st5" d="M1166.1,863.1v-182c0-5.1-4.2-9.3-9.3-9.3l0,0c-5.1,0-9.3,4.2-9.3,9.3v182.2L1166.1,863.1z"/>
		<path class="st5" d="M1199,863.1v-182c0-5.1-4.2-9.3-9.3-9.3l0,0c-5.1,0-9.3,4.2-9.3,9.3l0.2,182.2L1199,863.1z"/>
		<path class="st5" d="M1231.8,863.1v-182c0-5.1-4.2-9.3-9.3-9.3l0,0c-5.1,0-9.3,4.2-9.3,9.3l-0.2,182L1231.8,863.1z"/>
		<path class="st5" d="M1264.6,863.1v-182c0-5.1-4.2-9.3-9.3-9.3l0,0c-5.1,0-9.3,4.2-9.3,9.3l-0.3,182L1264.6,863.1z"/>
		<path class="st5" d="M1297.5,863.1v-182c0-5.1-4.2-9.3-9.3-9.3l0,0c-5.1,0-9.3,4.2-9.3,9.3l-0.2,182L1297.5,863.1z"/>
		<rect x="1081.6" y="697" class="st5" width="213" height="7.2"/>
		<rect x="1081.6" y="746.2" class="st5" width="215.4" height="7.2"/>
		<polygon class="st11" points="654.9,476.2 610.9,474.9 610.9,486.9 630.2,497.8 651,495.8 651.4,489.6 		"/>
		<path class="st12" d="M524.3,600.7v-14.8c0-0.5,0.4-0.8,0.8-0.8l0,0h4c2.5,0,4.5,2,4.5,4.5l0,0v11.2c0,1-0.9,1.9-1.9,1.9h0h-5.5
			C525.1,602.5,524.3,601.7,524.3,600.7z"/>
		
			<rect x="664.9" y="747.7" transform="matrix(0.1177 -0.993 0.993 0.1177 -163.2732 1338.9703)" class="st13" width="14" height="27.4"/>
		
			<rect x="657" y="787.4" transform="matrix(0.1177 -0.993 0.993 0.1177 -169.8157 1387.7386)" class="st14" width="78.2" height="4.2"/>
		<path class="st15" d="M676.2,768.9c0,0,12.5-1,6.2-14.8c0,0-2.7-4.5,6.2-4.5s10,1.2,10,1.2l-9.1,76.9c0,0-11.3,3.8-5.4-29
			S676.2,768.9,676.2,768.9z"/>
		<path class="st16" d="M574.1,750c4.5,10,14.9,22.4,38.9,24.7l10.6,1.5l32.2,4.6l5.9,0.8l0.2-1.7l4.2-29.8l-10.7-1.5l-31.8-4.5
			l-7.4-1c-10.9-1-12.6-4.9-13.2-6.1c-7.5-16.5,15.6-61.6,36.3-92.1c2-3,4-5.8,5.9-8.4l-17.6-12.9l-8.1-5.9
			c-0.5,0.6-8.5,11.6-17.9,27.2c-3.7,6-7.5,12.8-11.2,19.9C570.6,702.6,565.3,730.5,574.1,750z"/>
		<path class="st17" d="M586.3,750c4.5,10,14.9,22.4,38.9,24.7l36.7,5.2l4.2-29.8l-49.9-7.1c-10.9-1-12.6-4.9-13.2-6.1
			c-8.2-18.1,20.3-70.7,42.2-100.5l-17.6-12.9c-9.1,13.2-17.4,27-24.9,41.2C582.9,702.6,577.5,730.5,586.3,750z"/>
		<rect x="641.3" y="819.5" class="st13" width="14" height="27.4"/>
		<rect x="584.1" y="858.4" class="st14" width="78.2" height="4.2"/>
		<path class="st15" d="M641.3,838.3c0,0,2.5,12.2,15.4,4.4c0,0,4.2-3.2,5.2,5.6s0,10,0,10h-77.4c0,0-5.2-10.8,28.2-8.8
			S641.3,838.3,641.3,838.3z"/>
		<path class="st18" d="M623.6,776.2c0.9,18.3,3.4,36.5,7.4,54.3l17-3.7l14.1-3.1c-3.1-14.1-5.2-28.5-6.2-42.9
			c-0.8-10.7-0.9-21.4-0.3-32.2c1-21,4.6-41.7,10.9-61.7c4.6-14.7,10.8-28.8,18.6-42.1c3-5,5-7.7,5.1-7.7l-25.2-19.5
			c-0.4,0.5-2.2,2.9-4.9,7.1c-4.1,6.5-7.9,13.2-11.2,20.1c-10.4,21.5-22.5,55.2-25.1,99.3C623.1,754.8,623.1,765.5,623.6,776.2z"/>
		<path class="st19" d="M630.9,830.5l17-3.7c-12.8-60.8-4.6-108.8,4.6-138.5c10.1-32.5,23.5-50.7,23.7-50.8L660,624.7
			C645.6,647,606.8,720.6,630.9,830.5z"/>
		<path class="st20" d="M667.5,421.1c0,1.7,1.4,3.1,3.1,3.1c0.4,0,0.8-0.1,1.2-0.2c5-1.8,7.6-7.3,5.7-12.3c-1-2.6-3-4.7-5.6-5.7
			c-1.6-0.7-3.5,0-4.2,1.7c-0.2,0.4-0.3,0.9-0.3,1.3V421.1z"/>
		<path class="st13" d="M672.1,398.7l-0.1,12l-0.2,35.7c-0.1,11.7-9.6,21.1-21.2,21.1c-3,0-5.5,2.4-5.5,5.4c0,0,0,0,0,0v31.7h-18
			v-30c0-3.5-2.9-6.4-6.4-6.4h-2c-11.1,0-20.2-9-20.2-20.2c0,0,0,0,0,0v-59.9h63.2c3.3,0,6.5,1.6,8.4,4.3c0.3,0.4,0.5,0.8,0.8,1.2
			l0,0c0.1,0.2,0.2,0.4,0.3,0.6C671.8,395.7,672.1,397.2,672.1,398.7z"/>
		<path class="st21" d="M657,466.5c-2.1,0.7-4.3,1-6.5,1c-3,0-5.5,2.4-5.5,5.5c0,0,0,0,0,0v31.7h-18v-30c0-3.5-2.9-6.4-6.4-6.4h-2
			c-11.1,0-20.2-9-20.2-20.2c0,0,0,0,0,0v-59.9h17.2V448c0,10.2,8.3,18.5,18.5,18.5c0,0,0,0,0,0L657,466.5z"/>
		<path class="st22" d="M647,422.9c0.1-0.9,0.9-1.5,1.8-1.4c0.6,0.1,1.1,0.5,1.3,1c1.1,3.1,2.6,6.7,4,8.4c2.7,3.3,0,6.8-4.1,6
			C647,436.4,646.2,428.9,647,422.9z"/>
		<path class="st23" d="M632.6,438.7c1.5,1.7,3.1,3.2,4.7,4.7l0,0c3.4,3.1,8.2,6.6,11.8,6.6c2.4,0,4.6-1.5,6.4-3.3
			c2.2-2.4,3.9-5.1,5.3-8c-1.2,0.3-2.5,0.5-3.8,0.7c-6.1,0.8-12.3,0.8-18.5,0.1C636.7,439.4,634.7,439.1,632.6,438.7z"/>
		<path class="st8" d="M638.6,439.6v0.7c0,1,0.8,1.8,1.8,1.8l0,0h14.9c1,0,1.8-0.8,1.8-1.8l0,0v-0.8
			C650.9,440.2,644.7,440.3,638.6,439.6z"/>
		<path class="st24" d="M637.3,443.5c3.4,3.1,8.2,6.6,11.8,6.6c2.4,0,4.6-1.5,6.4-3.3C653.5,444.9,648.6,443,637.3,443.5z"/>
		<path class="st25" d="M641.7,448.8c0.8,1.3,1.9,2.4,3.3,3.2c0.3,0.2,0.7,0.4,1.1,0.5l1.2,0.4c0.4,0.1,0.8,0.1,1.2,0.2s0.8,0,1.2,0
			c1.6-0.2,3.1-0.8,4.4-1.7c0.6-0.5,1.2-1,1.7-1.5c0.5-0.6,0.9-1.2,1.3-1.8l-0.1,0l-1.6,1.6c-0.6,0.4-1.2,0.9-1.8,1.3
			c-1.2,0.8-2.7,1.3-4.1,1.5c-1.5,0.1-3-0.1-4.3-0.8C643.9,450.8,642.7,449.9,641.7,448.8L641.7,448.8z"/>
		<path class="st26" d="M620.9,405.6c0.7-1.9,1.9-3.6,3.5-4.9c1.7-1.4,3.7-2.3,5.8-2.5c2.3-0.3,4.6,0.5,6.4,2
			c1.6,1.4,2.6,3.3,2.9,5.4c-1.5-1.1-3-2-4.6-2.8c-1.3-0.6-2.8-0.8-4.3-0.6c-1.6,0.2-3.1,0.6-4.6,1.2
			C624.4,404.1,622.7,404.8,620.9,405.6z"/>
		<path class="st26" d="M654,406.1c0.3-1.7,1.1-3.4,2.3-4.6c1.3-1.4,3.1-2.4,5-2.6c2.1-0.2,4.1,0.6,5.5,2.2c1.2,1.3,2,3,2.1,4.8
			c-1.5-0.9-2.8-1.8-4-2.3c-1-0.5-2.1-0.7-3.2-0.7c-1.2,0.2-2.4,0.5-3.5,1.1C657,404.6,655.6,405.4,654,406.1z"/>
		<path class="st26" d="M640.3,420.8c-2.4-1.7-4.9-3.3-7.5-4.7c-1.3-0.6-2.6-1.1-3.9-1.5c-1.4-0.3-2.9-0.4-4.4-0.4
			c1.4-0.8,3-1.2,4.6-1.2c1.6,0.1,3.2,0.5,4.6,1.2c1.4,0.7,2.7,1.6,3.8,2.7C638.6,418.1,639.6,419.4,640.3,420.8z"/>
		<path class="st26" d="M653.6,420.8c0.7-1.4,1.6-2.7,2.8-3.7c1.1-1.1,2.4-2,3.8-2.7c1.4-0.7,3-1.1,4.6-1.2c1.6-0.1,3.2,0.3,4.6,1.2
			c-1.5,0-2.9,0.1-4.4,0.4c-1.4,0.4-2.7,0.9-3.9,1.5C658.5,417.5,656,419,653.6,420.8z"/>
		<path class="st27" d="M598.4,376.5V427h0.2c1.3,0,9.5-0.9,9.5-24c0-1.4,0.1-2.8,0.5-4.2c1-3.3,3.8-5.3,7-6.5
			c4.9-1.8,11-1.8,13.8-1.8c5.2,0,13.4,3.4,18.4,3.4s10.2-3.4,17.9-2.6c4.1,0.4,5.6,4,6.2,7.2v22.1c0,0,2.6,0,2.8-6.7
			c0.1-4.2,0.1-24.5,0-39.1v0c-0.1-2.6-2.2-4.6-4.7-4.5h-65.2C601.4,370.4,598.6,373.1,598.4,376.5z"/>
		<path class="st23" d="M598.4,376.5V427h0.2c1.3,0,9.5-0.9,9.5-24c0-1.4,0.1-2.8,0.5-4.2c1-3.3,3.8-5.3,7-6.5v-21.9h-10.7
			C601.4,370.4,598.5,373.1,598.4,376.5z"/>
		<path class="st13" d="M602.2,408.9c0-1.7-1.4-3.1-3.1-3.1c-0.4,0-0.8,0.1-1.2,0.2c-5,1.8-7.6,7.3-5.7,12.3c1,2.6,3,4.7,5.6,5.7
			c1.6,0.7,3.5,0,4.2-1.7c0.2-0.4,0.3-0.9,0.3-1.3V408.9z"/>
		<path class="st3" d="M648.8,644.8H685c3-5,5-7.7,5.1-7.7l-25.2-19.5c-0.4,0.5-2.2,2.9-4.9,7.1
			C655.9,631.2,652.1,637.9,648.8,644.8z"/>
		<path class="st3" d="M601.7,644.8h37.6c2-3,4-5.8,5.9-8.4l-17.6-12.9l-8.1-5.9C619.1,618.3,611.1,629.2,601.7,644.8z"/>
		<path class="st28" d="M596.7,482.7l1.3,24.2l7,132h86c15.3-84.2-22.4-156.1-22.4-156.1L596.7,482.7z"/>
		<path class="st21" d="M614.7,482.7c9.2,5.9,16.4,14.4,20.7,24.5c0.5-2,9.8-15.6,16-24.5H614.7z"/>
		<path class="st13" d="M668.5,482.7v24.2h94.3c7.5,0,13.6-6.1,13.6-13.5c0,0,0,0,0,0v-87.2h-23v63c0,7.5-6.1,13.5-13.5,13.5
			c0,0,0,0,0,0L668.5,482.7z"/>
		<path class="st13" d="M753.4,384.1v22.1h32.4v-32.4h-22.1C758,373.7,753.4,378.3,753.4,384.1C753.4,384.1,753.4,384.1,753.4,384.1
			L753.4,384.1z"/>
		<path class="st21" d="M753.5,382.7h19.9v-9h-9.7C758.5,373.7,754.1,377.6,753.5,382.7z"/>
		<path class="st13" d="M493.5,591.2v9.4c0,7,5.7,12.7,12.7,12.7h7c7,0,12.7-5.6,12.8-12.6c0,0,0,0,0-0.1v-14.4
			c0-1.8-0.9-3.4-2.3-4.4v-61.3c0-7.5,6.1-13.6,13.6-13.6h71.3v-24.2h-94.3c-7.5,0-13.6,6.1-13.6,13.6v85.1
			C496.4,582.7,493.6,586.7,493.5,591.2z"/>
		<rect x="500.7" y="557.5" class="st29" width="23" height="7.6"/>
		<path class="st28" d="M668.5,482.7v24.2h94.3c7.5,0,13.6-6.1,13.6-13.5c0,0,0,0,0,0V422h-23v47.1c0,7.5-6.1,13.5-13.5,13.5
			c0,0,0,0,0,0L668.5,482.7z"/>
		<path class="st28" d="M500.7,496.3v64.5h23v-40.4c0-7.5,6.1-13.6,13.6-13.6h71.3v-24.2h-94.3C506.7,482.7,500.7,488.8,500.7,496.3
			z"/>
		<path class="st1" d="M767.4,320.7v7.6h14.3v-7.6c0-1.3-1.1-2.4-2.4-2.4l0,0h-9.5C768.5,318.3,767.4,319.4,767.4,320.7L767.4,320.7
			z"/>
		<path class="st30" d="M756.9,422.7c0,0.4,0,0.9,0.2,1.3c0.5,1.3,1.6,2.4,2.9,3l0.5,0.2c0.5,0.2,1.1,0.5,1.7,0.6l0.2,0.1
			c0.3,0.1,0.5,0.2,0.8,0.2l0.6,0.2l0.4,0.1l0.7,0.1c6.5,1.1,13.1,1.1,19.5,0l0.6-0.1l0.5-0.1l0.5-0.1c0.6-0.1,1.1-0.3,1.6-0.5h0.1
			l0.3-0.1c2.3-0.9,3.6-2.1,4-3.5c0-0.1,0.1-0.2,0.1-0.3s0-0.1,0-0.2s0-0.2,0-0.4s0-0.1,0-0.1s0-0.2,0-0.3c0,0,0-0.1,0-0.1v-0.3
			c0-0.1,0-0.1,0-0.2v-0.2l-0.1-0.3v-0.1c-0.2-0.5-0.4-1-0.7-1.4c-0.5-1.3-0.8-2.7-0.8-4.1c-0.2-1.9-0.3-4.3-0.4-7
			c-0.1-4.9-0.1-10.9,0-17s0.3-12,0.5-17.2c0.1-3.3,0.3-6.3,0.4-8.6V366c0-3-2-5.7-4.9-6.5c-2.8-0.8-4.8-3.3-4.9-6.3l-0.1-3.5
			l-0.8-21.3h-11.8l-0.8,20.9v0.4l-0.1,3.5c-0.1,2.5-1.5,4.7-3.7,5.8c-0.4,0.2-0.8,0.3-1.2,0.5c-0.5,0.2-1,0.4-1.5,0.6
			c-2.2,1.3-3.5,3.6-3.4,6.1c0.1,1.4,0.1,3.1,0.2,4.9c0,1.2,0.1,2.4,0.2,3.7c0.6,16.6,1.3,42.3-0.6,45.3
			C757.3,421,757,421.8,756.9,422.7z"/>
		<path class="st3" d="M756.9,422.7c0,0.4,0,0.9,0.2,1.3c0.5,1.3,1.6,2.4,2.9,3l0.5,0.2c0.5,0.2,1.1,0.5,1.7,0.6l0.2,0.1
			c0.3,0.1,0.5,0.2,0.8,0.2l0.6,0.2l0.4,0.1l0.7,0.1c3.2,0.6,6.5,0.9,9.7,0.8v-111h-4.8c-1.3,0-2.4,1.1-2.4,2.4v0v7.6h1.2l-0.8,20.9
			v0.4l-0.1,3.5c-0.1,2.5-1.5,4.7-3.7,5.8c-0.4,0.2-0.8,0.3-1.2,0.5c-0.5,0.2-1,0.4-1.5,0.6c-2.2,1.3-3.5,3.6-3.4,6.1
			c0.1,1.4,0.1,3.1,0.2,4.9c0,1.2,0.1,2.4,0.2,3.7c0.6,16.6,1.3,42.3-0.6,45.3C757.3,421,757,421.8,756.9,422.7z"/>
		<path class="st1" d="M757.1,424c0.6,1.3,1.6,2.4,2.9,3l0.5,0.2c0.5,0.2,1.1,0.5,1.7,0.6l0.2,0.1l0.8,0.2l0.6,0.1l0.4,0.1l0.7,0.1
			c6.5,1.1,13.1,1.1,19.5,0l0.6-0.1l0.5-0.1l0.5-0.1c0.6-0.2,1.2-0.4,1.8-0.6l0.3-0.1c2.3-0.9,3.6-2.2,4-3.5c0-0.1,0.1-0.2,0.1-0.3
			v-0.2c0.1-0.7,0-1.5-0.2-2.1c-1.2,2.9-6.5,5.1-17.4,5.1s-16.2-2.2-17.4-5.1c-0.2,0.4-0.3,0.9-0.3,1.3
			C756.8,423.2,756.9,423.6,757.1,424z"/>
		<path class="st13" d="M754.4,370.4h11.8c0.8,0,1.4,0.6,1.4,1.4l0,0v7.8c0,0.8-0.6,1.4-1.4,1.4l0,0h-11.8c-1,0-1.9-0.9-1.9-1.9
			c0,0,0,0,0,0v-6.7C752.5,371.2,753.3,370.4,754.4,370.4L754.4,370.4z"/>
		<path class="st13" d="M785.8,367.8v5.1c0,0.5,0.4,0.8,0.8,0.8l0,0h6.9c1,0,1.9-0.8,1.9-1.9v-2.9c0-1-0.9-1.9-1.9-1.9h-6.9
			C786.2,367,785.8,367.4,785.8,367.8z"/>
		<path class="st13" d="M793.5,384.9h-6.9c-0.5,0-0.8-0.4-0.8-0.8l0,0V379c0-0.5,0.4-0.8,0.8-0.8l0,0h6.9c1,0,1.9,0.9,1.9,1.9
			c0,0,0,0,0,0v2.9C795.4,384.1,794.6,384.9,793.5,384.9L793.5,384.9z"/>
		<path class="st13" d="M793.5,396.6h-6.9c-0.5,0-0.8-0.4-0.8-0.8l0,0v-5.1c0-0.5,0.4-0.8,0.8-0.8l0,0h6.9c1,0,1.9,0.9,1.9,1.9
			c0,0,0,0,0,0v2.9C795.4,395.8,794.6,396.6,793.5,396.6L793.5,396.6z"/>
		<path class="st13" d="M793.5,408.1h-6.9c-0.5,0-0.8-0.4-0.8-0.8l0,0v-5.1c0-0.5,0.4-0.8,0.8-0.8l0,0h6.9c1,0,1.9,0.9,1.9,1.9
			c0,0,0,0,0,0v2.9C795.4,407.3,794.6,408.1,793.5,408.1L793.5,408.1z"/>
		<path class="st3" d="M597.9,506.9l7,132h12.5l-6.9-124.5c-0.3-4.2-3.7-7.5-7.9-7.5L597.9,506.9z"/>
		<path class="st21" d="M785.8,370.4v2.5c0,0.5,0.4,0.8,0.8,0.8l0,0h6.9c1,0,1.9-0.8,1.9-1.9v-1.5H785.8z"/>
		<path class="st21" d="M785.8,381.6v2.5c0,0.5,0.4,0.8,0.8,0.8l0,0h6.9c1,0,1.9-0.8,1.9-1.9v-1.5H785.8z"/>
		<path class="st21" d="M785.8,393.3v2.5c0,0.5,0.4,0.8,0.8,0.8l0,0h6.9c1,0,1.9-0.8,1.9-1.9v-1.5H785.8z"/>
		<path class="st21" d="M785.8,404.8v2.5c0,0.5,0.4,0.8,0.8,0.8l0,0h6.9c1,0,1.9-0.8,1.9-1.9v-1.5H785.8z"/>
		<path class="st31" d="M656.9,483.9l-1.7,21.5c-0.1,0.7-0.7,1.3-1.4,1.2c-0.4,0-0.8-0.3-1-0.6c-9.1-14.5-16.2-1.2-17.4,1.2
			c1.2-3.1,9.9-25.1,19.5-31L656.9,483.9z"/>
		<path class="st31" d="M635.2,507.6c-0.2-0.7-5.1-15.9-16.9-1.8c-0.9,1.1-2.6,1.2-3.7,0.3c-0.4-0.3-0.7-0.8-0.8-1.3l-5.9-20.6
			c0.8-3.2,1.8-6.3,3-9.3C610.9,474.9,632.2,492.2,635.2,507.6z"/>
		<path class="st13" d="M555.2,526.9c-0.2,0.3-2.2,3.2-5.7,7.7c-8.8,11.1-18.5,21.5-29.1,30.9l-6.7,5.7c-2.3,1.9-4.7,3.8-7.2,5.7
			c-39.7,30.3-83.4,42.4-126.5,35.1l3.4-21.8c48,8.3,87.9-13,115-35c7.2-5.8,13.9-12.1,20.3-18.8c6.6-6.8,12.7-14.1,18.3-21.8
			L555.2,526.9z"/>
		<path class="st29" d="M526.9,554.1l-6.5,11.5l-6.7,5.7l-15.3-16c7.2-5.8,13.9-12.1,20.3-18.8L526.9,554.1z"/>
		<path class="st32" d="M531.8,577.8l-33.1-31.8l32.1-27.3c10.1-8.6,22.6-10.1,29.4-3.6l0,0c6.8,6.5,5.8,19.1-2.4,29.5L531.8,577.8z
			"/>
		<rect x="490.3" y="819.5" class="st13" width="14" height="27.4"/>
		<rect x="433.1" y="858.4" class="st26" width="78.1" height="4.2"/>
		<path class="st33" d="M490.3,838.3c0,0,2.5,12.2,15.4,4.4c0,0,4.2-3.2,5.1,5.6s0,10,0,10h-77.4c0,0-5.1-10.8,28.2-8.8
			S490.3,838.3,490.3,838.3z"/>
		<path class="st34" d="M472.6,776.2c0.9,18.3,3.4,36.5,7.4,54.3l17-3.7l14.1-3.1c-3.1-14.1-5.2-28.5-6.2-42.9
			c-0.8-10.7-0.9-21.4-0.3-32.2c1-21,4.6-41.7,10.9-61.7c4.6-14.7,10.8-28.8,18.6-42.1c3-5,5-7.7,5.1-7.7l-25.2-19.5
			c-0.4,0.5-2.2,2.9-4.9,7.1c-4.1,6.5-7.9,13.2-11.2,20.1c-10.4,21.5-22.5,55.2-25.1,99.3C472.1,754.8,472.1,765.5,472.6,776.2z"/>
		<path class="st35" d="M480,830.5l17-3.7c-12.9-60.8-4.6-108.8,4.6-138.5c10.1-32.5,23.5-50.7,23.7-50.8L509,624.7
			C494.6,647,455.8,720.6,480,830.5z"/>
		<path class="st3" d="M497.8,644.8H534c3-5,5-7.7,5.1-7.7l-25.2-19.5c-0.4,0.5-2.2,2.9-4.9,7.1
			C504.9,631.2,501.1,637.9,497.8,644.8z"/>
		<path class="st12" d="M450.9,411.3l-1.3,11.1c-0.3,2.4-2.5,4.2-4.9,3.9h0l-4-0.5c-0.4-0.1-0.8-0.5-0.7-0.9l0,0l1.7-14.7
			c0.1-1,1.1-1.8,2.1-1.7l5.5,0.6C450.3,409.3,451.1,410.3,450.9,411.3L450.9,411.3z"/>
		<path class="st13" d="M514.5,513l-2.8,24l-25-2.9l-68.6-7.9c-7.4-0.9-12.7-7.6-11.9-15l9.8-84.5c-4.1-1.8-6.5-6.1-6-10.6l1.1-9.3
			c0.8-7,7.1-11.9,14.1-11.1l7,0.8c7,0.8,11.9,7.1,11.1,14.1l-1.7,14.3c-0.2,1.7-1.2,3.3-2.8,4.1l-7,60.9c-0.8,7.4,4.5,14.1,11.9,15
			l45.8,5.3L514.5,513z"/>
		<polygon class="st29" points="514.5,513 511.7,537.1 486.7,534.2 489.4,510.1 		"/>
		<path class="st13" d="M388.4,590.6v22.1H356v-32.4h22.1C383.8,580.2,388.4,584.8,388.4,590.6C388.4,590.6,388.4,590.6,388.4,590.6
			z"/>
		<path class="st21" d="M388.4,589.2h-19.9v-9h9.7C383.3,580.2,387.7,584.1,388.4,589.2z"/>
		<rect x="535.8" y="819.5" class="st13" width="14" height="27.4"/>
		<rect x="478.7" y="858.4" class="st36" width="78.1" height="4.2"/>
		<path class="st37" d="M535.8,838.3c0,0,2.5,12.2,15.4,4.4c0,0,4.2-3.2,5.2,5.6s0,10,0,10H479c0,0-5.1-10.8,28.2-8.8
			S535.8,838.3,535.8,838.3z"/>
		<path class="st34" d="M518.1,776.2c0.9,18.3,3.4,36.5,7.4,54.3l17-3.7l14.1-3.1c-3.1-14.1-5.2-28.5-6.2-42.9
			c-0.8-10.7-0.9-21.4-0.3-32.2c1-21,4.6-41.7,10.9-61.7c4.6-14.7,10.8-28.8,18.6-42c3-5,5-7.7,5.1-7.7l-25.2-19.5
			c-0.4,0.5-2.2,2.9-4.9,7.1c-4.1,6.5-7.9,13.2-11.2,20.1c-10.4,21.5-22.5,55.2-25.1,99.3C517.6,754.8,517.6,765.5,518.1,776.2z"/>
		<path class="st35" d="M525.5,830.5l17-3.7c-12.8-60.8-4.6-108.8,4.6-138.5c10.1-32.5,23.5-50.7,23.7-50.8l-16.2-12.8
			C540.2,647,501.3,720.6,525.5,830.5z"/>
		<path class="st3" d="M543.3,644.8h36.2c3-5,5-7.7,5.1-7.7l-25.2-19.5c-0.4,0.5-2.2,2.9-4.9,7.1
			C550.4,631.2,546.7,637.9,543.3,644.8z"/>
		<path class="st20" d="M496.5,430c0,1.7-1.4,3.1-3.1,3.1c-0.4,0-0.8-0.1-1.2-0.2c-5-1.8-7.6-7.3-5.7-12.3c1-2.6,3-4.7,5.6-5.7
			c1.6-0.7,3.5,0,4.2,1.7c0.2,0.4,0.3,0.9,0.3,1.3V430z"/>
		<path class="st13" d="M493.4,407.6l0.1,12l0.2,35.7c0.1,11.7,9.6,21.1,21.3,21.1c3,0,5.5,2.5,5.5,5.5v31.7h18v-30
			c0-3.5,2.9-6.4,6.4-6.4h2c11.1,0,20.1-9.1,20.1-20.2v-78.9h-63.2C500.3,378.1,493.1,356,493.4,407.6z"/>
		<ellipse class="st21" cx="505" cy="427.1" rx="5.6" ry="5.5"/>
		<ellipse class="st21" cx="535.3" cy="427.1" rx="5.6" ry="5.5"/>
		<path class="st21" d="M508.4,475.4c2.1,0.7,4.3,1,6.5,1c3,0,5.5,2.5,5.5,5.5v31.7h18v-30c0-3.5,2.9-6.4,6.4-6.4h2
			c11.1,0,20.2-9,20.2-20.2c0,0,0,0,0,0v-79.2h-17.2v79.1c0,10.2-8.3,18.5-18.5,18.5c0,0,0,0,0,0H508.4z"/>
		<path class="st22" d="M518.5,431.8c-0.1-0.9-0.9-1.5-1.8-1.4c-0.6,0.1-1.1,0.5-1.3,1c-1.1,3.1-2.6,6.7-4,8.4c-2.7,3.3,0,6.8,4.1,6
			C518.4,445.2,519.2,437.8,518.5,431.8z"/>
		<path class="st26" d="M544.6,414.5c-1.9-0.8-3.5-1.5-5.2-2.2c-1.5-0.6-3-1-4.6-1.2c-1.5-0.2-2.9,0.1-4.3,0.6
			c-1.6,0.8-3.2,1.7-4.6,2.8c0.3-2.1,1.3-4,2.9-5.4c1.8-1.5,4.1-2.3,6.4-2c2.2,0.3,4.2,1.1,5.8,2.5
			C542.7,410.9,543.9,412.6,544.6,414.5z"/>
		<path class="st26" d="M511.4,415c-1.6-0.8-2.9-1.5-4.2-2.1c-1.1-0.6-2.3-0.9-3.5-1.1c-1.1-0.1-2.2,0.1-3.2,0.7
			c-1.2,0.5-2.5,1.4-4,2.3c0.1-1.8,0.9-3.5,2.1-4.8c1.4-1.5,3.4-2.3,5.5-2.2c1.9,0.2,3.7,1.1,5,2.6
			C510.3,411.6,511.1,413.3,511.4,415z"/>
		<path class="st36" d="M523.9,457.3c0,4.3-4.2,7.8-9.4,7.8c-2.2,0-4.3-0.6-6.1-1.8c-3.3-2-4.4-6.3-2.4-9.6c0.6-1,1.5-1.9,2.5-2.5
			c1.8-1.2,3.8-1.8,6-1.8c3.9,0,7.3,2,8.7,4.8c0.2,0.4,0.3,0.8,0.5,1.2C523.8,456.1,523.9,456.7,523.9,457.3z"/>
		<path class="st8" d="M523.2,454.3h-10.9c-1.8,0-3.4-1.3-3.8-3.1c1.8-1.2,3.8-1.8,6-1.8C518.4,449.4,521.8,451.4,523.2,454.3z"/>
		<path class="st22" d="M523.9,457.3c0,4.3-4.2,7.8-9.4,7.8c-2.2,0-4.3-0.6-6.1-1.8c0.4-2.5,3-6.9,15.2-7.8
			C523.8,456.1,523.9,456.7,523.9,457.3z"/>
		<path class="st21" d="M507.4,466.3c1.3,0.6,2.7,1,4.1,1.2c1.4,0.2,2.8,0.2,4.2,0.1c1.4-0.1,2.8-0.3,4.2-0.5
			c0.7-0.1,1.4-0.3,2.2-0.4c0.7-0.2,1.5-0.3,2.2-0.4c-0.6,0.5-1.2,0.9-1.9,1.4c-0.7,0.4-1.3,0.7-2.1,1c-1.5,0.6-3,0.9-4.5,1
			c-1.6,0.1-3.2-0.1-4.7-0.6C509.7,468.5,508.4,467.6,507.4,466.3z"/>
		<circle class="st11" cx="535.3" cy="425.6" r="4"/>
		<circle class="st11" cx="505" cy="425.6" r="4"/>
		<path class="st38" d="M548.2,396.3c0,0-92.3,32.6-86.3-19.1c0,0,2.7,6.7,8.3,5.9s49.6-39.3,79.6-15c0,0,21-5.7,21.2,16.8
			s-4,49.3-4,49.3S544.2,435.3,548.2,396.3z"/>
		<path class="st13" d="M563.3,417.7c0-1.7,1.4-3.1,3.1-3.1c0.4,0,0.8,0.1,1.2,0.2c5,1.8,7.6,7.3,5.7,12.3c-1,2.6-3,4.7-5.6,5.7
			c-1.6,0.7-3.5,0-4.2-1.7c-0.2-0.4-0.3-0.9-0.3-1.3V417.7z"/>
		<path class="st39" d="M584.6,637.1h-87.3c0,0,27.8-63.8,13.4-129.5c-0.7-3.2-1.5-6.4-2.4-9.6c-1-3.5,1-7.1,4.5-8.1
			c0.6-0.2,1.2-0.3,1.8-0.3h31.3c0,3.4,1.2,6.7,3.4,9.3c0.8,0.9,1.7,1.8,2.7,2.5C564.5,510.2,591.3,540.6,584.6,637.1z"/>
		<path class="st40" d="M549.2,498.9c0,0-13.2-3.9-38.6,8.7l0,0c-0.7-3.2-1.5-6.4-2.4-9.6c-1-3.5,1-7.1,4.5-8.1
			c0.6-0.2,1.2-0.3,1.8-0.3h31.3C545.8,493,547,496.3,549.2,498.9L549.2,498.9z"/>
		<path class="st41" d="M493.4,544.3l4.6-45.7l41.3,8.4c13,2.6,21.9,11.6,21,20.9l0,0c-0.9,9.4-11.5,16.3-24.7,16.3L493.4,544.3z"/>
		<path class="st42" d="M391.8,559.1c-0.6,5.5-1.7,10.9-3.4,16.2c-1.2,3.9-2.6,7.7-4.3,11.3c-5.7,12.1-2.6,25.1-1.7,28.6
			c0.2,0.3,0.3,0.6,0.3,0.9c0,2.5-6.4,4.6-14.4,4.6s-14.4-2.1-14.4-4.6c0-0.3,0.1-0.6,0.3-0.9c1-3.5,4-16.5-1.7-28.6
			c-1.7-3.7-3.1-7.5-4.3-11.3c-1.6-5.3-2.7-10.7-3.3-16.2c0.4,2.6,10.7,4.7,23.4,4.7S391.4,561.7,391.8,559.1z"/>
		<path class="st43" d="M384.2,586.6c-5.7,12.1-2.6,25.1-1.7,28.6c0.2,0.3,0.3,0.6,0.3,0.9c0,2.5-6.4,4.6-14.4,4.6
			s-14.4-2.1-14.4-4.6c0-0.3,0.1-0.6,0.3-0.9c1-3.5,4-16.5-1.7-28.6c-1.7-3.7-3.1-7.5-4.3-11.3c13.3,2,26.9,2,40.2,0
			C387.3,579.2,385.9,583,384.2,586.6z"/>
		<path class="st44" d="M391.9,558.9L391.9,558.9c0,0,0,0.1,0,0.1c-0.4,2.6-10.7,4.7-23.4,4.7s-23-2.1-23.4-4.7c0,0,0-0.1,0-0.1l0,0
			c0-2.7,10.5-4.9,23.4-4.9S391.9,556.2,391.9,558.9z"/>
		<path class="st13" d="M387.5,587.4h-11.9c-0.8,0-1.4-0.6-1.4-1.4l0,0v-7.7c0-0.8,0.6-1.4,1.4-1.4l0,0h11.9c1,0,1.9,0.9,1.9,1.9
			l0,0v6.7C389.3,586.6,388.5,587.4,387.5,587.4z"/>
		<path class="st13" d="M356,574.3v5.1c0,0.5-0.4,0.8-0.8,0.8l0,0h-6.9c-1,0-1.9-0.8-1.9-1.9v-2.9c0-1,0.9-1.9,1.9-1.9h6.9
			C355.7,573.6,356,573.9,356,574.3z"/>
		<path class="st13" d="M348.3,584.7h6.9c0.5,0,0.8,0.4,0.8,0.8l0,0v5.1c0,0.5-0.4,0.8-0.8,0.8l0,0h-6.9c-1,0-1.9-0.9-1.9-1.9l0,0
			v-2.9C346.4,585.6,347.3,584.7,348.3,584.7C348.3,584.7,348.3,584.7,348.3,584.7z"/>
		<path class="st13" d="M348.3,596.4h6.9c0.5,0,0.8,0.4,0.8,0.8l0,0v5.1c0,0.5-0.4,0.8-0.8,0.8l0,0h-6.9c-1,0-1.9-0.9-1.9-1.9l0,0
			v-2.9C346.4,597.3,347.3,596.4,348.3,596.4C348.3,596.4,348.3,596.4,348.3,596.4z"/>
		<path class="st13" d="M348.3,607.9h6.9c0.5,0,0.8,0.4,0.8,0.8l0,0v5.1c0,0.5-0.4,0.8-0.8,0.8l0,0h-6.9c-1,0-1.9-0.9-1.9-1.9l0,0
			v-2.9C346.4,608.8,347.3,607.9,348.3,607.9C348.3,607.9,348.3,607.9,348.3,607.9z"/>
		<path class="st21" d="M356,576.9v2.5c0,0.5-0.4,0.8-0.8,0.8l0,0h-6.9c-1,0-1.9-0.8-1.9-1.9v-1.5H356z"/>
		<path class="st21" d="M356,588.1v2.5c0,0.5-0.4,0.8-0.8,0.8l0,0h-6.9c-1,0-1.9-0.8-1.9-1.9v-1.5H356z"/>
		<path class="st21" d="M356,599.8v2.5c0,0.5-0.4,0.8-0.8,0.8l0,0h-6.9c-1,0-1.9-0.8-1.9-1.9v-1.5H356z"/>
		<path class="st21" d="M356,611.3v2.5c0,0.5-0.4,0.8-0.8,0.8l0,0h-6.9c-1,0-1.9-0.8-1.9-1.9v-1.5H356z"/>
		<path class="st3" d="M584.6,637.1h-13.8c13.1-104.1-23.6-134.9-26.5-138.5s-2.8-9-2.8-9h4.4c0,3.4,1.2,6.7,3.4,9.3
			c0.8,0.9,1.7,1.8,2.7,2.5C564.5,510.2,591.3,540.6,584.6,637.1z"/>
		<rect x="82.7" y="862.6" class="st45" width="1214.7" height="30.9"/>
		<rect x="82.7" y="893.7" class="st46" width="1214.7" height="15.5"/>
		<path class="st47" d="M748.7,802.8H641.1c-1.6-0.1-2.9-1.2-3.2-2.8c-0.3-1.6,0.6-3.1,2.1-3.6l54.2-18.5c0.7-0.2,1.4-0.2,2.1,0
			l53.2,18.4c1.4,0.4,2.3,1.7,2.3,3.2C751.9,801.3,750.5,802.7,748.7,802.8z M660.4,796.4h69.2l-34.3-11.8L660.4,796.4z"/>
		<path class="st47" d="M636.2,862.5l2.6-14h52v13.6c0,0.1,0,0.2,0,0.3h8c0-0.1,0-0.2,0-0.3v-13.6h52.7l2.6,14h8.9l-30.2-190.2
			c-0.6-2.2-2.8-3.4-5-2.8s-3.4,2.8-2.8,5l25.2,164.9l-51.3-16.7V677.7c0-2.2-1.8-4-4-4s-4,1.8-4,4v145.6l-50.7,16.4l25.3-165.4
			c0.6-2.2-0.7-4.4-2.8-5s-4.4,0.7-5,2.8l0,0l-30.2,190.2H636.2z M698.9,829.7l41,12.2h-41V829.7z M690.8,830.4v11.5h-39
			L690.8,830.4z"/>
		<path class="st48" d="M594.9,622.9l195.9,1.2c0,0-4.5,67.9-98,66.1S594.9,622.9,594.9,622.9z"/>
		<path class="st47" d="M752.4,623.9l38.5,0.2c0,0-4.5,67.9-98,66.1C692.9,690.2,752.4,672.6,752.4,623.9z"/>
		<path class="st49" d="M589.9,620.7c0,2,1.6,3.7,3.7,3.7h200.3c2,0,3.7-1.6,3.7-3.7c0-2-1.6-3.7-3.7-3.7c0,0,0,0,0,0H593.6
			C591.5,617,589.9,618.6,589.9,620.7C589.9,620.7,589.9,620.7,589.9,620.7z"/>
		<path class="st50" d="M609,610.5h8.8c1.3,0,2.4,1.1,2.4,2.4v1.6c0,1.3-1.1,2.4-2.4,2.4H609c-1.3,0-2.4-1.1-2.4-2.4v-1.6
			C606.5,611.5,607.6,610.5,609,610.5z"/>
		<path class="st50" d="M632.1,610.5h8.8c1.3,0,2.4,1.1,2.4,2.4v1.6c0,1.3-1.1,2.4-2.4,2.4h-8.8c-1.3,0-2.4-1.1-2.4-2.4v-1.6
			C629.7,611.5,630.8,610.5,632.1,610.5z"/>
		<path class="st50" d="M655.3,610.5h8.8c1.3,0,2.4,1.1,2.4,2.4v1.6c0,1.3-1.1,2.4-2.4,2.4h-8.8c-1.3,0-2.4-1.1-2.4-2.4v-1.6
			C652.9,611.5,654,610.5,655.3,610.5z"/>
		<path class="st50" d="M678.5,610.5h8.8c1.3,0,2.4,1.1,2.4,2.4v1.6c0,1.3-1.1,2.4-2.4,2.4h-8.8c-1.3,0-2.4-1.1-2.4-2.4v-1.6
			C676.1,611.5,677.2,610.5,678.5,610.5z"/>
		<path class="st50" d="M701.7,610.5h8.8c1.3,0,2.4,1.1,2.4,2.4v1.6c0,1.3-1.1,2.4-2.4,2.4h-8.8c-1.3,0-2.4-1.1-2.4-2.4v-1.6
			C699.3,611.5,700.4,610.5,701.7,610.5z"/>
		<path class="st50" d="M736.1,614.5c-0.2,1.4-1.4,2.4-2.8,2.4h-8.8c-1.3,0-2-1.1-2-2.4v-1.6c0-1.3,0.7-2.4,2-2.4h8.8
			c1.4,0,2.6,1,2.8,2.4V614.5z"/>
		<path class="st50" d="M759.3,614.5c-0.2,1.4-1.4,2.4-2.8,2.4h-8.8c-1.3,0-2-1.1-2-2.4v-1.6c0-1.3,0.7-2.4,2-2.4h8.8
			c1.4,0,2.6,1,2.8,2.4V614.5z"/>
		<path class="st50" d="M782.5,614.5c-0.2,1.4-1.4,2.4-2.8,2.4h-8.8c-1.3,0-2-1.1-2-2.4v-1.6c0-1.3,0.7-2.4,2-2.4h8.8
			c1.4,0,2.6,1,2.8,2.4V614.5z"/>
		<polygon class="st47" points="601,597.4 599.7,597.3 599.5,596.2 602,593.8 602.2,595 		"/>
		<polygon class="st47" points="650.2,595.8 651.3,595.6 651.6,594.2 649.3,592.5 648.4,593.5 		"/>
		<path class="st47" d="M623.6,610.4c10.2,0.4,25.2-2.9,26.7-12.4s-8.3-4.5-11.2-2.8c-7.2,4.1-15.8,4.8-23.5,2
			c-11.1-4.2-12.9-4.8-14.9-0.6S608.4,609.8,623.6,610.4z"/>
		<polygon class="st47" points="600.2,595.7 596.6,595.2 598.1,594.2 597.7,593.2 599.2,593.2 599.4,591.5 600.4,592.2 600.6,590.6 
			601.7,594.9 		"/>
		<polygon class="st47" points="649.6,593.2 650.1,589.7 651.5,591.2 652.8,590.7 652.8,592.2 654.2,592.4 653.3,593.5 654.8,593.6 
			650.5,594.8 		"/>
		<path class="st51" d="M611.8,595.7c-1.1-0.4-2.2-0.8-3-1.1l-1,5.8L611.8,595.7z"/>
		<path class="st51" d="M619,598.1c-1.1-0.3-2.1-0.6-3.2-1l0,0v6.6L619,598.1z"/>
		<path class="st51" d="M628.2,598.7c-1.4,0.2-2.7,0.2-4.1,0.2l1.5,7.6L628.2,598.7z"/>
		<path class="st51" d="M638.8,595.3c-1.3,0.7-2.7,1.3-4.1,1.8l5.5,6.2L638.8,595.3z"/>
		<polygon class="st47" points="664.9,597.4 663.5,597.3 663.4,596.2 665.8,593.8 666,595 		"/>
		<polygon class="st47" points="714,595.8 715.1,595.6 715.4,594.2 713.1,592.5 712.2,593.5 		"/>
		<path class="st47" d="M687.5,610.4c10.2,0.4,25.2-2.9,26.7-12.4s-8.3-4.5-11.2-2.8c-7.2,4.1-15.8,4.8-23.5,2
			c-11.1-4.2-12.9-4.8-14.9-0.6S672.2,609.8,687.5,610.4z"/>
		<polygon class="st47" points="664,595.7 660.5,595.2 662,594.2 661.5,593.2 663,593.2 663.2,591.5 664.3,592.2 664.4,590.6 
			665.5,594.9 		"/>
		<polygon class="st47" points="713.4,593.2 714,589.7 715.3,591.2 716.7,590.7 716.7,592.2 718,592.4 717.1,593.5 718.6,593.6 
			714.3,594.8 		"/>
		<path class="st51" d="M675.6,595.7c-1.1-0.4-2.2-0.8-3-1.1l-1,5.8L675.6,595.7z"/>
		<path class="st51" d="M682.8,598.1c-1.1-0.3-2.1-0.6-3.2-1l0,0v6.6L682.8,598.1z"/>
		<path class="st51" d="M692,598.7c-1.4,0.2-2.7,0.2-4.1,0.2l1.5,7.6L692,598.7z"/>
		<path class="st51" d="M702.6,595.3c-1.3,0.7-2.7,1.3-4.1,1.8l5.5,6.2L702.6,595.3z"/>
		<polygon class="st47" points="728.7,597.4 727.3,597.3 727.2,596.2 729.7,593.8 729.8,595 		"/>
		<polygon class="st47" points="777.9,595.8 778.9,595.6 779.2,594.2 776.9,592.5 776,593.5 		"/>
		<path class="st47" d="M751.3,610.4c10.2,0.4,25.2-2.9,26.7-12.4s-8.3-4.5-11.2-2.8c-7.2,4.1-15.8,4.8-23.5,2
			c-11.1-4.2-12.9-4.8-14.9-0.6S736.1,609.8,751.3,610.4z"/>
		<polygon class="st47" points="727.9,595.7 724.3,595.2 725.8,594.2 725.3,593.2 726.9,593.2 727,591.5 728.1,592.2 728.2,590.6 
			729.3,594.9 		"/>
		<polygon class="st47" points="777.2,593.2 777.8,589.7 779.2,591.2 780.5,590.7 780.5,592.2 781.8,592.4 781,593.5 782.5,593.6 
			778.1,594.8 		"/>
		<path class="st51" d="M739.4,595.7c-1.1-0.4-2.2-0.8-3-1.1l-1,5.8L739.4,595.7z"/>
		<path class="st51" d="M746.6,598.1c-1.1-0.3-2.1-0.6-3.2-1l0,0v6.6L746.6,598.1z"/>
		<path class="st51" d="M755.8,598.7c-1.4,0.2-2.7,0.2-4.1,0.2l1.5,7.6L755.8,598.7z"/>
		<path class="st51" d="M766.5,595.3c-1.3,0.7-2.7,1.3-4.1,1.8l5.5,6.2L766.5,595.3z"/>
		<path class="st52" d="M806.2,630.8l12.8,89.4c2.5,17.8,17.8,31,35.8,31h167.5c19.9,0,36.1-16.2,36.1-36.1c0-1.7-0.1-3.4-0.4-5.1
			l-12.8-89.4c-2.6-17.8-17.8-31-35.8-31H841.9c-19.9,0-36.1,16.1-36.1,36C805.8,627.4,805.9,629.1,806.2,630.8z"/>
		<path class="st53" d="M806.2,630.8l12.8,89.4c2,13.7,11.6,25.1,24.8,29.3c16.8-5.4,27.3-22.1,24.8-39.6l-12.8-89.4
			c-2-13.7-11.6-25.1-24.8-29.3C814.2,596.6,803.7,613.3,806.2,630.8z"/>
		<path class="st54" d="M818.8,699.2h94.7c10.3,0,18.6,8.3,18.6,18.6v103.1c0,10.3-8.3,18.6-18.6,18.6h-94.7
			c-10.3,0-18.6-8.3-18.6-18.6V717.7C800.3,707.5,808.6,699.2,818.8,699.2z"/>
		<path class="st55" d="M895.9,699.2h17.6c10.3,0,18.6,8.3,18.6,18.6v103.1c0,10.3-8.3,18.6-18.6,18.6h-17.6
			c-10.3,0-18.6-8.3-18.6-18.6V717.7C877.3,707.5,885.7,699.2,895.9,699.2z"/>
		<path class="st54" d="M1057.5,699.2h94.7c10.3,0,18.6,8.3,18.6,18.6v103.1c0,10.3-8.3,18.6-18.6,18.6h-94.7
			c-10.3,0-18.6-8.3-18.6-18.6V717.7C1038.9,707.5,1047.2,699.2,1057.5,699.2z"/>
		<path class="st55" d="M1134.6,699.2h17.7c10.3,0,18.6,8.3,18.6,18.6v103.1c0,10.3-8.3,18.6-18.6,18.6h-17.7
			c-10.3,0-18.6-8.3-18.6-18.6V717.7C1116,707.5,1124.3,699.2,1134.6,699.2z"/>
		<rect x="894.1" y="795.7" class="st55" width="258.2" height="43.7"/>
		<path class="st56" d="M932.1,744.7v51.1H1116v-27.2c0-13.2-10.7-23.9-23.9-23.9L932.1,744.7z"/>
		<path class="st57" d="M932.1,744.7v4.8h174.3c-4.1-3.1-9.2-4.8-14.4-4.8H932.1z"/>
		<rect x="1133.9" y="839.4" class="st58" width="19" height="23.2"/>
		<rect x="895.2" y="839.4" class="st58" width="19" height="23.2"/>
		<rect x="1065.2" y="839.4" class="st58" width="19" height="23.2"/>
		<rect x="826.5" y="839.4" class="st58" width="19" height="23.2"/>
		<path class="st13" d="M1028.1,482.4l-8.1-78.5l-53.9,5.5l-1.6,8.4l-11,13.1l-0.7,8.4l-2.9,2.2l1.2,11.2l3.9,35.5
			c1.3,11.6,11.7,20.1,23.3,18.8c3-0.3,5.7,1.9,6,4.9l3.2,31.5l17.9-1.8l-3.1-29.8c-0.3-3.5,2.2-6.6,5.7-7l2-0.2
			c11.1-1.1,19.2-11,18.1-22.1C1028.1,482.5,1028.1,482.4,1028.1,482.4z"/>
		<path class="st13" d="M905,753.2c0.1,37.7,28.8,72.5,85.4,103.4l7.7-14c-51.1-27.9-77-58-77.1-89.4c0-6.1,0.9-12.2,2.7-18
			c2.9-9.1,7.2-17.7,12.7-25.4c22.3-32,61.2-53.8,61.7-54.1l-7.7-14c-2.6,1.5-49.9,27.9-72.9,68.1c-4.6,7.9-8.1,16.5-10.3,25.4
			C905.7,741.1,905,747.2,905,753.2z"/>
		<path class="st13" d="M963.6,753.2c0.1,37.7,28.8,72.5,85.4,103.4l7.7-14c-51.1-27.9-77-58-77.1-89.4c0-6.1,0.9-12.2,2.7-18
			c2.9-9.1,7.1-17.7,12.7-25.4c15.9-22.7,40-40.3,52.9-48.7h-27.6c-15.1,11.9-32.7,28.5-44.3,48.7c-4.6,7.9-8.1,16.5-10.3,25.4
			C964.3,741.1,963.6,747.2,963.6,753.2z"/>
		<path class="st29" d="M965.7,735.2h16.6c2.9-9.1,7.1-17.7,12.7-25.4h-19C971.4,717.8,967.9,726.3,965.7,735.2z"/>
		<path class="st29" d="M907.1,735.2h16.6c2.9-9.1,7.2-17.7,12.7-25.4h-19C912.8,717.8,909.3,726.3,907.1,735.2z"/>
		<rect x="922.5" y="858.2" class="st23" width="78.2" height="4.2"/>
		<path class="st59" d="M951,849.4c11.7,0.7,18.8-0.5,22.9-2.3l0,0c0,0,23.1,9.4,23-5.1l0,0c1.2,0.1,2.8,1.3,3.3,6.2
			c1,8.8,0,10,0,10h-77.4C922.8,858.2,917.7,847.4,951,849.4z"/>
		<rect x="981.2" y="858.2" class="st36" width="78.2" height="4.2"/>
		<path class="st60" d="M1009.7,849.4c11.7,0.7,18.8-0.5,22.9-2.3l0,0c0,0,23.1,9.4,23-5.1l0,0c1.2,0.1,2.8,1.3,3.3,6.2
			c1,8.8,0,10,0,10h-77.4C981.5,858.2,976.3,847.4,1009.7,849.4z"/>
		<path class="st11" d="M1000.5,727.6h-93.7c6.9-20.6,22.7-43.8,54.8-66.5l88-12.4c0,0,0.7,30.2-11,42.9
			C1028.9,702.2,1007.6,707.6,1000.5,727.6z"/>
		<path class="st13" d="M852.8,614.6v22.1H828c-3.4,0-6.3-2.2-7.3-5.4c-0.2-0.7-0.3-1.5-0.3-2.2v-17.7c0-3.9,3.2-7.1,7.1-7.1
			c0,0,0,0,0,0h15C848.1,604.2,852.8,608.9,852.8,614.6C852.8,614.6,852.8,614.6,852.8,614.6L852.8,614.6z"/>
		<path class="st12" d="M852.5,471.7l-7.7-12.2c-0.5-0.9-0.3-2,0.6-2.6l0,0c3.3-2.1,7.7-1.2,9.9,2.1c0,0,0,0,0,0.1l3,4.7
			c1.3,2,0.7,4.7-1.3,6l-3.3,2.1C853.3,472.2,852.8,472.1,852.5,471.7C852.5,471.8,852.5,471.7,852.5,471.7z"/>
		<path class="st13" d="M1019.6,550.9c-0.2,0.3-2.2,3.2-5.7,7.7c-2.2,2.9-5.1,6.4-8.6,10.3c-6.4,7.3-13.3,14.1-20.5,20.6l-6.7,5.7
			c-2.3,1.9-4.7,3.8-7.2,5.7c-38.7,29.5-81.1,41.8-123.1,35.6c-1.2-0.2-2.3-0.3-3.4-0.5l0.5-3.4l2.9-18.4c1.7,0.3,3.4,0.5,5,0.8
			c45.8,6,83.8-14.5,110-35.8c7.2-5.8,13.9-12.1,20.3-18.8c6.6-6.8,12.7-14.1,18.2-21.8L1019.6,550.9z"/>
		<path class="st21" d="M1005.2,569c-6.4,7.3-13.3,14.1-20.5,20.6l-6.7,5.7c-2.3,1.9-4.7,3.8-7.2,5.7
			c-38.7,29.5-81.1,41.8-123.1,35.6H828c-3.4,0-6.3-2.2-7.3-5.4c2.1,1.4,4.5,2,7,2c2.8-0.1,9.6-0.5,17.1-0.5c2.6,0,5.3,0,7.9,0.2
			c1.8,0.1,3.6,0.2,5.3,0.3c11.4,1,71.2-2.5,117-42.9C991.5,575.9,1000.5,570.3,1005.2,569z"/>
		<path class="st21" d="M971.7,506.6c2.2,0.5,4.4,0.6,6.6,0.4c3-0.3,5.7,1.9,6,4.9l3.2,31.6l17.9-1.8l-3.1-29.8
			c-0.3-3.5,2.2-6.6,5.7-7l2-0.2c11.1-1.1,19.1-11,18-22.1c0,0,0,0,0,0l-8.1-78.9l-17.1,1.8l8.1,78.7c1,10.1-6.3,19.2-16.5,20.3
			c0,0,0,0,0,0L971.7,506.6z"/>
		<path class="st22" d="M977.2,462.2c-0.2-0.9-1.1-1.4-1.9-1.2c-0.6,0.1-1,0.6-1.2,1.2c-0.8,3.2-1.9,6.9-3.1,8.8
			c-2.4,3.5,0.7,6.8,4.7,5.5C978.6,475.6,978.6,468.1,977.2,462.2z"/>
		<path class="st26" d="M1001.5,442.3c-2-0.6-3.7-1.2-5.3-1.6c-1.5-0.5-3.1-0.7-4.7-0.8c-1.5,0-2.9,0.4-4.2,1.1
			c-1.5,0.9-3,2-4.3,3.2c0.1-2.1,0.9-4.1,2.3-5.7c1.6-1.7,3.8-2.7,6.2-2.6c2.2,0,4.3,0.7,6.1,1.9
			C999.2,438.9,1000.5,440.5,1001.5,442.3z"/>
		<path class="st26" d="M968.5,446.2c-1.7-0.6-3-1.2-4.4-1.7c-1.1-0.4-2.4-0.7-3.6-0.7c-1.1,0-2.2,0.4-3.2,1
			c-1.2,0.7-2.3,1.7-3.8,2.7c-0.1-1.8,0.5-3.6,1.6-5c1.2-1.7,3.2-2.7,5.2-2.7c1.9,0,3.8,0.7,5.3,2
			C967.1,443,968.1,444.5,968.5,446.2z"/>
		<path class="st12" d="M846,606.2V618c0,0.8-0.6,1.4-1.4,1.4l0,0h-5.2c-0.8,0-1.4-0.6-1.4-1.4l0,0v-11.8c0-1,0.9-1.9,1.9-1.9h0h4.2
			C845.2,604.2,846,605.1,846,606.2z"/>
		<path class="st3" d="M1048.9,661.1h-13.8c13.1-104.1-23.6-134.9-26.5-138.5s-2.8-9-2.8-9h4.4c0,3.4,1.2,6.7,3.4,9.3
			c0.8,0.9,1.7,1.8,2.7,2.5C1028.9,534.2,1055.7,564.6,1048.9,661.1z"/>
		<path class="st60" d="M1016.3,525.4c-1-0.7-1.9-1.6-2.7-2.5c-2.2-2.6-3.4-5.9-3.4-9.3h-31.3c-3.6,0-6.5,3-6.5,6.6
			c0,0.6,0.1,1.2,0.3,1.8c0.9,3.2,1.7,6.4,2.4,9.6c0.9,4,1.6,8.1,2.2,12.1c0.3,6.1-0.5,13.5-4.9,19.4c-8.4,11.4-16.4,30.2,5.3,33.8
			c-4.2,37.1-16.1,64.2-16.1,64.2h87.3C1055.7,564.6,1028.9,534.2,1016.3,525.4z"/>
		<path class="st61" d="M1013.6,522.9c0,0-13.2-3.9-38.6,8.7l0,0c-0.7-3.2-1.5-6.4-2.4-9.6c-1-3.5,1-7.1,4.5-8.1
			c0.6-0.2,1.2-0.3,1.8-0.3h31.3C1010.2,517,1011.4,520.3,1013.6,522.9L1013.6,522.9z"/>
		<path class="st13" d="M835.7,487.7c1.7,2.5,3.4,5,5.2,7.4c24.2,32.4,60.8,53.5,106.7,61.4c3.1,0.5,6.1,1,9.1,1.4l8.7,1
			c14.1,1.3,28.3,1.4,42.5,0.3h0.2c4.8-0.4,8.4-4.7,8-9.5c0-0.2,0-0.4-0.1-0.6l-0.7-4.4c-0.7-4.5-4.8-7.7-9.4-7.4
			c-5,0.4-12,0.8-20.4,0.7c-9.2-0.1-18.5-0.8-27.6-2.1c-32.6-4.5-72.4-17.9-99.2-53.5c-1.7-2.2-3.3-4.5-4.8-6.9L835.7,487.7z"/>
		<path class="st13" d="M835.6,487.9l18.8-12.1l-0.2-0.4c0.7-1.6,0.5-3.4-0.4-4.8l-7.5-11.9c-3.6-5.7-11.1-7.5-16.8-3.9
			c-0.1,0-0.1,0.1-0.2,0.1l-5.7,3.7c-5.7,3.8-7.4,11.4-3.7,17.2l4.9,7.7C827,487.3,831.4,489,835.6,487.9z"/>
		<path class="st60" d="M835.7,487.7c1.7,2.5,3.4,5,5.2,7.4l17.9-12.8c-1.7-2.2-3.3-4.5-4.8-6.9L835.7,487.7z"/>
		<path class="st13" d="M1020.4,443.6c-0.2-1.7,1.1-3.2,2.8-3.4c0.4,0,0.8,0,1.2,0.1c5.1,1.3,8.2,6.6,6.9,11.7
			c-0.7,2.7-2.5,4.9-4.9,6.2c-1.6,0.9-3.5,0.3-4.4-1.2c-0.2-0.4-0.4-0.8-0.4-1.3L1020.4,443.6z"/>
		<path class="st23" d="M991.4,477.6c-1.4,1.7-2.9,3.4-4.4,5l0,0c-3.3,3.3-7.8,7.1-11.5,7.3c-2.4,0.1-4.6-1.2-6.5-3
			c-2.3-2.3-4.2-4.9-5.7-7.8c1.3,0.2,2.5,0.4,3.8,0.5c6.2,0.4,12.4,0.2,18.5-0.9C987.4,478.5,989.4,478.1,991.4,477.6z"/>
		<path class="st8" d="M985.5,478.8v0.6c0.1,1-0.7,1.8-1.7,1.9c0,0,0,0,0,0l-14.9,0.8c-1,0.1-1.8-0.7-1.9-1.7c0,0,0,0,0,0v-0.8
			C973.2,480.1,979.4,479.8,985.5,478.8z"/>
		<path class="st24" d="M987,482.6c-3.3,3.3-7.8,7.1-11.5,7.3c-2.4,0.1-4.6-1.2-6.5-3C971,484.9,975.7,482.7,987,482.6z"/>
		<path class="st25" d="M982.9,488.1c-0.7,1.4-1.8,2.5-3.1,3.4c-0.3,0.2-0.7,0.4-1,0.6l-1.1,0.4c-0.4,0.1-0.8,0.2-1.2,0.2
			s-0.8,0-1.2,0.1c-1.6-0.1-3.1-0.6-4.5-1.5c-0.6-0.4-1.2-0.9-1.8-1.4c-0.5-0.6-1-1.1-1.5-1.8l0.1-0.1l1.7,1.5
			c0.6,0.4,1.2,0.9,1.8,1.2c1.3,0.7,2.7,1.2,4.2,1.2c1.5,0.1,2.9-0.3,4.2-1C980.8,490.3,981.9,489.3,982.9,488.1L982.9,488.1z"/>
		<path class="st62" d="M1037.8,404c0,0,24.5-19.8,42.9-6.2s12.9,45.9,13,51s-0.7,28.5,12.9,29.9c0,0-31.2,28.6-48.1-11.9
			S1037.8,404,1037.8,404z"/>
		<path class="st60" d="M1043.8,409.1c0,0,9.9-2.7,13.8,5.9s0.8,19.8,0.8,19.8L1043.8,409.1z"/>
		<path class="st63" d="M1028.2,488.3c-0.3,1.5-0.5,2.9-0.5,4.4c0,0,0,0.1,0,0.1c0,11.3,9.7,18.5,9.7,18.5
			c-26.2,7.8-22.9-47.8-22.3-55.4c0-0.5,0.1-0.9,0.1-0.9c-27.7-0.9-46.3-40.1-46.3-40.1c-10.2,7.4-11.5,23.4-11.5,23.4
			c-6.7,43.6-1.3,53.6-1.3,53.6c-0.1,19.5,9.3,21.7,9.3,21.7c-27.7,6.9-16.6-82.6-12.1-97s13.3-8.1,13.3-8.1
			c9.8-5.9,31.2-17.5,49-14.6c17.8,2.9,46,22.4,48.3,60.4S1028.2,488.3,1028.2,488.3z"/>
		<path class="st62" d="M1037.4,511.4c-26.2,7.8-22.9-47.8-22.3-55.4l0,0c3.9,1.7,13.3-0.3,13.3-0.3c-2.6,14.3-0.9,35.2-0.8,37.1
			c0,0,0,0.1,0,0.1C1027.7,504.2,1037.4,511.4,1037.4,511.4z"/>
		<path class="st64" d="M969.3,414.9c1.7,3.4,3.6,6.6,5.7,9.7c2.1,3.1,4.3,6.1,6.7,9c4.8,5.7,10.4,10.7,16.7,14.6
			c3.1,1.9,6.5,3.4,10,4.6c1.7,0.6,3.5,1,5.3,1.4l2.7,0.4l0.7,0.1h0.7l1.4,0.1l1.4,0.1c0.5,0,0.9,0,1.4,0c0.9,0,1.8-0.1,2.7-0.1
			c1.8-0.2,3.6-0.4,5.4-0.8c3.6-0.7,7.1-1.7,10.5-3l-0.3,2.9c-1.7-1.3-3.4-2.6-5-4s-3.2-2.8-4.8-4.2s-3.1-3-4.5-4.6
			c-0.7-0.8-1.4-1.6-2-2.5c-0.7-0.9-1.2-1.9-1.5-2.9l0.3-0.1c0.5,0.9,1.1,1.7,1.9,2.4c0.7,0.7,1.5,1.4,2.3,2.1
			c1.6,1.3,3.2,2.6,4.9,3.9s3.4,2.5,5.1,3.7s3.4,2.4,5.2,3.5l2.5,1.7l-2.8,1.2c-3.6,1.6-7.3,2.8-11.1,3.5c-1.9,0.4-3.9,0.6-5.8,0.7
			c-1,0-2,0-2.9,0c-0.5,0-1,0-1.5,0l-1.5-0.1c-1.9-0.2-3.9-0.5-5.8-0.9c-1.9-0.4-3.8-1-5.6-1.7c-3.6-1.3-7.1-3.1-10.3-5.2
			c-6.3-4.3-12-9.6-16.6-15.7c-2.3-3-4.5-6.1-6.4-9.4c-1.9-3.2-3.7-6.6-5.2-10.1L969.3,414.9z"/>
		<path class="st26" d="M983.7,460c0.8-1.5,1.9-2.8,3.1-3.9c1.2-1.1,2.7-2.1,4.2-2.8c1.6-0.7,3.2-1.2,4.9-1.3
			c1.7-0.1,3.4,0.3,4.9,1.1c-1.6,0-3.2,0.2-4.7,0.5c-1.5,0.4-2.9,0.9-4.3,1.5C989,456.6,986.2,458.2,983.7,460z"/>
		<path class="st26" d="M969,460.3c-2.7-1.7-5.4-3.2-8.3-4.5c-1.4-0.6-2.9-1-4.4-1.3c-1.6-0.3-3.1-0.3-4.7-0.3
			c1.5-0.9,3.2-1.3,4.9-1.3c1.7,0,3.4,0.4,5,1c1.5,0.7,3,1.6,4.3,2.6C967,457.6,968.1,458.9,969,460.3z"/>
		<path class="st60" d="M999,451.3c-1.6-0.3-3.2-0.5-4.8-0.5c-5.6,0-7.7,0.5-10.3,1.2s-4.1,1.8-4.9,1.7c-2.8-0.6-5.6-0.6-8.4,0
			c-0.8,0.1-2.3-1-4.9-1.7s-4.7-1.2-10.3-1.2c-3.6,0-9.6,1.6-10.8,1.7s-2.5,0.3-2.5,0.3v2.9c0.7,0.1,1.3,0.6,1.5,1.3
			c0.3,1.2,0.5,6.5,1.8,9.6c1.3,3.6,4.3,6.4,8,7.5c3.8,1.1,7.9,0.5,11.3-1.6c2.4-1.7,4.3-3.9,5.6-6.6c1.1-2.2,1.9-4.6,2.4-7.1
			c-0.1-0.1-0.1-0.2-0.2-0.3l0.2,0.3c1.3-0.7,3-0.7,4.3,0c0.5,2.5,1.3,4.9,2.4,7.1c1.3,2.6,3.2,4.9,5.6,6.6
			c3.4,2.1,7.5,2.7,11.3,1.6c4.1-1.2,6.5-3.8,8-7.5c1.3-3.2,1.5-8.4,1.7-9.6c0.1-0.7,0.6-1.2,1.3-1.3h1.2
			C1005.3,454.4,1002.1,453,999,451.3z M966.4,469.2c-3.4,3.9-8.8,5.2-13.6,3.4c-4.9-1.8-6.2-6.1-6.9-8.9s-1-7.7,1.4-9.7
			s7.3-2,9.8-2.1s10.3,0.7,12.3,4S969.7,465.5,966.4,469.2z M1003.8,463.7c-0.7,2.8-2,7.1-6.9,8.9c-4.8,1.8-10.2,0.4-13.6-3.4
			c-3.3-3.7-5-10-3-13.4s9.7-4.1,12.3-4s7.4,0.1,9.8,2.1S1004.5,460.9,1003.8,463.7z"/>
		<rect x="1169.8" y="819.5" class="st13" width="14" height="27.4"/>
		<rect x="1162.8" y="858.4" class="st26" width="78.2" height="4.2"/>
		<path class="st65" d="M1183.8,838.3c0,0-2.4,12.2-15.4,4.4c0,0-4.2-3.2-5.2,5.6s0,10,0,10h77.4c0,0,5.2-10.8-28.2-8.8
			S1183.8,838.3,1183.8,838.3z"/>
		<path class="st66" d="M1201.5,776.2c-0.9,18.3-3.4,36.5-7.4,54.3l-17-3.7l-14.1-3.1c3.1-14.1,5.2-28.5,6.2-42.9
			c0.8-10.7,0.9-21.4,0.3-32.2c-1-21-4.6-41.7-10.9-61.7c-4.6-14.7-10.8-28.8-18.6-42c-3-5-5-7.7-5.1-7.7l25.2-19.5
			c0.4,0.5,2.2,2.9,4.9,7.1c4.1,6.5,7.9,13.2,11.2,20.1c10.4,21.5,22.5,55.2,25.1,99.3C1202,754.8,1202,765.5,1201.5,776.2z"/>
		<path class="st67" d="M1194.1,830.5l-17-3.7c12.8-60.8,4.6-108.8-4.6-138.5c-10.1-32.5-23.5-50.7-23.7-50.8l16.2-12.8
			C1179.4,647,1218.3,720.6,1194.1,830.5z"/>
		<path class="st3" d="M1176.3,644.8h-36.2c-3-5-5-7.7-5.1-7.7l25.2-19.5c0.4,0.5,2.2,2.9,4.9,7.1
			C1169.2,631.2,1173,637.9,1176.3,644.8z"/>
		<rect x="1124.3" y="819.5" class="st13" width="14" height="27.4"/>
		<rect x="1117.2" y="858.4" class="st36" width="78.2" height="4.2"/>
		<path class="st30" d="M1138.3,838.3c0,0-2.4,12.2-15.4,4.4c0,0-4.2-3.2-5.2,5.6s0,10,0,10h77.4c0,0,5.2-10.8-28.2-8.8
			S1138.3,838.3,1138.3,838.3z"/>
		<path class="st66" d="M1155.9,776.2c-0.9,18.3-3.4,36.5-7.4,54.3l-17-3.7l-14.1-3.1c3.1-14.1,5.2-28.5,6.2-42.9
			c0.8-10.7,0.9-21.4,0.3-32.2c-1-21-4.6-41.7-10.9-61.7c-4.6-14.7-10.8-28.8-18.6-42c-3-5-5-7.7-5.1-7.7l25.2-19.5
			c0.4,0.5,2.2,2.9,4.9,7.1c4.1,6.5,7.9,13.2,11.2,20.1c10.4,21.5,22.5,55.2,25.1,99.3C1156.4,754.8,1156.5,765.5,1155.9,776.2z"/>
		<path class="st67" d="M1148.6,830.5l-17-3.7c12.8-60.8,4.6-108.8-4.6-138.5c-10.1-32.5-23.5-50.7-23.7-50.8l16.2-12.8
			C1133.9,647,1172.8,720.6,1148.6,830.5z"/>
		<path class="st3" d="M1130.7,644.8h-36.2c-3-5-5-7.7-5.1-7.7l25.2-19.5c0.4,0.5,2.2,2.9,4.9,7.1
			C1123.7,631.2,1127.4,637.9,1130.7,644.8z"/>
		<path class="st13" d="M1186.4,488l4.6,21.5c0.4-0.1,3.8-0.8,9.3-2.4c1.1-0.3,2.3-0.7,3.6-1.1c11.2-3.5,22.1-7.8,32.6-12.9
			c1.1-0.5,2.2-1.1,3.3-1.6l7.8-4.1c2.7-1.4,5.3-3,8-4.6c42.9-25.7,70.3-61.8,79.5-104.5l-21.5-4.9c-10.1,47.7-44.7,76.9-75.2,93.8
			c-3.9,2.1-7.7,4.1-11.3,5.9c-4.8,2.3-9.4,4.3-13.7,6c-3.4,1.4-6.6,2.6-9.5,3.6C1198.2,484.8,1192.3,486.6,1186.4,488z"/>
		<path class="st29" d="M1203.9,482.7V506c11.2-3.5,22.1-7.8,32.6-12.9l-9.4-20c-4.8,2.3-9.4,4.3-13.7,6
			C1210,480.5,1206.8,481.7,1203.9,482.7z"/>
		<path class="st68" d="M1231.6,506l-17.3-42.6l-37.3,19.7c-11.7,6.2-17.8,17.3-14.2,26l0,0c3.5,8.7,15.6,12.4,28.3,8.7L1231.6,506z
			"/>
		<path class="st13" d="M1312,378.2l20.5,8.2l6-15c3.3-8.4-0.7-17.8-9.1-21.2l-15-6l-8.2,20.5C1304.1,370,1306.7,376,1312,378.2
			C1312,378.1,1312,378.1,1312,378.2L1312,378.2z"/>
		<path class="st21" d="M1310.8,377.6l7.4-18.5l-8.3-3.3l-3.6,9C1304.3,369.5,1306.3,375,1310.8,377.6z"/>
		<path class="st13" d="M1299.7,372.2l4.4-11c0.3-0.7,1.1-1.1,1.8-0.8l0,0l7.2,2.9c0.7,0.3,1.1,1.1,0.8,1.8l0,0l-4.4,11
			c-0.4,1-1.5,1.4-2.5,1.1c0,0,0,0,0,0l-6.3-2.5C1299.8,374.3,1299.3,373.2,1299.7,372.2z"/>
		<polygon class="st11" points="1125,476.2 1169,474.9 1169,486.9 1149.7,497.8 1128.9,495.8 1128.5,489.6 		"/>
		<path class="st69" d="M1177.2,482.7c3.2,0,5.7,2.5,5.7,5.7c0,0.1,0,0.2,0,0.3l-1,18.1l-7,132h-86
			c-15.3-84.2,22.4-156.1,22.4-156.1L1177.2,482.7z"/>
		<path class="st21" d="M1165.2,482.7c-9.2,5.9-16.4,14.4-20.7,24.5c-0.5-2-9.8-15.6-16-24.5H1165.2z"/>
		<path class="st12" d="M1132,618.9l-10.2-6.1c-0.4-0.2-0.5-0.7-0.3-1.1l1.3-2.2c1.3-2.1,4-2.8,6.1-1.5l7.1,4.2
			c0.9,0.5,1.2,1.7,0.7,2.6v0l-2,3.4C1134,619.2,1132.8,619.5,1132,618.9L1132,618.9L1132,618.9z"/>
		<path class="st13" d="M1100.9,518.7l-17.3-10.3l-10.8,18.1l-29.5,49.6c-3.2,5.4-1.4,12.3,3.9,15.5l61,36.3c-0.8,3.6,0.8,7.4,4,9.3
			l6.7,4c5,3,11.5,1.3,14.5-3.7l3-5c3-5,1.3-11.5-3.7-14.5l-10.3-6.2c-1.3-0.7-2.8-0.8-4.1-0.2l-44-26.2c-5.4-3.2-7.1-10.1-3.9-15.5
			l19.7-33L1100.9,518.7z"/>
		<polygon class="st29" points="1100.9,518.7 1083.6,508.3 1072.8,526.4 1090.1,536.8 		"/>
		<path class="st68" d="M1069.5,516.8l32.7,20.1l15.3-31.7c4.8-9.9,3.4-20.4-3.3-24.5l0,0c-6.7-4.1-16.7-0.7-23.3,8.1L1069.5,516.8z
			"/>
		<path class="st20" d="M1178,420.5c0,1.7,1.4,3.1,3.1,3.1c0.4,0,0.8-0.1,1.2-0.2c5-1.8,7.6-7.3,5.7-12.3c-1-2.6-3-4.7-5.6-5.7
			c-1.6-0.7-3.5,0-4.2,1.7c-0.2,0.4-0.3,0.9-0.3,1.3V420.5z"/>
		<path class="st13" d="M1181.2,393l-0.1,12l-0.2,35.7c-0.1,11.7-9.6,21.1-21.2,21.1c-3,0-5.5,2.5-5.5,5.5V499h-18v-30
			c0-3.5-2.9-6.4-6.4-6.4h-2c-11.1,0-20.2-9-20.2-20.1c0,0,0,0,0,0v-78.9h63.2C1174.2,363.6,1181.4,341.4,1181.2,393z"/>
		<ellipse class="st21" cx="1169.5" cy="412.6" rx="5.6" ry="5.5"/>
		<ellipse class="st21" cx="1139.3" cy="412.6" rx="5.6" ry="5.5"/>
		<path class="st21" d="M1166.1,460.9c-2.1,0.7-4.3,1-6.5,1c-3,0-5.5,2.5-5.5,5.5v31.7h-18v-30c0-3.5-2.9-6.4-6.4-6.4h-2
			c-11.1,0-20.2-9-20.2-20.1c0,0,0,0,0,0v-79.2h17.2v79.1c0,10.2,8.3,18.5,18.4,18.5c0,0,0,0,0,0H1166.1z"/>
		<path class="st22" d="M1156.1,417.3c0.1-0.9,0.9-1.5,1.8-1.4c0.6,0.1,1.1,0.5,1.3,1c1.1,3.1,2.6,6.7,4,8.4c2.7,3.3,0,6.8-4.1,6
			C1156.1,430.7,1155.3,423.2,1156.1,417.3z"/>
		<path class="st26" d="M1129.9,399.9c0.7-1.9,1.9-3.6,3.5-4.9c1.7-1.4,3.7-2.3,5.8-2.5c2.3-0.3,4.6,0.5,6.4,2
			c1.6,1.4,2.6,3.3,2.9,5.4c-1.5-1.1-3-2-4.6-2.8c-1.3-0.6-2.8-0.8-4.3-0.6c-1.6,0.2-3.1,0.6-4.6,1.2
			C1133.5,398.4,1131.8,399.2,1129.9,399.9z"/>
		<path class="st26" d="M1163.1,400.5c0.3-1.7,1.1-3.4,2.3-4.6c1.3-1.4,3.1-2.4,5-2.6c2.1-0.2,4.1,0.6,5.5,2.2c1.2,1.3,2,3,2.1,4.8
			c-1.5-0.9-2.8-1.8-4-2.3c-1-0.5-2.1-0.7-3.2-0.7c-1.2,0.2-2.4,0.5-3.5,1.1C1166,398.9,1164.7,399.7,1163.1,400.5z"/>
		<circle class="st11" cx="1139.3" cy="411" r="4"/>
		<circle class="st11" cx="1169.5" cy="411" r="4"/>
		<path class="st70" d="M1126.3,381.8c0,0,92.3,32.6,86.3-19.1c0,0-2.7,6.7-8.3,5.9s-49.6-39.3-79.6-15c0,0-21-5.7-21.2,16.8
			s4,49.3,4,49.3S1130.3,420.8,1126.3,381.8z"/>
		<path class="st23" d="M1141.7,433.5c1.5,1.7,3.1,3.2,4.7,4.7l0,0c3.4,3.1,8.2,6.6,11.8,6.6c2.4,0,4.6-1.5,6.4-3.3
			c2.2-2.4,3.9-5.1,5.3-8c-1.2,0.3-2.5,0.5-3.8,0.7c-6.1,0.8-12.3,0.8-18.5,0.1C1145.8,434.1,1143.8,433.9,1141.7,433.5z"/>
		<path class="st8" d="M1147.7,434.3v0.7c0,1,0.8,1.8,1.8,1.8l0,0h14.9c1,0,1.8-0.8,1.8-1.8l0,0v-0.8
			C1160,435,1153.8,435,1147.7,434.3z"/>
		<path class="st24" d="M1146.4,438.3c3.4,3.1,8.2,6.6,11.8,6.6c2.4,0,4.6-1.5,6.4-3.3C1162.5,439.7,1157.7,437.8,1146.4,438.3z"/>
		<path class="st25" d="M1150.8,443.6c0.8,1.3,1.9,2.4,3.3,3.2c0.3,0.2,0.7,0.4,1.1,0.5l1.2,0.4c0.4,0.1,0.8,0.1,1.2,0.2
			s0.8,0,1.2,0c1.6-0.2,3.1-0.8,4.4-1.7c0.6-0.5,1.2-1,1.7-1.5c0.5-0.6,0.9-1.2,1.3-1.8l-0.1,0l-1.6,1.6c-0.6,0.4-1.2,0.9-1.8,1.3
			c-1.2,0.8-2.7,1.3-4.1,1.5c-1.5,0.1-3-0.1-4.3-0.8C1153,445.6,1151.8,444.7,1150.8,443.6L1150.8,443.6z"/>
		<polygon class="st11" points="1183.4,400.7 1183.4,400.7 1183.4,400.7 		"/>
		<path class="st11" d="M1109.1,410.5h13.9l0,0c0,0,1.9-0.1,2.6,0.6c0.4,0.5,0.8,2.6,1.4,4.9c0.2,0.8,0.5,1.6,0.8,2.3
			c0.3,0.7,0.7,1.4,1.1,2l0,0c4.3,6.6,13.2,8.4,19.8,4.1c2.3-1.5,4.1-3.6,5.2-6.1l0,0v-0.1c1-1.7,2.1-6.5,2.5-7.3
			c0.7-0.9,2-1.1,2.9-0.4c0.2,0.1,0.3,0.3,0.4,0.4c0.5,0.8,1.5,5.5,2.5,7.3v0.1l0,0c3.2,7.2,11.7,10.4,18.9,7.2
			c2.5-1.1,4.6-2.9,6.1-5.2l0,0c0.4-0.6,0.8-1.3,1.1-2c0.3-0.8,0.6-1.5,0.8-2.3c0.7-2.3,1.1-4.5,1.5-4.9c0.7-0.8,2.7-0.6,2.7-0.6
			v-3.7c0,0-3.3-0.1-4.9-1.9c-1.3-1.3-2.7-2.5-4.2-3.6c-0.3-0.2-0.6-0.5-0.9-0.7l0,0c-2.4-1.6-5.2-2.4-8-2.4
			c-3.8,0-7.5,1.5-10.2,4.2c-1.2,1.2-2.3,2.5-3.4,3.7c-1.4,1.6-2.2,0.8-3.7,0.8s-2.2,0.8-3.7-0.8c-1.1-1.3-2.2-2.5-3.4-3.7
			c-4.8-4.8-12.4-5.6-18.1-1.8l0,0l0,0c-0.3,0.2-0.6,0.5-0.9,0.7c-1.5,1.1-2.9,2.3-4.2,3.6c-1.5,1.8-4.8,1.9-4.8,1.9h-13.1
			c-0.4,0-0.7,0.2-0.8,0.6l-0.7,1.8c-0.2,0.5,0,1,0.5,1.2C1108.9,410.5,1109,410.6,1109.1,410.5z M1163,413
			c-0.2-6.8,5.1-12.5,11.9-12.8c6.8-0.2,12.5,5.1,12.8,11.9c0.2,6.8-5.1,12.5-11.9,12.8c-0.3,0-0.5,0-0.8,0
			C1168.5,424.7,1163.2,419.5,1163,413z M1128.5,413c-0.2-6.8,5.1-12.5,11.9-12.7c6.8-0.2,12.5,5.1,12.7,11.9
			c0.2,6.8-5.1,12.5-11.9,12.7c-0.3,0-0.5,0-0.8,0C1133.9,424.7,1128.7,419.5,1128.5,413L1128.5,413z"/>
		<path class="st13" d="M1111.3,408.3c0-1.7-1.4-3.1-3.1-3.1c-0.4,0-0.8,0.1-1.2,0.2c-5,1.8-7.6,7.3-5.7,12.3c1,2.6,3,4.7,5.6,5.7
			c1.6,0.7,3.5,0,4.2-1.7c0.2-0.4,0.3-0.9,0.3-1.3V408.3z"/>
		<path class="st68" d="M1123,483.9l1.7,21.5c0.1,0.7,0.7,1.3,1.4,1.2c0.4,0,0.8-0.3,1-0.6c9.1-14.5,16.2-1.2,17.4,1.2
			c-1.2-3.1-9.9-25.1-19.5-31L1123,483.9z"/>
		<path class="st68" d="M1144.7,507.6c0.2-0.7,5.1-15.9,16.9-1.8c0.9,1.1,2.6,1.2,3.7,0.3c0.4-0.3,0.7-0.8,0.8-1.3l5.9-20.6
			c-0.8-3.2-1.8-6.3-3-9.3C1169,474.9,1147.7,492.2,1144.7,507.6z"/>
		<text transform="matrix(1 0 0 1 420.61 170.65)" class="st0 st71 st72 st73">BU</text>
		<text transform="matrix(1 0 0 1 529.54 170.65)" class="st8 st71 st72 st73">vR</text>
		<text transform="matrix(1 0 0 1 579.81 170.65)" class="st8 st71 st72 st73">GER </text>
		<text transform="matrix(1 0 0 1 759.24 170.65)" class="st8 st71 st72 st74">P</text>
		<text transform="matrix(1 0 0 1 802.21 170.65)" class="st8 st71 st72 st73">A</text>
		<text transform="matrix(1 0 0 1 858.05 170.65)" class="st8 st71 st72 st75">R</text>
		<text transform="matrix(1 0 0 1 908.79 170.65)" class="st8 st71 st72 st76">T</text>
		<text transform="matrix(1 0 0 1 957.8 170.65)" class="st8 st71 st72 st73">Y!</text>
		<text transform="matrix(1 0 0 1 490.44 215.53)" class="st8 st71 st77 st74">P</text>
		<text transform="matrix(1 0 0 1 503.1 215.53)" class="st8 st71 st77 st78">a</text>
		<text transform="matrix(1 0 0 1 515.26 215.53)" class="st8 st71 st77 st78">r</text>
		<text transform="matrix(1 0 0 1 524.69 215.53)" class="st8 st71 st77 st78">t</text>
		<text transform="matrix(1 0 0 1 533.88 215.53)" class="st8 st71 st77 st78">y with bu</text>
		<text transform="matrix(1 0 0 1 633.56 215.53)" class="st8 st71 st77 st74">r</text>
		<text transform="matrix(1 0 0 1 642.32 215.53)" class="st8 st71 st77 st78">gers will cheer up ev</text>
		<text transform="matrix(1 0 0 1 851.8 215.53)" class="st8 st71 st77 st74">v</text>
		<text transform="matrix(1 0 0 1 863.73 215.53)" class="st8 st71 st77 st78">e</text>
		<text transform="matrix(1 0 0 1 876.29 215.53)" class="st8 st71 st77 st78">r</text>
		<text transform="matrix(1 0 0 1 885.73 215.53)" class="st8 st71 st77 st74">y</text>
		<text transform="matrix(1 0 0 1 897.45 215.53)" class="st8 st71 st77 st78">one!</text>
	</g>
</g>
<rect x="284.1" y="49.1" class="st0" width="866.7" height="181.3"/>
<g>
	<path class="st79" d="M345.7,179h28.5c3.6,0,7,0.4,10,1.3c3,0.8,5.6,2.1,7.8,3.7c2.1,1.6,3.8,3.7,5,6.1c1.2,2.4,1.8,5.3,1.8,8.6
		c0,2.3-0.3,4.3-0.9,6c-0.6,1.6-1.2,3-1.9,4.1c-0.8,1.3-1.7,2.4-2.7,3.3c1.6,1,3.1,2.3,4.4,3.9c1.1,1.4,2.1,3.1,3,5.2
		c0.9,2.1,1.4,4.7,1.4,7.8c0,3.5-0.6,6.7-1.9,9.5c-1.2,2.8-3,5.3-5.3,7.3c-2.3,2-5.1,3.5-8.4,4.6c-3.3,1.1-7,1.6-11.1,1.6h-29.7V179
		z M372.3,243.2c6.4,0,11.1-1.4,14.2-4.2c3.1-2.8,4.6-6.4,4.6-11c0-3-0.6-5.4-1.9-7.2c-1.3-1.8-2.6-3.2-4.1-4.2
		c-1.8-1.2-3.8-2-6-2.4c1.7-0.5,3.3-1.3,4.7-2.4c1.2-0.9,2.3-2.2,3.3-3.9s1.5-3.7,1.5-6.3c0-4.6-1.5-8-4.4-10.4
		c-2.9-2.3-6.9-3.5-11.9-3.5h-15.7v55.4H372.3z M359.4,212.9v-22.5h12.9c4.7,0,8.1,1,10.2,3.1c2.1,2.1,3.1,4.8,3.1,8.1
		c0,3.4-1,6.1-3.1,8.1s-5.5,3.1-10.2,3.1H359.4z M359.4,240.6v-25h12.8c2.3,0,4.4,0.2,6.3,0.7c1.9,0.5,3.6,1.2,5.1,2.2
		c1.5,1,2.6,2.3,3.4,3.9c0.8,1.6,1.3,3.5,1.3,5.7c0,4.4-1.5,7.6-4.4,9.6s-6.8,3-11.6,3H359.4z M376.3,201.2c0-3.4-1.8-5-5.5-5h-2.6
		v10.1h2.6C374.4,206.2,376.3,204.6,376.3,201.2z M370.8,234.8c5.5,0,8.3-2.1,8.3-6.3c0-4.2-2.8-6.3-8.3-6.3h-2.6v12.7H370.8z"/>
	<path class="st79" d="M436.8,253.8c-4.6,0-8.7-0.6-12.5-1.7c-3.7-1.2-6.9-2.9-9.5-5.2c-2.6-2.3-4.6-5.3-6.1-8.9
		c-1.4-3.6-2.1-7.8-2.1-12.6V179h23.3v45.3c0,2.6,0.5,4.5,1.6,5.8c1.1,1.3,2.8,2,5.3,2c2.5,0,4.2-0.7,5.3-2c1.1-1.3,1.6-3.3,1.6-5.8
		V179h23.4v46.3c0,4.8-0.7,9-2.1,12.6c-1.4,3.6-3.5,6.5-6.1,8.9c-2.7,2.3-5.8,4.1-9.6,5.2C445.5,253.2,441.4,253.8,436.8,253.8z
		 M436.8,240.7c-10.9,0-16.4-5.4-16.4-16.1v-36.8h-2.8v36.8c0,6.1,1.7,10.8,5,14c3.3,3.2,8.1,4.9,14.3,4.9c6.2,0,11-1.6,14.3-4.9
		c3.3-3.2,5-7.9,5-14v-36.8h-3v36.8C453.2,235.3,447.7,240.7,436.8,240.7z"/>
	<path class="st79" d="M474.4,179h25.1c4.7,0,9,0.6,12.9,1.9c4,1.2,7.4,3.1,10.3,5.5c2.9,2.4,5.2,5.4,6.8,8.9
		c1.6,3.5,2.5,7.6,2.5,12.2c0,3.6-0.5,6.7-1.5,9.3c-1,2.6-2.1,4.7-3.4,6.3c-1.5,1.9-3.1,3.5-4.9,4.8l13.7,24h-27.3l-10.9-18.5v18.5
		h-23.3V179z M497.1,226.6c2.8,0,5.6-0.3,8.3-0.9l10.4,17.5h3.4l-10.9-18.4c3.9-1.4,7.1-3.5,9.4-6.4c2.3-2.9,3.5-6.6,3.5-11.2
		c0-3.2-0.6-6-1.9-8.4c-1.2-2.4-2.9-4.4-5.1-6.1c-2.1-1.6-4.7-2.9-7.6-3.7c-2.9-0.8-6.1-1.3-9.5-1.3h-11.8v55.4h2.8v-16.6H497.1z
		 M488.1,223.9v-33.5h9c6.6,0,11.8,1.5,15.6,4.4c3.8,2.9,5.6,7.1,5.6,12.5c0,5.4-1.9,9.5-5.6,12.4c-3.8,2.9-8.9,4.3-15.6,4.3H488.1z
		 M497.7,214.9h1.2c2.8,0,5.1-0.6,7-1.9c1.9-1.2,2.9-3.3,2.9-6.2c0-2.9-1-5-2.9-6.2c-1.9-1.2-4.3-1.9-7-1.9h-1.2V214.9z"/>
	<path class="st79" d="M584,203.8c-1.3-1.2-3-2.1-4.9-2.7c-2-0.6-3.9-0.9-5.8-0.9c-2.1,0-4,0.4-5.8,1.1c-1.7,0.8-3.3,1.8-4.5,3.2
		c-1.3,1.3-2.3,3-3,4.9c-0.7,1.9-1.1,3.9-1.1,6.1c0,2.2,0.4,4.2,1.2,6.1c0.8,1.9,1.9,3.5,3.3,4.9c1.4,1.3,3,2.4,4.9,3.2
		c1.9,0.8,3.8,1.1,6,1.1c2.5,0,4.7-0.5,6.8-1.6c2-1.1,3.8-2.5,5.2-4.3h-6.6v-15.3h28.1v24.3c-1.7,3-3.7,5.7-6,8.1
		c-2.3,2.4-4.9,4.5-7.8,6.3c-2.9,1.7-6,3.1-9.3,4c-3.4,0.9-6.8,1.4-10.4,1.4c-5.2,0-10.2-1-14.9-3c-4.7-2-8.7-4.7-12.2-8.1
		c-3.5-3.4-6.2-7.5-8.2-12.1c-2-4.7-3-9.7-3-15.1c0-5.2,0.9-10.2,2.8-14.9c1.9-4.7,4.5-8.7,7.8-12.2c3.3-3.5,7.2-6.2,11.8-8.2
		c4.6-2,9.5-3,14.7-3c4.1,0,7.6,0.4,10.6,1.2c3,0.8,5.5,1.7,7.5,2.7c2.4,1.2,4.4,2.4,6,3.8L584,203.8z M585.1,189.7
		c-0.9-0.4-2-0.8-3.2-1.1c-1-0.3-2.2-0.5-3.6-0.8c-1.4-0.2-2.9-0.3-4.6-0.3c-3.9,0-7.5,0.7-10.8,2.1c-3.4,1.4-6.3,3.3-8.7,5.7
		c-2.5,2.4-4.4,5.4-5.8,8.8c-1.4,3.4-2.1,7.2-2.1,11.4c0,4.2,0.7,7.9,2.2,11.4c1.5,3.4,3.5,6.4,6,8.8c2.5,2.4,5.5,4.4,8.9,5.7
		c3.4,1.4,7,2.1,10.9,2.1c5,0,9.6-1.2,13.7-3.6c4.1-2.4,7.4-5.5,9.9-9.5v-14.3h-11.6v2.6h8.7v10.9c-2.3,3.4-5.2,6-8.8,8s-7.6,3-12,3
		c-3.5,0-6.8-0.6-9.8-1.8c-3-1.2-5.7-2.9-8-5.1c-2.3-2.2-4.1-4.9-5.4-8c-1.3-3.1-2-6.5-2-10.2c0-3.7,0.6-7.1,1.9-10.2
		c1.3-3.1,3-5.8,5.2-8c2.2-2.2,4.8-3.9,7.8-5.1c3-1.2,6.2-1.8,9.7-1.8c1.3,0,2.5,0.1,3.7,0.3c1.2,0.2,2.2,0.4,3.1,0.7
		c1,0.3,2,0.6,2.8,0.9L585.1,189.7z"/>
	<path class="st79" d="M613.7,179h42.9v19.1H637v8.1h19.3v18.1H637v8.4h20.4v19.1h-43.7V179z M649.3,243.2v-2.6h-21.9v-23.9h20.8
		V214h-20.8v-23.6h21.9v-2.6h-24.7v55.4H649.3z"/>
	<path class="st79" d="M664,179h25.1c4.7,0,9,0.6,12.9,1.9c4,1.2,7.4,3.1,10.3,5.5c2.9,2.4,5.2,5.4,6.8,8.9
		c1.6,3.5,2.5,7.6,2.5,12.2c0,3.6-0.5,6.7-1.5,9.3c-1,2.6-2.1,4.7-3.4,6.3c-1.5,1.9-3.1,3.5-4.9,4.8l13.7,24h-27.3l-10.9-18.5v18.5
		H664V179z M686.7,226.6c2.8,0,5.6-0.3,8.3-0.9l10.4,17.5h3.4l-10.9-18.4c3.9-1.4,7.1-3.5,9.4-6.4c2.3-2.9,3.5-6.6,3.5-11.2
		c0-3.2-0.6-6-1.9-8.4c-1.2-2.4-2.9-4.4-5.1-6.1c-2.1-1.6-4.7-2.9-7.6-3.7c-2.9-0.8-6.1-1.3-9.5-1.3h-11.8v55.4h2.8v-16.6H686.7z
		 M677.7,223.9v-33.5h9c6.6,0,11.8,1.5,15.6,4.4c3.8,2.9,5.6,7.1,5.6,12.5c0,5.4-1.9,9.5-5.6,12.4c-3.8,2.9-8.9,4.3-15.6,4.3H677.7z
		 M687.2,214.9h1.2c2.8,0,5.1-0.6,7-1.9c1.9-1.2,2.9-3.3,2.9-6.2c0-2.9-1-5-2.9-6.2c-1.9-1.2-4.3-1.9-7-1.9h-1.2V214.9z"/>
	<path class="st79" d="M806.2,206.8c0,5-0.9,9.3-2.6,12.8c-1.7,3.5-4.1,6.4-7.2,8.6c-3,2.2-6.6,3.8-10.6,4.8c-4,1-8.4,1.5-13.1,1.5
		v17.4h-23.3V179h23.3c4.7,0,9,0.5,13.1,1.5c4,1,7.6,2.6,10.6,4.8c3,2.2,5.4,5,7.2,8.6C805.3,197.5,806.2,201.8,806.2,206.8z
		 M795.6,206.8c0-3.3-0.6-6.1-1.7-8.5c-1.1-2.4-2.7-4.4-4.8-5.9c-2-1.5-4.5-2.7-7.3-3.4c-2.8-0.8-5.8-1.1-9.1-1.1h-12.3v55.4h2.8
		v-17.4h9.5c3.3,0,6.3-0.4,9.1-1.1c2.8-0.8,5.2-1.9,7.3-3.4c2-1.5,3.6-3.5,4.8-5.9C795.1,212.9,795.6,210.1,795.6,206.8z
		 M792.6,206.8c0,3.1-0.5,5.8-1.6,7.9c-1.1,2.1-2.6,3.8-4.4,5c-1.8,1.2-3.9,2.1-6.3,2.7c-2.4,0.5-4.9,0.8-7.5,0.8h-9.5v-32.8h9.5
		c2.6,0,5.1,0.3,7.5,0.8c2.4,0.5,4.5,1.4,6.3,2.7c1.8,1.2,3.3,2.9,4.4,5C792,201,792.6,203.7,792.6,206.8z M772.8,214.9h1
		c3.1,0,5.3-0.7,6.6-2.1c1.3-1.4,2-3.4,2-6c0-2.5-0.7-4.5-2-6c-1.3-1.4-3.6-2.1-6.6-2.1h-1V214.9z"/>
	<path class="st79" d="M824.6,179h17.5l27.6,72.9h-22.9l-2.4-6.6h-22.1l-2.4,6.6h-22.9L824.6,179z M813.2,243.2l2.1-5.5h36.1
		l2.1,5.5h3.1l-21.1-55.4h-4.2l-21.1,55.4H813.2z M833.3,190.4l17,44.7h-34.1L833.3,190.4z M838.2,229.3l-4.9-12.8l-4.9,12.8H838.2z
		"/>
	<path class="st79" d="M871.3,179h25.1c4.7,0,9,0.6,12.9,1.9c4,1.2,7.4,3.1,10.3,5.5c2.9,2.4,5.2,5.4,6.8,8.9
		c1.6,3.5,2.5,7.6,2.5,12.2c0,3.6-0.5,6.7-1.5,9.3c-1,2.6-2.1,4.7-3.4,6.3c-1.5,1.9-3.1,3.5-4.9,4.8l13.7,24h-27.3l-10.9-18.5v18.5
		h-23.3V179z M894.1,226.6c2.8,0,5.6-0.3,8.3-0.9l10.4,17.5h3.4l-10.9-18.4c3.9-1.4,7.1-3.5,9.4-6.4c2.3-2.9,3.5-6.6,3.5-11.2
		c0-3.2-0.6-6-1.9-8.4c-1.2-2.4-2.9-4.4-5.1-6.1c-2.1-1.6-4.7-2.9-7.6-3.7c-2.9-0.8-6.1-1.3-9.5-1.3h-11.8v55.4h2.8v-16.6H894.1z
		 M885.1,223.9v-33.5h9c6.6,0,11.8,1.5,15.6,4.4c3.8,2.9,5.6,7.1,5.6,12.5c0,5.4-1.9,9.5-5.6,12.4c-3.8,2.9-8.9,4.3-15.6,4.3H885.1z
		 M894.6,214.9h1.2c2.8,0,5.1-0.6,7-1.9c1.9-1.2,2.9-3.3,2.9-6.2c0-2.9-1-5-2.9-6.2c-1.9-1.2-4.3-1.9-7-1.9h-1.2V214.9z"/>
	<path class="st79" d="M943.6,198.2h-13.4V179H981v19.1h-13.4v53.8h-24V198.2z M957,243.2v-52.8h15.6v-2.6h-34.1v2.6h15.6v52.8H957z
		"/>
	<path class="st79" d="M1005.3,220.6L982.7,179h25.9l8.4,15.4l8.3-15.4h25.9l-22.6,41.5v31.4h-23.3V220.6z M1018.4,243.2v-26.1
		l16-29.3h-3.4l-14,25.9l-14.1-25.9h-3.3l15.8,29.3v26.1H1018.4z"/>
</g>
</svg>
