<?xml version="1.0" encoding="utf-8"?>
<!-- Generator: Adobe Illustrator 21.0.0, SVG Export Plug-In . SVG Version: 6.00 Build 0)  -->
<svg version="1.1" id="Layer_1" xmlns="http://www.w3.org/2000/svg" xmlns:xlink="http://www.w3.org/1999/xlink" x="0px" y="0px"
	 viewBox="0 0 500 500" style="enable-background:new 0 0 500 500;" xml:space="preserve">
<style type="text/css">
	.st0{fill:#FFD5A8;}
	.st1{fill:#FD8469;}
	.st2{fill:#324A5E;}
	.st3{fill:#FFFFFF;}
	.st4{fill:#FFD05B;}
	.st5{fill:#4CDBC4;}
	.st6{fill:#2B3B4E;}
	.st7{fill-rule:evenodd;clip-rule:evenodd;fill:#7C404A;}
	.st8{fill-rule:evenodd;clip-rule:evenodd;fill:#EA545F;}
	.st9{fill-rule:evenodd;clip-rule:evenodd;fill:#9B3B42;}
	.st10{fill-rule:evenodd;clip-rule:evenodd;fill:#F8B3A0;}
	.st11{fill-rule:evenodd;clip-rule:evenodd;fill:#E2A28E;}
	.st12{fill-rule:evenodd;clip-rule:evenodd;fill:#4D2616;}
	.st13{fill-rule:evenodd;clip-rule:evenodd;fill:#235176;}
	.st14{fill-rule:evenodd;clip-rule:evenodd;fill:#696B6E;}
	.st15{fill-rule:evenodd;clip-rule:evenodd;fill:#544554;}
	.st16{fill-rule:evenodd;clip-rule:evenodd;fill:#909598;}
	.st17{fill-rule:evenodd;clip-rule:evenodd;fill:#979799;}
	.st18{fill-rule:evenodd;clip-rule:evenodd;fill:#FFFFFF;}
	.st19{fill-rule:evenodd;clip-rule:evenodd;fill:#EA5967;}
	.st20{fill-rule:evenodd;clip-rule:evenodd;fill:#FFC320;}
	.st21{fill-rule:evenodd;clip-rule:evenodd;fill:#92755A;}
	.st22{fill-rule:evenodd;clip-rule:evenodd;fill:#241104;}
	.st23{fill-rule:evenodd;clip-rule:evenodd;fill:#6D262C;}
	.st24{fill-rule:evenodd;clip-rule:evenodd;fill:#C5C8C9;}
	.st25{fill-rule:evenodd;clip-rule:evenodd;fill:#1A1A1A;}
</style>
<title>delivery</title>
<g id="BACKGROUND">
	<rect class="st0" width="500" height="500"/>
</g>
<g id="DESIGNED_BY_FREEPIK">
	<ellipse transform="matrix(0.4965 -0.868 0.868 0.4965 -28.7095 129.3637)" class="st1" cx="97.2" cy="89.4" rx="70.1" ry="70.2"/>
	<ellipse transform="matrix(0.4965 -0.868 0.868 0.4965 -28.7095 129.3637)" class="st2" cx="97.2" cy="89.4" rx="56.4" ry="56.4"/>
	<path class="st3" d="M134.7,114.9c-1.8-0.8-2.5-2.9-1.7-4.6s2.9-2.5,4.6-1.7c0.2,0.1,0.4,0.2,0.6,0.3l3.5,2
		c10.7-22.2,3.4-48.8-17-62.5l-2,3.5c-1.1,1.6-3.3,1.9-4.9,0.8c-1.3-1-1.8-2.8-1.1-4.3l2-3.5c-22.2-10.7-48.9-3.4-62.6,17l3.5,2
		c1.8,0.8,2.5,2.9,1.7,4.6s-2.9,2.5-4.6,1.7c-0.2-0.1-0.4-0.2-0.6-0.3l-3.5-2c-10.7,22.2-3.4,48.8,17,62.6l2-3.5
		c0.8-1.8,2.9-2.5,4.6-1.7c1.8,0.8,2.5,2.9,1.7,4.6c-0.1,0.2-0.2,0.4-0.3,0.6l-2,3.5c22.2,10.7,48.8,3.4,62.6-17L134.7,114.9z"/>
	<path class="st4" d="M81.6,67.8c0.7-0.3,1.3-0.8,1.7-1.4c0.3-0.5,0.4-1.2,0.3-1.8c-0.2-0.6-0.6-1.1-1.1-1.4
		c-1.1-0.6-2.6-0.4-4.5,0.6L75.8,60c1.3-0.7,2.8-1.2,4.4-1.3c1.5-0.1,3,0.3,4.3,1.2c1.5,0.8,2.6,2.1,3.2,3.7
		c0.6,1.6,0.4,3.5-0.5,4.9c-0.5,0.9-1.3,1.7-2.2,2.2c-1.4,0.7-2.9,1.3-4.4,1.7l-5,1.4l6.9,4l-2,3.5l-12.4-7.1l1.6-2.9l8.2-2.3
		C79.1,68.7,80.4,68.3,81.6,67.8z"/>
	<path class="st4" d="M94,79l1.8-3.1l3.8,2.2l-1.8,3.1l2,1.1l-1.9,3.4l-2-1.1l-2.4,4.2l-3.8-2.2l2.4-4.2l-7.1-4l1.7-3l12.2-6.8
		l4.3,2.4l-11.7,6.5L94,79L94,79z"/>
	<path class="st1" d="M120.2,77.3l3.6,2l-23.7,17.1l-3.5-2L120.2,77.3z"/>
	<path class="st5" d="M121.9,89.2l3.2-5.6l12.7,7.3l-1.7,3l-15.4,10.5l-4.3-2.4l14.9-10.3l-4.4-2.5l-1.3,2.3L121.9,89.2z"/>
	<path class="st6" d="M62.7,84c-0.3,0-0.6,0.2-0.8,0.5c-0.2,0.3-0.2,0.6,0,0.9c0.4,0.6,0.9,1.2,1.5,1.7c0.7,0.6,1.3,1.5,1.6,2.4
		c0.2,0.9,0.1,1.8-0.4,2.6c-0.5,0.9-1.3,1.5-2.3,1.7c-1.1,0.2-2.3-0.1-3.2-0.7c-1.6-1-2.8-2.5-3.4-4.3l2.3-0.9
		c0.3,1.3,1.1,2.4,2.2,3.2c0.3,0.2,0.7,0.3,1.1,0.3c0.3,0,0.6-0.2,0.8-0.5c0.2-0.3,0.2-0.7,0-0.9c-0.3-0.5-0.7-1-1.2-1.4
		c-0.8-0.7-1.5-1.6-2-2.6c-0.3-0.9-0.1-1.9,0.4-2.6c0.4-0.9,1.3-1.5,2.3-1.7c1.1-0.1,2.2,0.1,3.1,0.7c1.4,0.8,2.5,2.1,3.1,3.6
		l-2.1,1c-0.4-1.1-1.2-2-2.2-2.6C63.4,84.1,63,84,62.7,84z"/>
	<path class="st6" d="M78.1,90.2l-1.2,2l-5.1-2.9l-1.2,2.1l4.6,2.6l-1.1,2l-4.5-2.7l-1.2,2.1l5.3,3l-1.2,2l-7.6-4.3l5.9-10.3
		L78.1,90.2z"/>
	<path class="st6" d="M86.6,99.5c-0.9,1.6-2.2,2.3-3.8,2.1l0.5,5.2l-2.8-1.6l-0.4-4.6l-1.6-0.9l-1.9,3.3l-2.3-1.3l5.9-10.3l3.9,2.3
		c1.3,0.6,2.3,1.5,3,2.8C87.5,97.4,87.3,98.6,86.6,99.5z M83.2,99.2c0.5-0.1,0.9-0.5,1.1-1c0.3-0.4,0.4-0.9,0.2-1.4
		c-0.3-0.5-0.8-0.9-1.4-1.2l-1.7-1l-1.7,3l1.7,1C81.9,99,82.5,99.2,83.2,99.2z"/>
	<path class="st6" d="M90.7,106l6.4-5.1l2.5,1.4l-10,7.9l-1.9-1.1l1.7-12.6l2.5,1.4L90.7,106z"/>
	<path class="st6" d="M100.7,103.1l2.3,1.3l-5.9,10.3l-2.3-1.3L100.7,103.1z"/>
	<path class="st6" d="M105.4,116.7c1.1,0.6,2.4,0.7,3.5,0.2l0.6,2.4c-1.7,0.7-3.6,0.5-5.2-0.4c-1.5-0.8-2.6-2.1-3.1-3.7
		c-0.9-3.3,1.1-6.7,4.4-7.6c1.6-0.4,3.3-0.2,4.7,0.7c1.6,0.9,2.8,2.5,3.1,4.3l-2.4,0.8c-0.1-1.2-0.9-2.3-1.9-2.9
		c-0.8-0.5-1.8-0.6-2.7-0.4c-1,0.2-1.8,0.9-2.2,1.8c-0.5,0.8-0.7,1.8-0.4,2.8C104,115.5,104.6,116.3,105.4,116.7z"/>
	<path class="st6" d="M123.5,116.1l-1.2,2l-5.1-2.9l-1.2,2.2l4.6,2.6l-1.1,2l-4.6-2.6l-1.2,2.1l5.3,3l-1.2,2l-7.6-4.3l5.9-10.3
		L123.5,116.1L123.5,116.1z"/>
</g>
<g>
	<ellipse class="st7" cx="266.7" cy="453.2" rx="181.2" ry="13"/>
	<g>
		<g>
			<g>
				<path class="st8" d="M103.2,204H196c2.2,0,4,1.8,4,4v101.5c0,2.2-1.8,4-4,4H77.3c-2.2,0-4-1.8-4-4v-75.6
					C73.3,217.4,86.7,204,103.2,204z"/>
				<path class="st9" d="M200,227.5v4.8H73.3c0.1-1.7,0.3-3.3,0.6-4.8H200z"/>
			</g>
			<path class="st10" d="M246.1,165.5l10.4-17.1l5.9-3.9l10.1,12.9l-0.7,2.1c0,0-3.6,0.9-5.9,4.7c-2.3,3.8-3.5,8.7-3.5,8.7
				L246.1,165.5z"/>
			<path class="st11" d="M258.2,147.1l4.1-2.7l10.1,12.9l-0.7,2.1c0,0-3.6,0.9-5.9,4.7c-0.2,0.3-0.3,0.5-0.5,0.8
				c-0.9-0.9-1.9-2-2.7-3.1c-5.1-6.7-3.7-13.9-3.7-13.9L258.2,147.1z"/>
			<path class="st10" d="M296.7,362.4c0,0-6.1,19.1-6,20.4c0,1.3,11.4,4.5,11.4,4.5l5.9-0.7c0,0-0.9-5.5,0.9-15.2
				C310.6,361.7,308.8,358.7,296.7,362.4z"/>
			<path class="st12" d="M224.4,284.6c0,0-6.9,15.2,0,20c6.9,4.8,49.3,11.2,55.6,8.3c6.3-2.9,6.9-10.9,6.9-10.9
				S270.5,296.3,224.4,284.6z"/>
			<path class="st13" d="M217.4,276.7c0,0-1.2,16.2,20.1,22.3c21.3,6.1,81.2,6.2,81.2,6.2c-8.7,11.4-16.6,28.1-21.8,40.6
				c-8.3,20.2-9,23.7-9,23.7s4.9,3.8,11.7,4.8c6.7,1,12.1-0.6,12.1-0.6c6.8-25.5,19.3-52.9,31.8-76.7l-2.3-6
				c-17.7-6-80.1-27.1-89.9-29.2C239.9,259.4,217.4,276.7,217.4,276.7z"/>
			<g>
				<polygon class="st9" points="347.7,260.4 386.3,376.3 401.1,369.7 359.1,259.7 				"/>
				<g>
					<polygon class="st14" points="444.1,411.9 419.6,412.2 430.2,434.7 422.3,439.3 414.7,416.9 400.2,436.1 392.5,431 
						410.2,413.4 386.5,404.5 390.4,396.9 410.9,406.1 413.9,385 423.6,386.3 418.3,406.8 441.5,404.8 					"/>
					<path class="st15" d="M415.3,369.4c23.6,0,42.8,19.2,42.8,42.8c0,23.6-19.2,42.8-42.8,42.8c-23.6,0-42.8-19.2-42.8-42.8
						C372.5,388.5,391.7,369.4,415.3,369.4L415.3,369.4z M415.3,389.2c-12.7,0-22.9,10.3-22.9,22.9c0,12.7,10.3,22.9,22.9,22.9
						c12.7,0,22.9-10.3,22.9-22.9C438.2,399.5,428,389.2,415.3,389.2z"/>
					<path class="st16" d="M415.3,381.9c16.7,0,30.3,13.6,30.3,30.3c0,16.7-13.6,30.3-30.3,30.3c-16.7,0-30.3-13.6-30.3-30.3
						C385,395.4,398.6,381.9,415.3,381.9L415.3,381.9z M415.3,389.2c-12.7,0-22.9,10.3-22.9,22.9c0,12.7,10.3,22.9,22.9,22.9
						c12.7,0,22.9-10.3,22.9-22.9C438.2,399.5,428,389.2,415.3,389.2z"/>
					<path class="st16" d="M415.3,427.7c8.5,0,15.5-7,15.5-15.5c0-8.5-7-15.5-15.5-15.5c-8.5,0-15.5,7-15.5,15.5
						C399.8,420.7,406.8,427.7,415.3,427.7z"/>
					<path class="st14" d="M415.3,418.8c3.6,0,6.6-3,6.6-6.6c0-3.6-3-6.6-6.6-6.6c-3.6,0-6.6,3-6.6,6.6
						C408.7,415.8,411.7,418.8,415.3,418.8z"/>
				</g>
				<g>
					<polygon class="st14" points="193.3,413.8 168.8,414.2 179.4,436.6 171.5,441.3 163.9,418.8 149.4,438 141.7,432.9 
						159.4,415.3 135.7,406.4 139.6,398.8 160.1,408 163.1,386.9 172.8,388.2 167.5,408.7 190.7,406.8 					"/>
					<path class="st15" d="M164.5,371.3c23.6,0,42.8,19.2,42.8,42.8c0,23.6-19.2,42.8-42.8,42.8c-23.6,0-42.8-19.2-42.8-42.8
						C121.7,390.5,140.9,371.3,164.5,371.3L164.5,371.3z M164.5,391.2c-12.7,0-22.9,10.3-22.9,22.9c0,12.7,10.3,22.9,22.9,22.9
						c12.7,0,22.9-10.3,22.9-22.9C187.4,401.4,177.1,391.2,164.5,391.2z"/>
					<path class="st16" d="M164.5,383.8c16.7,0,30.3,13.6,30.3,30.3c0,16.7-13.6,30.3-30.3,30.3s-30.3-13.6-30.3-30.3
						C134.2,397.4,147.8,383.8,164.5,383.8L164.5,383.8z M164.5,391.2c-12.7,0-22.9,10.3-22.9,22.9c0,12.7,10.3,22.9,22.9,22.9
						c12.7,0,22.9-10.3,22.9-22.9C187.4,401.4,177.1,391.2,164.5,391.2z"/>
					<path class="st16" d="M164.5,429.6c8.5,0,15.5-7,15.5-15.5c0-8.5-7-15.5-15.5-15.5c-8.5,0-15.5,7-15.5,15.5
						C149,422.6,155.9,429.6,164.5,429.6z"/>
					<path class="st14" d="M164.5,420.7c3.6,0,6.6-3,6.6-6.6c0-3.6-3-6.6-6.6-6.6c-3.6,0-6.6,3-6.6,6.6
						C157.9,417.7,160.8,420.7,164.5,420.7z"/>
				</g>
				<path class="st8" d="M123.4,340.5c-0.7-0.1-6.6-0.7-10.9,1.7c-4.3,2.3-7,24.4-5.6,27.5c1.4,3.2,6.1,1.8,6.1,1.8L123.4,340.5z"/>
				<path class="st17" d="M150.3,334.9c0,0-28.1,0.4-31,4.1c-2.9,3.7-10.9,34.7-9.5,35.4c1.4,0.7,6.9,1,6.9,1L150.3,334.9z"/>
				<path class="st9" d="M361.5,334.7c-9.4-30-18.7-54.1-18.2-60c0.6-5.9,21.3-9.5,21.3-9.5l5.1,23.3l6.3,28.5l-2.2,31.7
					c0,0,0,4.8-0.9,10.8v0c0.1,0.5,0,1.3-0.4,2.3c-1.5,8.4-4.8,18.5-12.1,21.9c-1.6,2.8-2.5,4.8-2.2,5.2c1.3,1.4-20.4,7.4-20.4,7.4
					l-54.5,7.2c0,0-25.1-2.8-27.8-2.8c-2.7,0-8.3-22.9-8.3-22.9l8.9-0.5c0,0,11.8,7.3,29.7,6.8c17.9-0.6,48.9,1.6,56.9-3.3
					C357.4,371.9,366,349.3,361.5,334.7z"/>
				<path class="st8" d="M364.7,265.2c0,0,35.9,69.1,34.2,79.3c-1.8,10.2-41.9,50.7-54.9,58.1c-6.2,3.5-61.9,4-118.3,3.5h0l-0.1,0
					c-61.4-0.5-123.6-2.1-123.6-2.1s8.1-62.3,69-82.8c60.9-20.4,108.1-7.7,108.1-7.7s3.5,12.3-7.7,18c-28.8,14.4-25.3,48.6,2.9,60.8
					c28.4,0.1,59.4,0,65.7-1c20.4-3.2,32.4-59.4,27.1-75.2C357.7,288.8,343.5,288.8,364.7,265.2z"/>
				<path class="st18" d="M364.7,265.2c0,0,0.5,1,1.4,2.8l-2.1,2.7l0,0.1l0,0c-3.7,4.4-7.7,10.2-7.1,15.1c0.4,3.5,2.9,7.6,4.5,10.6
					c3.4,6.1,6.3,11.9,8.5,18.6c3.6,10.6-0.1,30.7-3,41.3c-3.4,12.4-11.8,35.7-26.6,38.1c-2.6,0.4-5.5,0.5-8.1,0.6
					c-4.5,0.2-9,0.3-13.5,0.3c-12.1,0.2-24.3,0.2-36.4,0.1l-1.5,0c-0.4,0-0.8-0.1-1.1-0.1c-4.8-0.5-5.8-2.7-6-3.3
					c0.2,0.1,0.3,0.1,0.5,0.2c28.4,0.1,59.4,0,65.7-1c20.4-3.2,32.4-59.4,27.1-75.2C357.7,288.8,343.5,288.8,364.7,265.2z"/>
				<path class="st9" d="M243.3,406.3c-5.9,0-11.8-0.1-17.7-0.1h0l-0.1,0c-43.6-0.4-87.5-1.3-109.4-1.8
					C148,300.7,235,313,251.4,358.2c-0.4,5.1,0.5,10.3,2.7,15.2C254.2,383.7,250.9,394.8,243.3,406.3z"/>
				<path class="st8" d="M237.4,406.2c-45.2-0.4-102.6-1.4-123.6-1.8c4.3-14.7,16.1-46.1,49.6-62.5
					C232.6,308.2,261.7,369.7,237.4,406.2z"/>
				<path class="st19" d="M242,386.1c1.9-11.1,0-22.7-6.1-32.3c-5.9-9.4-15-15.4-25.8-17.6c-15.3-3-31.6,1.9-45.3,8.5
					c-6.8,3.3-12.9,7.4-18.3,12c2.9-1.7,6-3.2,9.1-4.6c15.1-6.7,33.3-11.6,50.2-8.5c12,2.2,22.1,8.2,28.6,17.6
					C239.7,368.7,242.2,377.4,242,386.1z"/>
				<path class="st15" d="M126.7,392.2h93.1c1.4,0,2.5,0.6,2.5,1.4l0,0c0,0.8-1.1,1.4-2.5,1.4h-93.1c-1.4,0-2.5-0.6-2.5-1.4l0,0
					C124.2,392.8,125.3,392.2,126.7,392.2L126.7,392.2z M138.3,382.2h93.1c1.4,0,2.5,0.6,2.5,1.4l0,0c0,0.8-1.1,1.4-2.5,1.4h-93.1
					c-1.4,0-2.5-0.7-2.5-1.4l0,0C135.8,382.8,136.9,382.2,138.3,382.2L138.3,382.2z M132.6,387.2h93.1c1.4,0,2.5,0.7,2.5,1.4l0,0
					c0,0.8-1.1,1.4-2.5,1.4h-93.1c-1.4,0-2.5-0.6-2.5-1.4l0,0C130.1,387.8,131.2,387.2,132.6,387.2z"/>
				<path class="st16" d="M415,407.2c2.3,0,4.1,1.9,4.1,4.1c0,2.3-1.9,4.1-4.1,4.1c-2.3,0-4.1-1.9-4.1-4.1
					C410.9,409.1,412.7,407.2,415,407.2L415,407.2z M415,409.4c-1.1,0-2,0.9-2,2c0,1.1,0.9,2,2,2c1.1,0,2-0.9,2-2
					C417,410.3,416.1,409.4,415,409.4z"/>
				<path class="st9" d="M388.8,382.6l18.1,29c0,0,6.1,1.9,8.3-1.7c2.2-3.6,1.7-6.1,1.7-6.1l-16.7-27.6L388.8,382.6z"/>
				<path class="st8" d="M356.7,406.9c0.4-1.2,12.7-36.8,37.7-48.8c20.9-10,57.8-3.7,65.7,21.3c0,0-4.2,5.1-12.5,6.3
					c-8.3,1.2-24-7.6-40.7,7.7C390.1,408.8,370,418,356.7,406.9z"/>
				<path class="st19" d="M452,381.2c1.6-0.7,3.2-1.6,4.4-2.6c-8.4-21.5-41.8-26.6-60.7-17.6c-1.7,0.8-3.3,1.7-4.8,2.7
					c-1.5,1-2.9,2-4.3,3.1c-2.2,1.8-4.3,3.8-6.3,5.9c0.8-0.7,1.6-1.4,2.4-2.1c1.4-1.1,2.8-2.2,4.3-3.1c1.6-1,3.2-1.9,4.8-2.7
					C410.3,356,442.7,360.8,452,381.2z"/>
				<path class="st20" d="M369.9,291.8c0,0-7.9-2.5-7.3-0.3c0.5,2.2,7.8,15.6,8.9,17.9c1.1,2.4,9.3,3.2,9.3,3.2
					S375.1,296.7,369.9,291.8z"/>
				<path class="st8" d="M336.3,259c0,0,7.1-12,21.8-16c14.6-3.9,18.6-2.1,18.6-2.1l2.4,22.3c0,0-23.5,3.2-30,4.5
					C342.5,269.1,336.3,259,336.3,259z"/>
				<path class="st17" d="M370.4,240.7c4.7-0.4,6.2,0.3,6.2,0.3l2.4,22.3c0,0-2.7,0.4-6.5,0.9L370.4,240.7z"/>
			</g>
			<path class="st8" d="M249.3,160.4c0,0-19.7-2.8-35.3,48.4c-15.6,51.2-3.5,79.5-3.5,79.5s6.6-0.2,30.4-10.2
				c23.9-10,25.4-13.5,25.4-13.5s-12.8-30.1-8.8-53.9c4-23.9,8.1-37.5,8.1-37.5S256.9,161.2,249.3,160.4z"/>
			<path class="st10" d="M247,215.4c3.6,12.7,7,31.4,7,31.4c19.6,7.1,47.5,10.6,69,15c0,0,7.4,7.4,12.6,7.4c5.2,0,13.3-4.3,12.9-6.1
				c-0.4-1.8-4-12-5.8-14c-1.8-2-5.4-1-7-0.3c-1.6,0.7-8.6,3.4-8.6,3.4c-18.9-5.2-39.2-14.5-58.3-20.4c0,0-0.6-11.2-3-20.8
				C257.5,214.2,255.2,212.2,247,215.4z"/>
			<path class="st19" d="M242,214.5c0.5,3.1,1.2,6.2,2.1,9.3c4.7-1.8,15.2-5.9,23.7-8.9c0.4-0.1,0.8-0.3,1.2-0.4
				c-1.1-4.4-2.1-9.2-2.8-13.7c-2.2-14.2,0.8-22.1-7.7-25.4C234.1,166,240.7,205.5,242,214.5z"/>
			<path class="st12" d="M289.9,378.6c-2,6-5.6,16.9-5.6,16.9s11,0.8,29.2,1.2c18.3,0.4,24-1.9,24-1.9s-2.9-4.8-4.5-5.9
				c-1.6-1-13-3.3-19.9-6.9c-1.2-0.6-2.1-1.3-2.9-1.9c-3.3,1.4-6.8,2.7-8.9,2.5C298.7,382.4,293.7,380.4,289.9,378.6z"/>
			<path class="st21" d="M285.4,392.3l-1.1,3.2c0,0,11,0.8,29.2,1.2c18.3,0.4,24-1.9,24-1.9s-0.7-1.1-1.6-2.4
				c-3.8,0.8-10.3,1.7-19.5,1.8C300,394.3,285.4,392.3,285.4,392.3z"/>
			<polygon class="st19" points="250.3,156.6 246.9,160.5 264.8,176.8 268.3,169.2 			"/>
			<path class="st12" d="M237.7,107.8l-2.1,9.4c0,0,1.3,13.9,5.8,23.3c4.5,9.4,11.6,13.7,11.6,13.7s8.6-7.1,10.7-12.1
				c2.1-5,11.4-15.2,11.4-15.2l5.5-14.1C280.5,112.8,244.8,101.8,237.7,107.8z"/>
			<path class="st10" d="M299.8,110.5c0,0,0,13.5-0.9,18.2c-0.9,4.6,6,10.4,6.5,11.4c0.5,1-2.9,2-3.3,3c-0.5,1.1-0.4,4.1-0.4,4.1
				s-3.5,0.8-6.7,0.5c-3.2-0.3-3.8-0.6-3.8-0.6s0.6,3.2,3.1,5.6c2.5,2.5,4.9,3,4.9,3s-1.2,5.4-1.4,6.9c-0.2,1.5-1.2,3.4-4.9,4
				c-3.7,0.6-8.9,0.2-19.4-5.7c-10.5-5.9-10.9-9.5-12.6-12.7c-1.7-3.2-1.8-6.1-1.8-6.1s-3.9-0.4-4.7-5.3c-0.8-4.9,1.5-10.7,4.4-12.6
				c2.9-1.9,5.1-0.5,5.9,1.9c0.8,2.4,0.5,3.9,0.5,3.9l3.3-0.1c0,0,1.1-3.7,3.6-7c2.5-3.3,4.3-13,4-13.5
				C275.8,109.1,297.6,106.7,299.8,110.5z"/>
			<ellipse class="st22" cx="294.4" cy="131.4" rx="1.9" ry="3.3"/>
			<path class="st12" d="M286.9,125.9c0.3-0.3,3.2-2.1,6.6-2.2c3.4-0.1,4.8,0.8,4.7,0.6c-0.1-0.3,0.3-2.6-1-2.9
				C296,121,288.7,121.4,286.9,125.9z"/>
			<path class="st9" d="M268.6,112.8c0,0,22.1,5.2,36.5,4.5c14.4-0.7,25.1-12.8,25.1-12.8s-34.9-4.5-36.4-4.3
				C292.4,100.3,268.6,112.8,268.6,112.8z"/>
			<path class="st8" d="M234.5,117.1c0,0,24.8,2.3,41.6-2.7c0,0,15.9-10.4,23.9-13.6c-0.9-2.6-6.9-19.8-9.7-22.3
				c-3-2.7-32.3-5-32.3-5s-18,10.3-20.7,15.2C234.7,93.4,234.5,117.1,234.5,117.1z"/>
			
				<ellipse transform="matrix(0.9821 -0.1884 0.1884 0.9821 -9.3826 49.9927)" class="st9" cx="258.3" cy="74.4" rx="3.4" ry="1.8"/>
			<g>
				<path class="st14" d="M329.9,262.6l0.4-2c0,0,3.3-1.1,5-1.2c1.7-0.1,3.2,3.3,2.5,4.9c-0.6,1.6-4.1,3.9-4.1,3.9L329.9,262.6z"/>
				
					<ellipse transform="matrix(0.9488 -0.3157 0.3157 0.9488 -66.5513 118.2257)" class="st16" cx="331.6" cy="264.5" rx="2.9" ry="4.2"/>
			</g>
			<path class="st9" d="M132.5,313.8l26.7,15.4c3.2,1.8,1.3,6.8-2.6,4.5l-26.7-15.4C124.7,315.2,128.8,311.6,132.5,313.8z"/>
			<path class="st23" d="M132.5,313.8l12.6,7.3l-10.2,0.1l-5.1-2.9C124.7,315.2,128.8,311.6,132.5,313.8z"/>
			<path class="st9" d="M120.9,312.2h82.9c1.4,0,2.6,1.2,2.6,2.6v0c0,1.4-1.2,2.6-2.6,2.6h-82.9c-1.4,0-2.6-1.2-2.6-2.6v0
				C118.3,313.4,119.4,312.2,120.9,312.2z"/>
			<circle class="st16" cx="158" cy="331.6" r="1.2"/>
			<circle class="st16" cx="203.1" cy="314.7" r="1.2"/>
			<path class="st16" d="M354.7,201l7.2,3.2l2.3,49.7c0,0,0,0.5,0.8,0.5c0.8,0,1-0.5,1-0.5l-2.7-51l-7.8-3.3L354.7,201z"/>
			<path class="st14" d="M347.9,206.2l-2,5l3.2,0.6c0,0,4.3-3.3,7-10.6c2.7-7.3,1.5-12.9,1.5-12.9l-2.3-1.9l-3,8.3L347.9,206.2z"/>
			
				<ellipse transform="matrix(0.3492 -0.937 0.937 0.3492 41.7334 457.3047)" class="st24" cx="350.1" cy="198.6" rx="13.4" ry="4"/>
			<path class="st20" d="M138.7,348.7c0,0-9.3,14.5-10.9,15.4c-1.7,0.9-5.8,1.8-5.8,1.8s2.5-5.8,6.3-10.8c3.8-5,5.1-5.8,6.6-6.3
				C136.6,348.3,138.7,348.7,138.7,348.7z"/>
			<path class="st9" d="M137.5,251c1.6-1.7,3.6-3,6-3.5c2.4-0.5,4.2,0.1,5.3,1.5l0,0l0.3-0.6l0.9-0.2c0.4-0.1,0.7-0.2,1.1-0.2l1-0.2
				c1.5-1.6,3.3-2.8,5.5-3.3c0.6-0.1,1.2-0.2,1.8-0.1c0.3-1.7,0.7-3.4,1-5.1l0.2-1.1l1.1-0.4c1.6-0.6,3.3-1.1,4.9-1.7l3.3-1.2
				l-0.5,2.4l2.6-0.9l-0.7,3.4c-0.6,3.1-1.3,6.3-1.9,9.4c-0.5,2.5-1,5-1.5,7.5l0,0.6l2.3-1.6l-0.3,4.1c-0.2,3-2.3,5.4-5.2,6
				c-1.5,0.3-2.9,0.1-4-0.6c-1.1,1.2-2.5,2-4.2,2.4c-2.4,0.5-4.2-0.2-5.4-1.6c-0.5-0.2-1-0.5-1.4-0.8c-1.5,2.6-3.8,4.6-6.9,5.3
				c-1.2,0.3-2.2,0.3-3.2,0.2c0.5,0.7,0.8,1.5,0.8,2.5v0c1.1-0.2,2.1-0.5,3.2-0.7l1.8-0.4c0.6-0.6,1.4-1,2.4-1.2
				c1.8-0.4,3,0.3,3.7,1.4c0.4,0.1,0.7,0.2,1,0.4c1.6-1.9,3.7-3.3,6.3-3.9c2-0.4,3.8-0.1,4.9,1c0-0.2,0.1-0.3,0.1-0.5l0.3-1.3
				l1.3-0.3c1.6-0.3,3.2-0.7,4.8-1l3-0.7l0,0c0.2-0.1,0.4-0.1,0.6-0.2c1-0.2,1.9-0.1,2.7,0.3l0.2-0.9l1.3-0.3c1.6-0.4,3.2-0.7,4.8-1
				l2.2-0.5l0,0l1.3-0.3c1.6-0.3,3.2-0.7,4.8-1l3-0.7l-0.4,2l2.5-0.6l-0.6,3c-0.7,3.4-1.4,6.7-2,10.1c-0.7,3.4-1.4,6.7-2,10.1
				c-0.8,4.2-3.2,7.6-7.6,8.5c-2.1,0.5-4.2-0.2-5.3-1.7c-1.8-0.7-3.1-2.2-3.1-4.5c0-1.3,0.3-2.4,0.9-3.4c-1.5-0.8-2.4-2.6-2.4-4.8
				c0-0.9,0.1-1.8,0.3-2.6l0.3-1.7c-0.3-0.1-0.6-0.4-0.8-0.6c0,0,0,0,0,0c-0.8,4.2-1.7,8.3-2.5,12.5l-0.3,1.3l-1.3,0.3
				c-1.6,0.3-3.2,0.7-4.8,1l-3,0.6l0.2-0.8c-1.1,0.9-2.4,1.5-4,1.8c-2.8,0.6-4.9,0-6.2-1.6c-0.4-0.2-0.8-0.4-1.2-0.6
				c-1.7,2.6-4.1,4.7-7.2,5.4c-2.1,0.5-3.9,0.1-5-1c-0.9,1.5-2.4,2.7-4.3,3.1c-2,0.4-3.6-0.1-4.6-1.2c-0.9,1.6-2.4,2.7-4.3,3.1
				c-2.2,0.5-3.9-0.2-4.9-1.5c-0.1,0-0.3-0.1-0.4-0.2c-1.2,2.1-3.3,3.5-6,4.1c-2.8,0.6-4.9,0-6.2-1.6c-0.5-0.2-1-0.5-1.4-0.8
				c-1.6,2.6-3.9,5.1-6.8,5.8c-1,0.2-2,0.2-3,0l0,0.3l-1.3,0.3c-1.6,0.3-3.2,0.7-4.8,1l-3,0.6l0.4-2l-2.5,0.5l0.6-3
				c0.6-3.1,1.3-6.3,1.9-9.4c-0.9-0.2-1.6-0.7-2.1-1.5c-1.7-0.5-2.8-1.9-2.8-4.3c0-3.2,2-6.2,4.3-8.3c2.6-2.5,6.1-4.3,9.6-5.1
				c3.8-0.8,6.7,0,8.7,1.9c2,0.9,3.3,2.6,4.1,4.9c1.4-1.3,3.2-2.3,5.2-2.7c2-0.4,3.7-0.1,4.8,0.9c0.5-2.3,0.9-4.5,1.4-6.8l0.2-0.9
				c-1.2-0.7-2-1.8-2.4-3.3l-1.3,6.3l-0.3,1.3l-1.3,0.3c-1.6,0.3-3.2,0.7-4.8,1l-3,0.7l0.4-2l-2.5,0.5l0.6-3c0.6-3.2,1.3-6.3,2-9.5
				c-0.7-0.3-1.4-0.7-1.8-1.4c-1.7-0.5-2.8-1.9-2.8-4.4c0-7.4,6.3-11.6,12.9-13c1.8-0.4,3.7-0.4,5.5-0.8c0.8-0.2,1.7-0.4,2.4-0.9
				l4.3-2.4l-1,3.1l3-1.7l-1.4,4.7c-0.3,1-0.4,1.8-0.8,2.8c-0.1,0.2-0.2,0.3-0.3,0.5c0.1,0,0.2-0.1,0.4-0.1c2.4-0.5,4.2,0.1,5.3,1.5
				l0,0l0.3-0.6l0.9-0.2c0.4-0.1,0.7-0.2,1.1-0.2L137.5,251L137.5,251z M121.6,254.2l1.6-0.4c-0.5,0-1,0.1-1.6,0.1L121.6,254.2z"/>
			<path class="st18" d="M116.5,257.4c0.5-2.3,0.9-4.6,1.4-6.9c1.5,0,3.2,0.1,4.6-0.4c2.7-0.9,2.7-3.2,3.2-4.7
				c-0.9,0.5-1.9,0.8-3,1.1c-2.1,0.5-4.2,0.5-5.5,0.8c-8.2,1.8-11.3,6.7-11.3,11.1c0,2.4,1.3,2.9,3.5,2.4c0-0.3-0.5-0.5-0.5-2.2
				c0-5.3,1.8-7.2,4.3-7.8c-0.8,3.9-1.6,7.7-2.4,11.6c-0.8,3.9-1.6,7.7-2.4,11.6c1.6-0.3,3.2-0.7,4.8-1c0.9-4.4,1.8-8.7,2.7-13.1
				c1.6-0.3,3.2-0.7,4.8-1c0.2-0.9,0.4-1.7,0.5-2.6C119.8,256.7,118.1,257,116.5,257.4L116.5,257.4z M178.2,267.2
				c-0.8,3.7-1.5,7.4-2.3,11.1c-0.2,0.8-0.3,1.6-0.3,2.2c0,2.8,1.6,3.6,3.6,3.2c1.1-0.2,2.6-0.9,4-2.8c-0.1,0.5-0.2,1-0.3,1.5
				c-3.2,1.6-5.8,3.1-5.8,6.2c0,2.2,1.9,3.2,3.9,2.7c2.2-0.5,5-2,6-7c0.7-3.3,1.4-6.7,2-10.1c0.7-3.3,1.4-6.7,2-10.1
				c-1.6,0.4-3.2,0.7-4.8,1c-0.8,3.7-1.4,7.5-2.3,11.1c-0.4,1.8-1.4,3.2-2.7,3.5c-0.8,0.2-1-0.5-1-1.3c0-0.3,0-0.6,0.1-0.8
				c0.8-3.9,1.6-7.9,2.4-11.8C181.4,266.5,179.8,266.8,178.2,267.2L178.2,267.2z M179,287.8c0-1.8,1.6-3.1,3.7-4.2
				c-0.1,0.7-0.3,1.4-0.4,2c-0.4,2-1.3,2.9-2,3C179.6,288.8,179,288.3,179,287.8L179,287.8z M165.7,269.9c1.6-0.3,3.2-0.7,4.8-1
				c-0.2,0.7-0.3,1.4-0.4,2.2c1.2-1.2,2.4-2.6,4-2.9c1.5-0.3,2.3,0.7,2.3,2c0,1.2-0.8,2.6-2.4,2.9c-1.9,0.4-0.9-2-1.9-1.8
				c-1,0.2-1.6,0.8-2.4,1.8c-0.9,4.4-1.8,8.8-2.7,13.2c-1.6,0.3-3.2,0.7-4.8,1c0.6-2.9,1.2-5.8,1.8-8.7
				C164.6,275.7,165.2,272.8,165.7,269.9L165.7,269.9z M155.2,283.1c0-0.3,0-0.7,0.1-1c4-1.1,7.6-4.8,7.6-8.7c0-1.7-0.7-3-3.7-2.4
				c-6.8,1.5-9,9.9-9,13.8c0,3.7,2.1,4.8,5.1,4.2c2.7-0.6,5-2.2,5.7-6.2c-1.1,1.2-2.7,2.3-3.9,2.6
				C156.1,285.6,155.2,285.2,155.2,283.1L155.2,283.1z M160.3,273.9c0,2.8-2.3,5.8-4.8,6.5c0.7-3.3,2.4-7.3,4-7.7
				C160.1,272.6,160.3,273.1,160.3,273.9L160.3,273.9z M148.2,273c-1.4,0.3-2.1,1.2-2.1,2.3c0,0.7,0.4,1.6,1.2,1.4
				c0.3-0.1,1-0.3,1.1-0.6c0,3.6-2.5,11.6-5.7,12.3c-0.8,0.2-1.1-0.2-1.1-0.9c0-0.3,0.1-0.7,0.2-1.2c0.8-3.9,1.6-7.9,2.4-11.8
				c-1.6,0.3-3.2,0.7-4.8,1c-0.8,3.9-1.6,7.9-2.4,11.8c-0.1,0.7-0.2,1.3-0.2,1.6c0,2.6,1.6,3.6,4.1,3c3.4-0.7,5.8-3.6,7.3-6.9
				c1.5-3.3,2.2-7.1,2.2-9.8C150.2,274,149.7,272.7,148.2,273L148.2,273L148.2,273z M131.1,273c0,1.5,1.2,2.4,2.6,2
				c1.5-0.3,2.7-1.7,2.7-3.2c0-1.5-1.2-2.4-2.7-2.1C132.2,270.1,131.1,271.6,131.1,273L131.1,273z M130.4,277.6
				c-0.8,3.7-1.5,7.4-2.2,11.1c-0.2,0.8-0.3,1.6-0.3,2.2c0,2.8,1.6,3.6,3.5,3.2c1.8-0.4,3.5-1.8,3.7-4.2c-0.2,0.2-0.5,0.3-1.1,0.4
				c-0.9,0.2-1.4,0-1.4-0.9c0-0.3,0-0.6,0.1-1.1c0.8-3.9,1.6-7.9,2.4-11.8C133.6,276.9,132,277.2,130.4,277.6L130.4,277.6z
				 M127.7,271.5c-0.6,3.1-1.3,6.3-1.9,9.4c-0.6,3.1-1.3,6.2-1.9,9.4c-0.1,0.3-0.1,0.7-0.1,1c0,0.8,0.3,1.3,1.4,1
				c0.6-0.1,0.9-0.3,1.1-0.4c-0.2,2.4-1.9,3.9-3.7,4.3c-2,0.4-3.6-0.5-3.6-3.3c0-0.6,0.1-1.4,0.3-2.2c0.6-2.9,1.2-5.8,1.8-8.7
				c0.6-2.9,1.2-5.8,1.8-8.7C124.4,272.6,126,272,127.7,271.5L127.7,271.5z M111,292.7c0-0.3,0-0.7,0.1-1c4-1.1,7.6-4.8,7.6-8.7
				c0-1.7-0.7-3-3.6-2.4c-6.8,1.5-9,9.9-9,13.8c0,3.7,2.1,4.8,5.1,4.2c2.7-0.6,5-2.2,5.7-6.2c-1.1,1.2-2.7,2.3-3.9,2.6
				C111.9,295.2,111,294.8,111,292.7L111,292.7z M116.1,283.5c0,2.8-2.2,5.8-4.8,6.5c0.7-3.3,2.4-7.4,4-7.7
				C115.9,282.2,116.1,282.7,116.1,283.5L116.1,283.5z M92.2,281.4c-0.8,3.7-1.5,7.4-2.3,11c-0.7,3.7-1.5,7.4-2.2,11
				c1.6-0.3,3.2-0.7,4.8-1c0.1-0.5,0.2-0.9,0.3-1.4c1.4,0.9,2.8,1.2,4.1,0.9c2.4-0.5,4.8-3.1,6.4-6.4c1.7-3.4,2.8-7.5,2.8-11.4
				c0-5.1-2.4-9-8.9-7.6c-6.7,1.5-12.3,6.9-12.3,11.4c0,2.3,1.4,2.8,3.5,2.3c0-0.3-0.5-0.5-0.5-2.2c0-5.1,3.7-8.9,8.7-10
				c2.9-0.6,4.8,0.7,4.8,5.2c0,3.4-0.6,7.1-1.7,10.2c-1.1,3-2.7,5.4-4.7,5.8c-0.6,0.1-1.3,0.1-1.9-0.3c0.7-3.2,1.3-6.5,2-9.7
				c0.7-3.2,1.3-6.5,2-9.8C95.4,280.2,93.8,280.8,92.2,281.4L92.2,281.4z M167.3,238c-1.6,0.6-3.3,1.2-4.9,1.7
				c-0.5,2.7-1.1,5.3-1.6,8c0,0,0-0.1,0-0.1c0-1-0.8-1.5-2.7-1.1c-5.8,1.3-8.5,9-8.5,13.5c0,3.9,2.2,4.9,4.4,4.4
				c2.2-0.5,3.7-2.1,4.7-3.8c0.4,1.8,1.8,2.4,3.5,2c1.8-0.4,3.5-1.8,3.7-4.2c-0.2,0.1-0.5,0.3-1.1,0.4c-1,0.2-1.4-0.3-1.4-1
				c0-0.3,0.1-0.6,0.1-1c0.6-3.1,1.3-6.2,1.9-9.4C166,244.3,166.7,241.1,167.3,238L167.3,238z M158.7,257.7c-0.4,1.7-1.7,2.8-2.6,3
				c-0.6,0.1-1.7,0.3-1.7-2.2c0-3.1,1.8-9.5,4.6-10.1c1-0.2,1.3,0.5,1.4,0.9C159.9,252,159.3,254.9,158.7,257.7L158.7,257.7z
				 M143.9,249.4c2.6-0.6,4,0.6,4.2,3.6c1.2-0.5,2-2.1,2.4-2.8c0.4-0.1,0.7-0.2,1.1-0.2c-0.7,1.6-1.7,3.8-3.4,5.2
				c-0.4,6.5-3.7,11.2-7.9,12.1c-3.1,0.7-5.3-0.3-5.3-4.1C135,259.3,137.1,250.9,143.9,249.4L143.9,249.4z M141.6,264
				c1.6-0.4,3.2-3.7,3.7-7.7c-0.5-0.1-0.8-0.5-0.8-1.3c0-0.9,0.4-1.5,0.9-1.9c-0.1-1.4-0.4-1.8-1.3-1.6c-2.4,0.5-4.3,7-4.3,10.3
				C139.9,263.8,140.3,264.3,141.6,264L141.6,264z M129.4,252.6c2.6-0.6,4,0.6,4.2,3.6c1.2-0.5,2-2.1,2.4-2.8
				c0.4-0.1,0.7-0.2,1.1-0.2c-0.7,1.6-1.7,3.9-3.4,5.2c-0.4,6.5-3.7,11.2-7.9,12.1c-3.1,0.7-5.3-0.3-5.3-4.1
				C120.4,262.5,122.5,254.1,129.4,252.6L129.4,252.6z M127,267.2c-1.3,0.3-1.7-0.1-1.7-2.3c0-3.3,2-9.8,4.3-10.3
				c0.8-0.2,1.2,0.2,1.3,1.6c-0.6,0.4-0.9,1-0.9,1.9c0,0.8,0.3,1.2,0.8,1.3C130.3,263.5,128.7,266.8,127,267.2z"/>
		</g>
		<g>
			<path class="st25" d="M258.2,129.8c-1.2,0.7-3.3,4.8-1,5.2c0.2,0,0.5-0.1,0.6-0.4c0.1-0.4-0.2-0.6-0.2-1
				c-0.1-0.7,0.3-1.7,0.7-2.2c0.5-0.9,1.4-1.1,2.2-0.4c0.8,0.7,0.9,1.8,1.1,2.8c0,0.2,0.4,0.2,0.4,0c0-1.3-0.1-2.7-1-3.6
				C260.2,129.4,259.1,129.2,258.2,129.8z"/>
			<path class="st25" d="M277.3,89.7c1.5-1.6,2.8-3.3,4-5.2c0.5-0.8,0.9-1.6,1.3-2.4c0.2-0.5,0.5-1,0.7-1.6c0.1-0.5,0.1-1.2,0.3-0.5
				c0,0.2,0.3,0.1,0.3,0c0-0.3,0-0.6-0.1-0.9c0-0.2-0.3-0.2-0.4,0C282.1,83,280.1,86.6,277.3,89.7C277.3,89.7,277.3,89.7,277.3,89.7
				z"/>
			<path class="st25" d="M161.3,421.7c1.1,0.6,2.4,0.9,3.8,0.8c3.8-0.4,6.8-4.2,5.4-8c0-0.1-0.1-0.2-0.1-0.2c-0.9-3.7-4.1-7.3-8.1-7
				c-3.1,0.2-4.7,2.1-5.2,4.5c-1,1.1-1.6,2.5-1.3,4.3C156.3,418.8,158.6,420.8,161.3,421.7z M162.7,408.7c-0.8,0.3-1.7,0.6-2.6,1
				C160.8,409.1,161.7,408.7,162.7,408.7z M159.4,410.8c1.2-0.8,2.6-1.3,3.8-1.7c0.1,0,0.2-0.2,0.1-0.3c0.3,0,0.7,0.1,1.1,0.2
				c0.6,0.2,1.1,0.5,1.6,0.9c-1.4-0.6-2.8-0.4-3.7,1.2c-0.1,0.1-0.1,0.2-0.1,0.3c0,0-0.1,0-0.1,0c-0.2,0.1-0.2,0.4-0.1,0.5
				c-0.5,2.8,2.8,7.5,5.2,4.8c1.7-1.9,0.3-4.1-1.7-5.1c0.1-0.1,0.1-0.2,0.2-0.3c0.4,0.2,0.8,0.5,1.2,0.7c2.2,1.7,2.8,4.6,1.6,6.6
				c-0.9,1.3-2.5,2-4.2,2.2C159.2,421,157.5,414.3,159.4,410.8z M164.8,412.8c0.8,0.3,1.4,0.8,1.4,1.5c-0.4,0.5-0.8,0.9-1.3,1.4
				c-0.4-0.5-0.7-1-1.1-1.4C164.2,413.7,164.5,413.3,164.8,412.8z M156.9,413.8c0,1.7,0.6,3.5,1.4,4.9
				C157,417.4,156.3,415.6,156.9,413.8z"/>
			<path class="st25" d="M431.6,354.7c-11.5-3-24.1-2.3-35.2,2c-0.4-1.3-0.9-2.5-1.3-3.7c0.9-1.6,1.7-3.4,2.3-5.1
				c0.3,0,0.7-0.2,0.9-0.5c3.6-4.6-0.2-12.1-1.9-16.9c-2.9-7.8-5.9-15.6-9.2-23.2c-3.3-7.6-6.8-15.2-10.4-22.7
				c-3.1-6.3-6.1-13.4-10.3-19.1c3.9-0.6,7.9-1,11.8-1.3c0.4,0,0.7-0.2,0.8-0.5c0.4-0.1,0.7-0.4,0.8-0.9c0.7-7-0.9-14.7-1.4-21.7
				c0-0.7-0.8-1-1.3-1c-3.8,0.1-7.9-0.1-11.8,0.4c-0.2-5.8-0.4-11.6-0.5-17.5c-0.1-5.4-0.2-10.8-0.2-16.2c0-4.3-3.2-5.2-6.7-7.5
				c0,0-0.1,0-0.1-0.1c1.4-4.8,2.6-11.9-1.9-13.2c-4.1-3.9-8.9,5.4-10.2,8.2c-1.8,3.8-7.3,15.9-1.3,18.9c5.8,2.9,10.9-6.6,12.3-10.6
				c0,0,0,0,0,0c1.7,1.1,3.7,2.2,4.5,4c0.7,1.8,0,5.6,0.1,7.6c0.1,4.8,0.1,9.5,0.2,14.3c0.1,4.2,0.2,8.5,0.4,12.7
				c-0.2,0.1-0.5,0.1-0.7,0.2c-0.1,0-0.1,0.1-0.2,0.1c-2.6,0-5.4,1.2-7.7,2.1c-3.4,1.4-6.6,3.2-9.4,5.6c-0.5-0.7-1-1.3-1.7-1.6
				c-1.9-1.1-4.2,0-6.2,0.6c-2.9,0.9-5.7,1.9-8.4,3.2c-0.1-0.4-0.3-0.7-0.7-0.8c-6.1-2.2-12.6-3.5-18.7-5.6
				c-5.9-2-11.7-4.3-17.4-6.8c-5.4-2.4-10.6-5-16.3-6.5c-1.3-0.4-2.2-0.5-3.4-1.3c-1.9-1.3-1.6-2.3-1.9-4.4
				c-0.4-3.1-0.9-6.3-1.4-9.4c0.4-0.2,0.9-0.4,1.3-0.5c0.5-0.2,0.8-0.8,0.7-1.4c-1-8.8-2-17.6-3.1-26.3c-0.3-2.8-0.4-6.3-1.5-9.2
				c0.2-0.2,0.4-0.5,0.6-0.8c1.3-2,4.6-6.7,4.4-9.2c-0.2-1.8-2-3.1-3.9-4.1c0.6-1,1.2-2,1.9-2.9c0.6-0.7,1.2-1.3,1.8-1.9
				c5,3.6,10.7,6,16.2,7.1c2.9,0.6,7,1.3,9.9,0.2c2.5-0.9,3-3.3,3.6-5.7c0.5-2.1,1.8-4.8,0.4-6.7c-0.7-1.1-2.3-1.7-3.3-2.6
				c-1.4-1.2-2.6-2.7-3.5-4.3c2.7,0.6,5.5,0.7,8.3,0.1c0.4-0.1,0.8-0.4,0.8-0.8c0.1-3.9,2-4.2,4.4-6.9c0.3-0.4,0.2-1.1-0.2-1.3
				c-7.3-4.5-6.9-13.2-5.9-20.7c11.4-0.6,22.4-4.9,30.5-13.3c0.7-0.7,0.5-2.2-0.7-2.3c-9.9-0.6-19.4-2.7-29.2-4c-0.7-4.6-3-9-5-13.1
				c-1.4-2.9-2.8-7.2-5.7-9c-3.5-2.2-9.1-2-13.1-2.7c-4.7-0.8-9.9-2.3-14.8-2.2c-0.8-1.7-2.8-2.2-4.6-1.7c-0.3,0.1-0.6,0.3-1,0.5
				c-1.3,0.1-2.6,0.5-3.8,1.2c-1,0.7-1.4,1.8-1.1,2.8c-6.2,1.6-13.4,6.4-16,11.8c-4.3,8.8-4.9,20.4-4.9,30c0,0.8,0.5,1.6,1.4,1.7
				c0.6,0,1.2,0.1,1.8,0.1c-0.9,7,2.4,15.4,5.1,21.5c2.3,5.3,6.1,12.2,11.7,14.7c-0.3,0.3-0.5,0.7-0.8,1.1c-0.2-0.2-0.3-0.3-0.4-0.5
				c-0.1-0.2-0.3-0.3-0.5-0.2c-0.1,0.1-0.2,0.1-0.3,0.2c-0.3,0.1-0.5,0.5-0.5,0.8c-0.4,0.6-0.9,1.2-1.3,1.8
				c-0.2,0.3-0.7,0.9-0.9,1.4c-3.7,0.3-7.2,3.4-9.8,5.7c-4.1,3.4-7.6,7.6-10.6,12c-6.4,9.3-10.6,20-13.7,30.9
				c-7.5,25.7-10.9,53.4-3.7,79.5c0.2,0.8,1,1,1.6,0.9c1.7,0.6,3.8,0.6,6,0.3c0,0,0,0,0,0c0.9,1.3,1.9,2.4,3,3.5
				c-3.1,4.6-2,10.9,2.8,13.9c2.6,1.6,5.8,2.1,8.8,2.6c0.6,0.1,1.2,0.2,1.7,0.3c-9.2,0.2-18.9,0.8-27.5,3.7
				c-0.7-1.1-2.2-1.8-3.8-1.8c-0.5,0-0.9,0-1.4,0c2.6-3.4,3-9.4,2.8-13.4c-0.7-12.9-1.1-25.7-1-38.5c0.1-12.5,0.5-24.9,0.3-37.4
				c-0.1-8.7,0.6-18.7-10-20.5c-5-0.9-10.4-0.6-15.4-0.7c-7-0.2-14-0.2-21-0.2c-12.3,0-24.6,0.3-36.9,0.9
				c-10.8,0.5-23.9-0.4-33.4,5.7c-8,5.1-12.1,14.2-13.9,23.1c-2.8,13.8-2.9,28.6-3.2,42.6c-0.3,14.2,0.2,28.3,1.2,42.4
				c0.1,1.5,1.2,2.1,2.3,2.1c3.5,2.6,13.3,0.2,16.1,0c9.4-0.7,18.8-0.7,28.2-0.8c1.6,3.1,6.4,3.1,10.1,3.1c0.5,1.9,2.7,2.5,4.4,3.5
				c2.9,1.7,5.8,3.3,8.8,4.7c2,1,4.2,2.1,6.5,3.2c-2,1-3.9,2.3-5.8,3.9c-4.8-1.5-11.9-0.3-16.6,0c-4,0.2-5.3,1.9-6.1,4.7
				c-2.2-1-5.1-0.8-6.8,0.6c-3.5,3-4.4,10.6-5.2,14.8c-0.9,4.5-2.5,11.5-1.1,16.1c0.6,1.8,2.1,3,3.6,2.8c-0.3,2.1-0.3,4.1,0.1,6
				c-0.3,0.7-0.7,1.4-1,2.1c-2.9,6.4-5.9,12.9-7.7,19.7c-0.6,0.7-0.8,1.7-0.6,2.5c-0.1,0.3-0.1,0.6-0.2,0.9c-0.1,0.6,0.8,1,1.1,0.5
				c0.3,0.2,0.8,0.4,1.3,0.4c6.6,0.1,13.2,0.1,19.8,0.2c-0.1,0.3-0.3,0.5-0.4,0.8c-0.7,0.2-0.8,0.9-0.5,1.4c-1.1,3.3-1.1,7.3-1,10.4
				c0.3,5.6,1.8,11,4.4,15.9c5.2,10.1,14.3,17.7,25,21.6c21.9,8,46.6-0.6,57.4-21.5c1.7-3.2,7.7-21.7,4.4-27.5
				c0.1-0.1,0.1-0.2,0.1-0.3c8.6,0,17.1,0,25.7,0c2.1,0,4.2,0,6.3,0c1,0.7,2.4,0.8,3.5,0c18.8,0,37.5,0.3,56.3,0.2
				c10.3,0,20.7-0.1,31-0.7c9.5-0.6,16.5-4.6,23.4-11c1.6-1.5,3.1-3,4.6-4.5c-1.8,3.6-3.1,7.3-4.2,11.1c-0.8,2.8-2.8,7.3-1.1,10.1
				c1.8,2.8,6.6,3.1,9.6,3.2c0.8,0,1.6,0,2.4,0c0.3,1.3,0.7,2.6,1.1,4c-0.1,0.3,0,0.7,0.3,0.9c0.4,1.2,0.8,2.4,1.2,3.6
				c1,7.2,5.7,14.8,9.8,19.1c7.6,8.1,18.1,13.3,29.1,14.5c22.5,2.4,44.2-13.7,48.8-35.7c1.4-6.8,1.8-13.8,0.1-20.6
				c-1.1-4.3-2.6-9.4-5.3-13.3c2-0.7,4-1.7,5.8-3.1C474.2,372.2,440.3,356.9,431.6,354.7z M344.6,203.3c0.4-1.8,0.9-3.6,1.6-5.3
				c1.1-2.9,3.6-10,7.7-10.7c1.4,7.1-2.5,16.9-8.4,21.8C343.3,207,343.9,206.3,344.6,203.3z M346.4,210.1c-0.1-0.1-0.2-0.3-0.3-0.5
				c0.8-0.8,2.9-3.1,3-3.2c3.7-5.1,7.6-13,5.2-19.2c0.3,0.1,0.6,0.2,0.8,0.3c2.4,5.5-1.1,12.1-3.9,16.9
				C351.2,204.5,347.8,209.6,346.4,210.1z M356.1,199.3c-0.7,0.4-1,1.3-0.7,2.1c-0.1,0.2-0.2,0.4-0.2,0.6c-0.7,1.8-1.5,3.5-2.6,5
				c-0.8,1-1.7,2-2.7,2.9c-0.9,1.1-1.7,1.5-2.4,1.2c2.2-1.6,4.2-5.8,4.8-7c2.7-4.8,5.7-10.9,3.3-16.3
				C358.4,189.6,357.2,195.6,356.1,199.3z M362.1,263.9c-1.8,0.3-4.1,1.2-6.5,1.9c-0.2-0.1-0.4-0.1-0.6-0.1
				c-2.2,0.3-4.6,0.7-6.7,1.5c-0.8,0-1.5-0.1-2.2-0.3c0.6-0.3,1.1-0.7,1.6-1.1c4.8,0.3,9.1-1.3,13.7-2.6c3.5-1,6.7-1.4,10.3-1.4
				c0.1,0,0.2,0,0.3,0c0,0.2,0.1,0.4,0.1,0.6C368.7,262.8,365.4,263.3,362.1,263.9z M256.9,273.9c2.5-1.4,5-3,7.2-4.8
				c0.5,0.1,1,0.3,1.4,0.4c-5.2,8.6-12.4,15.9-21.1,20.9c-2.1,1.2-4.3,2.1-6.5,3.2c0,0-0.1,0-0.1,0.1c0.5-0.2,1-0.5,1.3-0.7
				c3.6-2.6,6.6-5.9,9.4-9.3c1.6-2,3.1-4,4.6-5.9C254.5,276.5,255.7,275.3,256.9,273.9z M321.7,262.3c0.1,0,0.2,0,0.3,0
				c1.4,2.1,3.6,3.8,6.1,3.7c1,1.8,2.9,3,4.9,3c2.8,3.1,8.2,0.3,11.3-1.1c0.1-0.1,0.3-0.1,0.4-0.2c0,0,0,0,0.1,0.1
				c0.4,0.3,0.8,0.5,1.2,0.6c-1.3,0.7-2.4,1.7-3.4,2.9c-3.4,4.3-2.4,9.5-0.8,14.3c4.8,14.5,10.3,28.8,15.4,43.2
				c2.9,8.1,5.2,16.1,2.7,24.7c-1.9,6.5-5.3,13.1-9.6,18.3c-4.6,5.6-10.9,8.6-17.9,9.7c-5.4,0.8-10.9,0.2-16.3,0.7
				c-0.2-0.1-0.3-0.1-0.5-0.2c0,0,0,0,0.1-0.1c0.1-0.2,0.1-0.4,0-0.6c-0.1-0.1-0.2-0.2-0.3-0.3c-0.2-0.3-0.8-0.2-0.9,0.1
				c0,0.1,0,0.2-0.1,0.2c0,0.1,0,0.2,0.1,0.3c-2-0.8-3.7-1.7-4.3-2.9c0,0,0-0.1-0.1-0.1c1.5-0.2,3.1-0.4,4.6-0.7
				c0.7-0.1,0.6-1.2-0.2-1.1c-1.5,0.2-3,0.4-4.6,0.6c0-0.3,0-0.7,0-1c0.6,0.1,1.2,0.2,1.8,0.3c1.2,0.2,2.5-0.9,2.5-2.1
				c0.9-14.6,8-27.4,14-40.4c3.3-7.2,6.6-14.4,9.6-21.7c1.4-3.4,2.7-6.8,4-10.2c0.9-2.3,2.2-4.9,2-7.5c-0.5-5.4-7.2-6.8-11.4-8.4
				c-7.2-2.7-14.5-5.2-21.8-7.6c-14.1-4.7-28.2-9-42.5-12.7c0.5-0.5,1.1-1.1,1.6-1.6c0.6-0.6,0.4-1.7-0.1-2.4
				c-2.6-3.3-4.3-7.1-6.5-10.6c7.8,1.9,16,3.1,23.7,4.6C298.1,258.3,309.9,261,321.7,262.3z M318,259.5c0.6-2.3,1.7-4.3,3.2-6.1
				c-0.6,1.5-0.6,3.1-0.8,4.7c-0.2,0.6-0.4,1.2-0.5,1.8C319.3,259.8,318.7,259.7,318,259.5z M334.7,263.6c-0.3-1.2-1.2-2-2.3-2.4
				c0,0,0-0.1,0-0.1c-0.1-0.1-0.2-0.2-0.3-0.3c0.6-0.2,1.3-0.3,2-0.2c2.7,0.1,2.8,3.5,1.6,5.3c-0.3,0.5-0.8,0.8-1.3,1.1
				c-0.3-0.1-0.6,0-0.8,0.1C334.5,266.2,335,264.8,334.7,263.6z M332.3,261.4c0.7,0.4,1.4,1,1.7,1.8c0.6,1.4,0,3.2-1.5,3.6
				c0-0.7-0.1-1.2-0.4-1.9c-0.1-0.3-0.6-0.1-0.5,0.2c0.2,0.7,0.3,1.3,0.2,2c0,0,0,0,0,0.1c-0.6-0.1-1.1-0.3-1.6-0.7
				c-1-0.7-1.6-1.7-1.7-2.8c0-0.6,0.1-1.1,0.4-1.6c0.8-0.4,1.5-0.8,2.3-1.1c0.1,0,0.2,0.1,0.2,0.1c0.2,0.1,0.3,0.2,0.5,0.3
				C332.1,261.4,332.2,261.4,332.3,261.4z M351.1,288.9c0.9,5.1,4.3,9.4,6.8,13.8c3.3,5.8,6.2,12,7.3,18.7
				c1.1,6.7,0.6,13.6-0.7,20.4c-0.4-3.6-1.4-7.1-2.5-10.5c-2.4-7.3-5.1-14.6-7.8-21.8c-2.7-7.4-5.3-14.8-8-22.2
				c-1.5-4.1-3.8-9.4-1.4-13.6c2-3.5,6.9-4.7,10.5-5.5c0.4-0.1,0.7-0.3,0.8-0.6c0.7-0.2,1.3-0.4,2-0.5c1.6-0.4,3.2-0.7,4.8-1
				C356.6,271.9,349.5,279.7,351.1,288.9z M300.6,364.5c1.9,0.6,4.8,1.7,7.3,2.3c-0.1,0-0.1,0-0.2,0c-2.7,0.1-5.4,0.2-8.1,0.1
				c-3.4-0.2-6.8-0.7-10-1.7c0.6-1.5,1.2-3,1.8-4.6C294.4,362.2,297.4,363.5,300.6,364.5z M291.8,359.7c6.6,0.1,13.1,0.7,19.7,1.7
				c0,0,0.1,0,0.1,0c-0.4,1.5-0.8,3-1.1,4.6C304,364.4,297.8,362.5,291.8,359.7z M310.2,367.5c-0.2,1.4-0.4,2.7-0.5,4.1
				c-7.1-0.9-14.2-2.1-21.2-3.5c0.3-0.8,0.6-1.6,0.9-2.4C296.1,367.9,303.2,367.9,310.2,367.5z M307.7,375.9c-0.2,0.5-0.3,1-0.3,1.6
				c-4.3,0.3-8.4-0.1-12.2-2.7c0.1-0.4,0.2-0.8,0.2-1.3C299.5,374.5,303.6,375.2,307.7,375.9z M295,375.4c3.6,2.7,7.9,3.5,12.3,3.3
				c0,0.1,0,0.2,0,0.3c-4.1,1.8-8.5,1.7-12.5-0.3c0,0,0.1-0.1,0.1-0.1c0.3-0.2,0.2-0.6-0.1-0.7c-0.1-0.1-0.3-0.1-0.4-0.2
				C294.7,376.9,294.9,376.2,295,375.4z M309.4,381.5c0.2-0.1,0.3-0.2,0.4-0.3c0.4,0.4,0.8,0.7,1.3,1c-1.2,0.5-2.5,1-3.1,1.1
				c-2.1,0.4-4.2,0.5-6.3,0.4c-1.6,0-3.2-0.2-4.8-0.5c-1.6-0.3-3.1-0.6-4.6-1.1c-0.7,0-1.2-0.1-1.5-0.5c0.3-0.5,0.5-0.9,0.9-1.3
				C297.1,384,303.7,384.4,309.4,381.5z M265.5,262.6c-1.7,1.4-3.5,2.6-5.4,3.8c2-1.5,3.8-3.1,4.9-4.9
				C265.2,261.8,265.4,262.2,265.5,262.6z M235.2,294.7c-0.3,0.2-0.1,0.6,0.2,0.5c9.2-3.3,17.4-8.8,24-16.1c1.6-1.8,3.1-3.7,4.5-5.7
				c0.6-0.8,1.3-2.5,2-3.4c-0.7,0.8-1,2.1-1.4,3.1c-2.7,6.5-5.9,12.9-9.4,19c-0.2,0.3,0.1,0.6,0.4,0.4c6.8-5.2,11.4-12.4,15.8-19.6
				c0.2-0.4-0.3-0.8-0.6-0.4c-1.1,1.8-13.1,19.9-14.3,18.4c-0.2-0.3,4.6-8.9,4.9-9.5c1.8-3.8,3.5-7.7,5-11.6
				c12.7,3.9,25.4,7.7,38,11.9c6.4,2.1,12.9,4.3,19.2,6.6c3.5,1.2,7,2.4,10.5,3.7c2.2,0.8,2.8,0.7,3.9,3.1c1.2,2.6,0.3,3.7-0.7,6.3
				c-4.8,12.7-10.2,25.1-16.3,37.2c-3.6,7.1-7,14.4-9.2,22.1c0,0-0.1-0.1-0.2-0.1c-6.4-1.2-12.9-1.8-19.4-1.9
				c7.2-17.4,16.1-33.9,24.8-50.7c4.4,1.5,8.9,1.2,13.3-1c0.5-0.2,0.1-1-0.4-0.8c-3.9,1.9-8.4,2.6-12.6,1c0.1-0.2,0.2-0.4,0.3-0.5
				c1.4-0.1,2.8-0.1,4.3-0.4c5.2-0.8,10-2.9,14.4-5.8c0.4-0.3,0-0.9-0.5-0.7c-2.2,0.9-4.5,1.7-6.8,2.3c3-1.3,6-2.9,8.8-5
				c0.7-0.5,0-1.4-0.7-1.1c-7.9,2.5-15.8,4.9-23.7,7.2c0,0,0,0,0,0c-2.1,0.1-4.3,0.1-6.4,0.1c-10.8-0.3-21.6-1.3-32.3-2
				c-17.1-1.2-36.8-0.5-51.3-10.6c10.4-0.8,20.2-4.9,28.1-11.4C246.7,285.2,242.1,291.1,235.2,294.7z M316.1,303
				c2.3-0.9,9.3-2.5,10.3-2.7c2.1-0.6,4.3-1.2,6.4-1.7C327.6,301.2,321.9,302.5,316.1,303z M323.9,304c2.7-0.3,5.4-0.9,8-1.7
				c-1.4,0.6-2.7,1.3-4.2,1.8c-3.2,1.1-6.5,1.7-9.8,1.8c0-0.2-0.1-0.3-0.2-0.5C319.8,305,321.8,304.6,323.9,304z M276.3,304.9
				c1.2,0.1,2.3,0.2,3.5,0.3c0,2.2-0.6,4.3-1.9,6.1c0,0,0,0,0,0C277.6,309.1,277,307,276.3,304.9z M277.1,311.5c-0.1,0-0.2,0-0.3,0
				c-0.7-0.1-1.3-0.2-2-0.3c0.6-1.5,0.8-3.9,0.8-5.7C276.3,307.4,276.8,309.4,277.1,311.5z M280.4,305.3c1.2,0.1,2.4,0.2,3.6,0.3
				c-0.1,2.2-1.6,4.1-3.6,5c-0.5,0.2-0.9,0.4-1.4,0.5C280,309.3,280.5,307.3,280.4,305.3z M274.7,304.8c0,1.1,0,2.2-0.2,3.3
				c-0.1,0.6-0.2,2.2-0.7,2.9c-0.4-0.1-0.8-0.1-1.1-0.2c0-0.1,0-0.2-0.1-0.3c-0.6-2.2-0.6-3.9-1.6-6c1.1,0.1,2.1,0.1,3.1,0.2
				C274.4,304.8,274.6,304.8,274.7,304.8z M271.7,310.7c-0.7-0.1-1.3-0.2-2-0.3c0.5-1.4,0.8-2.9,1-4.3
				C271.4,307.6,271.7,309.1,271.7,310.7z M277.5,314.9c0,5.5,0.2,10.9-4.7,14.7c-1.7,1.4-3.6,2.5-5.5,3.6
				c4.4-5.7,5.2-13.1,2.3-19.6C272.2,314,274.8,314.4,277.5,314.9z M274.5,332.9c6.4-4.6,7.5-12.7,5.2-19.8c3.8-1,7.1-3.4,7.3-7.3
				c8.9,0.7,18.1,1.2,26.8,0.2c-0.2,0.2-0.3,0.5,0,0.7c0.1,0,0.2,0.1,0.2,0.1c-12.8,19-21.9,40.9-30.1,62.1
				c-0.3,0.9,0.1,2.2,1.1,2.5c2.6,0.6,5.3,1.2,7.9,1.8c-0.5,1-0.9,2.1-1.2,3.2c-0.4-0.1-0.8-0.1-1.2,0c-1.6,0.3-2.3,2.1-2.9,3.3
				c-0.4,0.7-0.7,1.5-1.1,2.3c-9.8-0.3-18.7-0.5-27.6-5c-0.2-0.1-0.4-0.2-0.6-0.2c-3.9-7.1-5.4-15.7-2.9-23.6
				C258.8,343,266.5,338.6,274.5,332.9z M285.5,384.6c-1.3,3.3-2.4,6.8-3.1,10.4c-0.6,0-1.1,0-1.7-0.1c-0.1,0-0.1,0-0.2,0
				c-2.1-0.8-4.1-1.7-6-3c-4.3-2.8-8.6-5.6-12-9.6c-0.4-0.5-0.9-1-1.3-1.5C269.1,384,277,384.3,285.5,384.6z M289.7,384.3
				c0.3-0.7,0.6-1.5,0.9-2.2c4.3,1.8,8.8,2.7,13.5,2.6c1.9-0.1,6.1-0.1,8.9-1.2c2.6,1.4,5.6,2.3,7.8,3.1c4.1,1.4,13.6,1.6,15,6.4
				c-0.1,0.1-0.2,0.1-0.3,0.2c-0.3,0.2-0.4,0.5-0.4,0.8c-7.6,1.7-15.7,1.4-23.6,1.5c-8.4,0.1-16.8-0.1-25.2-0.3
				C287.3,391.4,288.3,387.8,289.7,384.3z M332.5,386.2c-2.1-0.4-4.2-0.8-6.2-1.3c6.8-0.1,13.8-1.7,19.2-4.7
				c4.4-2.5,8.2-6.4,11.3-11c-1.5,4.4-3.3,8.7-6.1,12.4c-2,2.7-4.5,5.1-7.3,7c-1.4,1-3,1.7-4.6,2.5
				C337.7,388.6,335.4,386.8,332.5,386.2z M357.7,375.1c5.1-12.2,8.6-25.8,10.5-38.9c1.8-12.6-1.2-23.9-7.5-34.8
				c-3.3-5.7-7.8-11.1-6.6-18.2c1.1-6.3,5.9-11.5,10.4-16c0.2,0.6,0.5,1.2,0.7,1.8c-5.6,5.9-11.2,13.5-7.8,21.9
				c2.2,5.5,6.2,10,8.5,15.5c2.5,6,3.8,12.4,4.3,18.9c1.1,14-2.2,28-6.9,41.1c-3.5,9.7-7.9,18.6-15.9,23.5
				C352.1,385.8,355.7,379.8,357.7,375.1z M377.5,262c-1.3,0.1-2.5,0.2-3.8,0.3c0-0.1,0.1-0.2,0.1-0.3c0,0,0-0.1,0-0.1
				c1.2,0,2.3-0.2,3.6-0.5C377.4,261.6,377.5,261.8,377.5,262z M376.2,242.5c0.3,5.9,0,12.4,1.1,18.3c-1.2,0.2-2.3,0.3-3.5,0.4
				c-0.5-6.2-0.7-12.4-0.7-18.6C374.1,242.5,375.1,242.5,376.2,242.5z M372.8,242.6c-0.2,6.2-0.2,12.4,0.1,18.6c-0.1,0-0.2,0-0.4,0
				c-0.3-6.2-1.1-12.4-1.2-18.6C371.8,242.6,372.3,242.6,372.8,242.6z M353.4,245.4c2.7-1.1,5.8-1.3,8.4-2.4c0,4-0.2,8.2,1.2,11.8
				c0.3,0.9,1.8,0.9,2.1-0.1c1.1-3.8,0.5-8,0.2-12c1.3,0,2.7-0.2,3.8-0.2c0.7,0,1.3,0,2,0c-0.1,6.1-0.2,12.6,0.7,18.6
				c-3.1,0.1-6.1,0.1-9.2,1c-5,1.4-9.6,3.5-14.8,3.5c1.5-1.4,2.1-3.2,1.4-6c-0.6-2.7-2.3-5.2-3.7-7.6c-0.3-0.5-0.6-1-0.9-1.6
				C347.4,248.5,350.3,246.7,353.4,245.4z M325.6,252.5c-0.1,0.4,0.3,0.9,0.8,0.7c3.4-1.1,6.6-2.4,10.1-3.3c1.6-0.4,3.6-1.3,5.2-0.2
				c0.9,0.7,2.2,3.5,2.8,4.5c1.9,3.4,4.5,7.3,1.3,10.6c0.6-3-1.5-6.8-3.5-8.6c-0.1-0.1-0.2,0-0.1,0.1c1.3,1.4,2.2,3,2.6,4.9
				c0.3,1.6,0,3-0.1,4.6c-0.4,0.3-1,0.6-1.7,0.9c0.3-0.9,0.3-2,0.2-2.9c-0.1-1.7-0.8-3.2-1.9-4.4c-0.1-0.1-0.2,0-0.1,0.1
				c0.9,1.4,1.3,2.9,1.2,4.6c-0.1,1.3-0.9,2.2-1.1,3.3c-1.8,0.6-3.9,1-5.2,0.6c2.3-1.8,3.1-5.2,1.4-7.7c-2.4-3.5-8.4-1.8-10.2,1.4
				c-0.2,0.3,0,0.8,0.4,0.8c-0.2,0.5-0.3,1.1-0.2,1.7c0,0.1,0,0.3,0.1,0.4c-0.9-0.5-1.8-1-2.6-1.7c-0.9-0.8-1.6-1.8-2.1-2.9
				c0.1-0.2,0.2-0.5,0.2-0.7c0-0.3-0.2-0.5-0.4-0.5c-0.5,0-0.9,0.1-1.4,0.3c-0.5,0.2-0.7,0.7-0.5,1.2c-0.1,0-0.2-0.1-0.4-0.1
				c0.2-0.8,0.3-1.5,0.4-2.3c0.7-2,1.7-3.8,2.8-5.5C324.3,252.4,325,252.5,325.6,252.5z M323.6,252.2c-1.1,1.5-1.9,3.1-2.6,4.7
				c0.2-1.8,0.5-3.6,1.7-4.9C323,252.1,323.3,252.2,323.6,252.2z M268.3,232.1c0.1,0.1,0.2,0.1,0.3,0.2c-2.2,0.6-4.3,1.8-6,3.5
				c-0.1,0.1,0,0.2,0.1,0.1c1.8-1.6,3.9-2.7,6.1-3.4c0.1,0.1,0.2,0.2,0.3,0.2c-1.2,0.4-2.4,1-3.5,1.7c-0.9,0.6-1.6,1.3-2.4,2
				c-0.9,0.9-2.1,3.4-3.6,3.1c0,0-0.1,0.1,0,0.1c1.9,0.6,3.2-2.2,4.4-3.3c1.2-1.2,2.6-2.1,4.2-2.8c0.3-0.1,0.9-0.3,1.4-0.5
				c0,0,0,0,0,0c-0.2,0.1-0.4,0.3-0.4,0.3c-1.6,1.2-4.3,3.6-4.6,5.8c-0.1,0.8,0.2,1.6,1.2,1.2c0.1,0,0.1-0.2-0.1-0.2
				c-1.9,0.1,1.7-4.6,1.8-4.7c0.8-0.9,1.7-1.6,2.6-2.2c1.6,0.6,3.6,0.8,5,1.2c3.4,1.1,6.7,2.6,10,4.1c11.6,5.2,24.2,10.9,36.9,13.4
				c-2.2,2.1-3.8,4.6-4.5,7.5c-9.9-2.1-20-3.5-29.9-5.5c-10.8-2.2-21.9-5.6-32.9-6.7c0-0.1,0-0.3,0-0.4c-1.1-4.5-2.1-9.1-3.1-13.7
				c-0.7-3.1-1.9-6.5-2.4-9.8c5.7-1.9,11.2-3.9,16.7-6.2c0.2,3.3,0.7,6.6,1,9.9C267.2,228.7,267,230.9,268.3,232.1z M266.4,207.8
				c0.2,2,1.3,5-0.1,6.6c-1.2,1.4-5.8,2.4-7.7,3.1c-4.4,1.7-8.9,3.2-13.3,4.6c-2.3-6.4-3.9-13.2-4.3-20c-0.1-3.4,0.1-6.7,0.4-10.1
				c0.1-1.3,0.3-2.6,0.5-3.9c0.9-3.1,2.4-6,5-8.3c2.3-2.1,6.1-4.5,9.4-4.1c0.2,0,0.5,0.1,0.7,0.2c1.6,0.7,3,1.7,4.4,2.9
				c0,0.1,0,0.2,0.1,0.4c0.1,0.4,0.4,0.8,0.8,0.9c0.2,0.1,0.4,0.1,0.6,0.2c1.4,3.5,1.3,7.9,1.7,11.3
				C265.2,196.9,265.8,202.3,266.4,207.8z M244.9,222.1c-0.5,0.1-0.9,0.3-1.4,0.4c-0.9-4-1.6-8.1-2.1-12.2
				C242.4,214.6,243.6,218.6,244.9,222.1z M242.8,184.2c0.9-2.7,2.2-5.1,4.4-7c2.7-2.2,5.5-2.7,8.1-2.1c-0.6,0-1.3,0.1-2,0.2
				C248.9,176.5,244.9,180.2,242.8,184.2z M259.6,174.5c-1.3-1.3-2.7-2.6-4-4c-2.2-2.2-4.2-4.5-6.3-6.8c0.8,0.3,1.6,0.7,2.3,1.1
				c2.3,2,4.4,4.4,6.7,6.6c0.8,1.1,1.6,2.2,2.3,3.3c-0.1,0.1-0.2,0.1-0.3,0.2C260.1,174.9,259.9,174.7,259.6,174.5z M260.8,173.7
				c1,0.8,2.1,1.6,3.2,2.2c0,0.1-0.1,0.2-0.1,0.2c-0.2,0-0.5-0.1-0.7-0.1c-0.5-0.4-1-0.8-1.6-1.1
				C261.4,174.5,261.1,174.1,260.8,173.7z M264.1,163.9c-0.2-0.1-0.3-0.2-0.4-0.3c-2.4-1.5-4.7-3-7.1-4.5c-0.8-0.5-2.3-1.1-3.6-1.8
				c1.1-1.6,2.3-3.2,3.6-4.6c0.5-0.6,1.1-1.1,1.7-1.6c1.2,2.3,2.6,4.6,4.5,6.3c-0.5-0.3-1-0.6-1.5-0.8c-1.8-0.9-3.5-1.8-5.3-2.8
				c-0.4-0.2-0.6,0.4-0.3,0.6c2.2,1.7,4.6,3.5,7.2,4.4c0.2,0.1,0.4-0.2,0.2-0.4c-0.5-0.4-1-0.7-1.6-1l1.2,0.6
				c1.5,0.8,2.8,1.6,4.4,1.9C265.9,161,264.8,162.5,264.1,163.9z M268,159.2c-4.6-0.8-7.1-4.6-9.3-8.4c0.4-0.4,0.8-0.8,1.2-1.2
				c2.1,3.6,5,6.8,8.4,9.4C268.2,159,268.1,159.1,268,159.2z M301.8,137.6c2,2.5,4,2.9-0.5,5c-0.3,0.1-0.5,0.4-0.6,0.8
				c-0.1,2.4,0.3,3-2.1,3.5c-2.3,0.5-4.8-0.3-6.9-1.1c-0.8-0.3-1.6,0.6-1.2,1.3c0.9,2,1.9,3.8,3.4,5.4c2.3,2.5,4.8,2.5,4.4,6.8
				c-0.2,2-1.1,3.6-2.5,5c-1.8,1.7-3,1.5-5.3,1.4c-2.9-0.2-5.8-0.8-8.5-1.7c-10.8-3.6-17.3-11-22.7-20.3c1.5-0.1,2.9-0.8,3.7-2.2
				c0.3-0.5-0.2-1.3-0.8-0.9c-8.1,4.7-9.3-6.4-6.7-11.7c1.2-2.4,4.5-6.6,6.9-3.2c1.4,1.9,1.5,4.2,3.1,6c1.2,1.3,3.5,0.7,3.7-1.1
				c0-0.2,0-0.4,0-0.6c1.4-3,2.9-5.8,4.5-8.7c1-1.8,1.9-3.6,2.4-5.6c0.7-0.2,1.4-0.4,2.1-0.7c0,0,0,0,0,0c6.6,2.6,13.7,3.9,20.7,3.8
				c-0.7,4.7-1.2,9.6,0.4,14.2C299.9,134.7,300.7,136.3,301.8,137.6z M276.2,112c-6.2-0.3-12.7,2.2-18.9,2.8
				c-2.4,0.2-4.8,0.4-7.1,0.4c1.7-0.1,3.3-0.3,5-0.5c5.2-0.6,10.3-1.6,15.4-3c1.6-0.4,3.7-0.9,5.6-1.4
				C276.1,110.9,276.1,111.5,276.2,112z M278.8,113.1c0.9-0.6,1.8-1.3,2.7-1.9c0.5,0.2,1,0.4,1.5,0.5c-1.3,0.7-2.6,1.4-4,2
				C279,113.5,278.9,113.3,278.8,113.1z M322.2,105.1c1.8,0.1,3.6,0.3,5.3,0.4c-13.4,12.2-31.3,11.8-48.3,8.3c1.4-0.7,2.7-1.3,4.1-2
				c3.1,1,6.3,1.7,9.5,2.5c3.4,0.8,6.7,1.6,10.2,1.1C310,114.3,317.6,110.5,322.2,105.1z M321.2,105.1c-5,5.5-14.1,9.9-21.5,9.6
				c-3.7-0.1-7.3-1.4-10.9-2.2c-1.6-0.4-3.3-0.7-4.9-1.1c5.6-3,10.9-6.3,16-10.1C306.7,103.4,314,104.5,321.2,105.1z M299.7,101.1
				c-5.1,3.8-10.4,7.2-16,10.2c-0.6-0.1-1.1-0.3-1.7-0.5c2.5-1.8,5-3.5,7.6-5.1c1.9-1.2,3.9-2.3,5.9-3.3c0.7-0.3,1.2-0.6,1.7-0.9
				c-0.3,0.2-0.6,0.4-1,0.7c-0.1,0.1,0,0.3,0.1,0.2c1.1-0.6,2.1-1.2,3.2-1.8C299.4,100.9,299.5,101,299.7,101.1z M262.3,75.2
				c7.5,3,16.4,2,24.1,4.3c4.4,1.3,6,6.4,7.9,10.3c1.6,3.4,2.9,6.9,4.9,10.1c0,0,0,0,0,0.1c-6.5,2.6-12.4,6.4-18,10.5
				c-0.3-0.1-0.7-0.2-1-0.3c-0.2-0.1-0.3,0.2-0.1,0.3c0.3,0.1,0.5,0.2,0.8,0.3c-0.8,0.6-1.6,1.2-2.3,1.8c-0.2-0.2-0.6-0.3-0.9-0.3
				c0-0.1-0.1-0.2-0.2-0.2c-0.2,0-0.3,0-0.5,0c-0.1-0.6-0.1-1.2-0.1-1.9c2-0.6,3.9-1.4,5.2-2.5c0.1-0.1,0.2-0.3,0-0.4
				c-0.1-0.1-0.1-0.2-0.2-0.2c-0.1-0.1-0.2-0.1-0.3-0.1c-0.1,0-0.1,0.1-0.2,0.1c-0.2,0.1-0.1,0.4,0.1,0.4c-1.5,0.3-3,0.8-4.6,1.3
				c0.1-1.4,0.2-2.7,0.2-3.6c0-1.9-0.1-3.7-0.4-5.6c-0.3-1.7-0.7-3.4-1.3-4.9c-2.6-7.3-7.9-13.9-14.1-18.6
				C261.6,75.8,262,75.5,262.3,75.2z M255.5,73.2c0.1-0.1,0.2-0.1,0.3-0.2c0.1,0.1,0.2,0.3,0.4,0.4c0.9,0.6,1.8-0.3,2.6-0.6
				c0.5-0.3,1.1-0.3,1.6-0.1c0.2,0.8-0.1,1.3-0.8,1.6c-0.2,0.1-0.3,0.1-0.5,0.2c-0.1-0.1-0.2-0.1-0.3-0.2c0,0,0,0,0,0
				c0.1,0.1,0.1,0.1,0.2,0.2c-0.4,0.2-0.8,0.3-1.2,0.4c-0.4,0.1-1.2,0-2-0.1c0-0.2-0.2-0.4-0.6-0.4c-0.1,0-0.2,0-0.2,0
				c0-0.1,0-0.2,0-0.2C255.1,73.9,255.3,73.5,255.5,73.2z M259.5,76.9c0.5-0.2,1-0.4,1.4-0.6c4.8,4.2,8.5,8.9,11.6,14.3c0,0,0,0,0,0
				c3.3,5.5,3.9,10.8,3.9,17.1c0,0.4-0.1,0.9-0.1,1.4c-2.3,0.9-4.6,1.9-6.7,2.5c-3.6,1-7.4,1.8-11.1,2.3c-3.4,0.5-6.9,0.9-10.4,1
				c-1.2,0.1-2.9,0.2-4.7,0.3c-1.3-0.1-2.6-0.2-3.9-0.3c-1.1-5.2,1.1-19.7,1.8-24.9c0.1,0.4,0.3,0.7,0.6,1c0.2,0.1,0.4-0.1,0.3-0.2
				c-0.7-0.7,0.4-3.1,0.8-3.9c0.4-0.6,0.9-1.1,1.3-1.7c1.2-1.5,2.5-2.9,3.9-4.2c1.8-1.6,3.7-3.1,5.7-4.4
				C255.5,77.5,257.8,77.4,259.5,76.9z M245.3,115.7c-1.9,0-3.8,0-5.6,0c0-0.1-0.1-0.2-0.1-0.3c0.2,0,0.4,0,0.7,0.1
				c0.7,0.1,1.4,0.1,2.1,0.1C243.3,115.6,244.3,115.6,245.3,115.7z M237.9,91c2.4-8.3,9.3-10.7,15.9-14.5c0,0,0,0,0.1,0
				c-3.3,2.2-6.4,4.7-9.1,7.7c-0.8,0.9-2.6,2.5-3.2,4.1c0-0.1-0.1-0.1-0.1,0c-1.1,6.8-1.8,13.5-2.3,20.4c-0.1,1.2-0.7,4.1-0.4,6.1
				c-0.2,0-0.4,0-0.6-0.1c-1.4-0.4-2.6-1-3.4-2.1c0,0,0,0,0,0C234.9,105.3,235.9,98,237.9,91z M234.7,113c0.5,0.8,1.2,1.3,1.9,1.6
				c-0.6-0.1-1.3-0.2-1.9-0.3C234.7,113.9,234.7,113.4,234.7,113z M234.7,115.5c0-0.3,0-0.7,0-1c0.9,0.2,1.8,0.3,2.8,0.4
				c0.4,0.1,0.9,0.2,1.3,0.3c0,0.1,0.1,0.3,0.1,0.4C237.5,115.6,236.1,115.5,234.7,115.5z M247.3,147.9c-2.2-2.6-3.9-5.7-5.2-8.8
				c-1.4-3.1-2.5-6.3-3.5-9.5c-0.6-2-1.1-3.9-1.4-5.9c-0.1-0.9-0.8-3.4-1-5c6.6,0.4,13.1,0.4,19.7-0.1c6-0.4,12.4-0.9,18.4-2.4
				c-1.3,3.7-4,6.9-5.3,10.5c-0.8-3.4-2.9-6.8-6.4-6.7c-4.5,0.2-8.1,5.6-9.3,9.5c-1.2,3.7-1.4,9.2,1.4,12.3c0.7,0.8,1.7,1.4,2.8,1.6
				c0.4,1.5,1,2.9,1.7,4.3c-1.5,0.7-2.8,2.1-4,3.2c-0.6,0.6-1.2,1.2-1.8,1.9C251.1,151.3,249,150,247.3,147.9z M250.1,157.7
				c0.8,0.8,1.8,1.3,2.7,2c2.8,2,5.7,3.8,8.5,5.7c2,1.3,5.7,2.7,5.6,5.1c-0.1,0.8-1.1,2.4-2.1,4.1c-1.7-1.7-3.7-3.1-5.4-4.8
				c-2.4-2.2-4.6-4.6-7-6.6c-0.6-0.5-3-1.7-3.3-2.4c-0.1-0.3-0.2-0.5-0.2-0.8c0.1-0.1,0-0.2,0-0.3
				C248.9,158.7,249.7,158.3,250.1,157.7z M246.8,160.8c0.1,0.3,0.3,0.5,0.5,0.7c0,0-0.1,0-0.1,0c0.2,0.2,0.4,0.4,0.5,0.6
				c-0.6-0.3-1.2-0.6-1.9-1C246.2,161.1,246.5,161,246.8,160.8z M210.9,285.3c-6.2-24.4-3.4-49.9,3.1-74c4.8-17.7,13.5-40.5,31-49.6
				c1.2,0.9,2.6,1.4,4,2c2.9,3.4,5.9,6.8,9,10c-1.8-0.8-3.7-1.2-5.6-1.1c-4.5,0.3-8.1,3.4-10.3,7.2c-3.5,6.1-3.6,14-3.6,20.9
				c0,2.2,0.1,4.3,0.2,6.5c-3.4-7-7.1-16.7-4-23.9c0-0.1-0.1-0.1-0.1,0c-2.2,5.8-0.7,11.8,1.2,17.5c0.6,1.8,1.3,3.5,2,5.2
				c0.3,0.8,0.5,1.2,0.6,1.4c-0.2-0.4-0.7-1.6-1.1-2.2c-2.2-3.6-4.3-7.3-6.4-11.1c-0.1-0.2-0.3-0.2-0.5,0c-1.7,2.3,0.2,6.2,1.2,8.5
				c1.7,3.9,4.2,7.2,7.4,10.1c0.1,0,0.1,0.1,0.2,0.1c0.3,2,0.6,4,0.9,6c0,0,0,0,0,0c-6.8,5.8-14.6,9-22.7,3.4c0,0,0,0,0,0
				c4.4,3.2,9.8,4.2,14.9,2.2c1.6-0.6,6.4-4.4,7.5-3.8c-0.2-0.1-6.4,3.7-7.2,4.1c-2,1-4.1,1.8-6.2,2.6c-0.2,0.1-0.2,0.4,0,0.5
				c4.3,2.6,10.9-1.9,14.6-5.6c0.2,0.7,0.3,1.4,0.5,2.2c0.1,0.6,0.7,1.3,1.4,1c1.6-0.5,3.2-1,4.9-1.5c-0.1,2,0.8,4.6,1.1,6
				c1,5.8,2.2,11.6,3.6,17.4c0.1,0.4,0.3,0.6,0.6,0.8c0,0.2,0.2,0.4,0.4,0.5c2.1,0.8,4.4,1.5,6.6,2.1c1.2,3,2.8,5.9,4.3,8.8
				c-17,8.6-34,18.7-52.9,22.2c0,0,0,0,0,0c16.2-1.8,30.7-10.1,45-17.3c1.9-0.9,3.7-1.9,5.6-2.8c0.8-0.4,1.6-0.8,2.4-1.2
				c-0.2,1.1-0.8,2-1.8,2.5c-2.7,2.8-6.9,5.2-10.3,7.2c-7.3,4.3-15.2,7.1-23.3,9.5c-0.2,0-0.1,0.3,0,0.3c-1.9,0.6-3.8,1.2-5.8,1.8
				C219.5,282.7,214.2,283.1,210.9,285.3z M240.7,221.3c-0.9,0.9-4.1,3.8-4.6,4.1c-1.4,0.8-3.4,1.8-5,2c-1,0.4-1.9,0.4-2.9-0.1
				c0.8-0.3,1.6-0.6,2.3-1c1.8-0.8,3.5-1.7,5.2-2.6c0.7-0.4,3.7-1.6,4.8-3c0,0.1,0,0.1,0,0.2c0,0,0,0.1,0,0.1
				C240.6,221,240.7,221.1,240.7,221.3z M239.1,211.6c-2.4-2.1-4.4-4.4-6-7.3c-0.4-0.7-3.7-8.7-1.9-8.5c0.8,0.1,3.3,5.8,3.8,6.7
				c1.2,2,2.4,4,3.7,5.9C238.9,209.5,239,210.5,239.1,211.6z M219.7,287.8c2.1-0.5,4.1-1.1,5.7-1.5c5.7-1.4,11.2-3.3,16.7-5.5
				c4.2-1.7,8.5-3.4,12.6-5.5c-0.6,0.8-1.2,1.5-1.8,2.3c-0.5,0.5-1.1,1-1.7,1.4c-8,6.6-17.9,10.5-28.2,11.4
				C221.8,289.5,220.7,288.7,219.7,287.8z M230.9,305.5c-5.4-1.4-11.5-4.7-8.3-10.9c0.1,0,0.1,0,0.2,0c12.6,9.3,32,9.2,47.2,9.9
				c-0.2,2.1-0.7,3.9-1.4,5.7c-8.7-1.2-17.5-1.8-26.3-1.8C238.5,307.5,234.7,306.5,230.9,305.5z M81,219c5.3-9.3,14-11.7,24-12.4
				c21.2-1.5,42.5-1.9,63.7-1.6c5.1,0.1,10.2,0.2,15.2,0.3c3.7,0.1,8.6-0.3,11.2,2.3c-23.4-2.4-47-2.2-70.4,0.7
				c-11.4,1.4-23.2,3.1-34.3,6.4c-3.6,1.1-7.1,2.6-9.9,4.9C80.8,219.4,80.9,219.2,81,219z M118.6,311.3c-8.2-0.5-16.5-0.3-24.7,0.1
				c-4.3,0.2-8.5,0.6-12.8,1c-1.9,0.2-4.1,0.3-6.2,0.5c-1.5-21.3-1.6-42.7,0-64c0.7-9.3,1-19.5,5.1-28c5.5-4.9,14.4-6.5,21.4-8
				c10.2-2.1,20.5-3.7,30.8-4.7c21.2-2.1,42.5-2,63.6,0.2c0.4,0.6,0.7,1.3,0.9,2.2c1,4.7,0.5,10,0.6,14.7c0,5.3,0,10.6-0.1,15.9
				c-0.1,11.4-0.4,22.8-0.1,34.3c0.2,5.6,0.4,11.2,0.9,16.7c0.4,4.5,3.2,16-2.3,18.2c-7.5-0.1-15.1,0-22.6-0.1
				c-9.5-0.1-19-0.1-28.5-0.2c-8.4,0-17.5-1-25.7,1.1C118.8,311.2,118.7,311.3,118.6,311.3z M123.4,316c-0.5-0.1-1-0.2-1.4-0.3
				c-0.2-0.2-0.4-0.5-0.5-0.8c-0.2-0.7-0.2-1.4,0.2-2c0.8,0,1.5,0,2.3,0C123.5,313.8,123.3,314.9,123.4,316z M124.3,316.1
				c-0.1-0.3-0.1-0.5-0.1-0.8c0-0.9,0.1-1.7,0.5-2.5c11.6,0,23.3-0.1,34.9,0c6.7,0.1,13.3,0.1,20,0.2c3.5,0,7,0,10.5,0.1
				c1.3,0,2.7,0,4,0c0.9,0.1,1.7,0.1,2.5-0.1c1.4-0.1,3.1-0.3,3.9,0.2c1.4-0.3,1.7,0.4,0.8,2.2c-0.4,0-0.8,0.1-1.2,0.1
				c-1.2,0.5-5.1,0.1-6.6,0.1c-3.2,0-6.4,0.1-9.6,0.1c-7,0.1-14.1,0.1-21.1,0.2c-7,0.1-14.1,0.1-21.1,0.2
				C139.6,316.1,130.4,316.9,124.3,316.1z M158.1,328.7c0.2-0.1,0.3-0.1,0.5,0c0.6,0.3,1,0.6,1,0.8c0.1,0.8-1.1,1.4-2.1,1.7
				c0.3-0.3,0.5-0.7,0.6-1.2C158.3,329.5,158.2,329.1,158.1,328.7z M158.2,325.4C158.2,325.4,158.1,325.4,158.2,325.4
				c-1.6-0.7-3.3-1.4-4.4-2c-0.4-0.2-5.6-2.9-9.3-4.7c4.1,0,8.1-0.1,12.2-0.1c6.7-0.1,13.3-0.1,20-0.2c-2.6,0.7-5.3,1.6-7.8,2.5
				C166.2,321.8,160.4,322.9,158.2,325.4z M144.1,325.3c-3-1.4-5.9-3-8.8-4.6c-1.1-0.6-2.1-1.2-3.1-1.8c2.9,0,5.8-0.1,8.7-0.1
				c1.8,2.1,6,3.5,7.8,4.6c2.4,1.4,4.8,2.7,7.2,4.1c0.1,0.1,0.5,0.2,0.9,0.4c-0.9,0.5-1.6,1.5-1.6,2.6
				C151.7,328.5,147.7,327,144.1,325.3z M126.1,337.7c3.4-0.3,7.7-0.1,11.4-0.8c-2.3,2.1-4.3,4.4-6.2,6.4
				c-4.9,5.3-9.2,11.1-13.1,17.2c-1.3,2.1-2.5,4.2-3.7,6.3l2.9-9.5c1.1-3.5,2.2-7.1,3.2-10.6c0.8-2.7,2-5.6,2.4-8.4
				C123.8,337.9,124.7,337.8,126.1,337.7z M117.7,348.7c1-2.4,2.1-4.8,3-7.3c0.5-1.3,0.9-2.1,1.5-2.6c-1.9,5.4-3.4,10.9-5.1,16.3
				c-1.6,5.2-3.4,10.4-4.7,15.7c-0.7,1.4-1.4,2.7-2.1,4.1c0.6-3.5,0.9-7.2,1.8-10.5C113.6,359.1,115.6,353.8,117.7,348.7z
				 M110.7,351.1c0.7-2.5,1.3-6.6,3.4-8.1c0.9-0.6,1.8-0.8,2.7-0.9c-0.1,0.2-0.1,0.4-0.2,0.6c-1.9,6.8-4.3,13.4-6.1,20.2
				c-0.6,2.2-1.3,4.7-1.9,7.3C106.2,370.3,110.3,352.3,110.7,351.1z M186,406.1c1.5,0,2.9,0,4.4,0c0.8,4.2,2,7.9,1.7,12.3
				c-0.2,2.2-0.6,4.3-1.2,6.4c-0.9-0.1-1.9-0.1-2.8-0.4c-0.8-0.2-1.5-0.6-2.2-1c1-3.1,1.2-6.5,1.3-9.8
				C187.1,411.2,187.5,408.2,186,406.1z M191.5,406.1c0.2,0,0.5,0,0.7,0c0.1,0.3,0.2,0.6,0.3,1c-0.1,0.1-0.3,0.2-0.4,0.3
				C191.9,407,191.7,406.6,191.5,406.1z M190.6,425.8c-0.4,1.2-0.9,2.3-1.4,3.4c-0.2,0.3-0.4,0.6-0.7,1c-0.1,0.1-0.1,0.3,0,0.4
				c-0.3,0.5-0.6,1-1,1.5c-4.6,6.8-12.4,11.2-20.5,11.9c-0.2-1-0.5-2-0.6-2.9c-0.2-1.2-0.3-2.4-0.4-3.7c6.4-0.5,13.1-3.4,17.1-8.5
				c1.2,1.2,2.7,2.3,4.2,2.5c0.2,0,0.3-0.3,0.1-0.4c-0.9-0.6-1.9-0.9-2.8-1.5c-0.5-0.3-0.9-0.7-1.3-1c0.4-0.6,0.8-1.2,1.2-1.8
				c0.5-0.8,0.8-1.7,1.2-2.6C187.1,425,188.9,425.8,190.6,425.8z M166.2,444c-0.8,0-1.5,0.1-2.3,0c0,0,0,0,0,0
				c0.2-2.2,0.2-4.4,0.4-6.6c0.4,0,0.8,0,1.2-0.1c0,1.1,0.1,2.3,0.2,3.4C165.9,441.8,166,443,166.2,444z M185.4,417.5
				c-0.1,1.7-0.4,3.4-0.9,5.1c-0.1-0.1-0.3-0.2-0.4-0.3c-0.3-0.2-0.6,0.2-0.3,0.4c0.2,0.1,0.3,0.3,0.5,0.4c-0.5,1.4-1.1,2.8-1.9,4
				c0,0.1-0.1,0.1-0.1,0.2c0,0-0.1-0.1-0.1-0.1c-0.2-0.2-0.4,0-0.3,0.2c0.1,0.1,0.1,0.1,0.2,0.2c-3.9,5.2-11,8-17.5,8.2
				c-0.1-0.2-0.3-0.2-0.4,0c-0.7,0-1.5,0-2.2-0.1c-6.4-0.5-12.4-3.8-16.1-9.1c-1.3-1.8-2.3-4-3-6.4c0.1-0.1,0.1-0.3-0.1-0.4
				c-1.3-4.9-1.1-10.5,1.9-14.2c13.1,0.1,26.1,0.3,39.2,0.4c0,0.1,0.1,0.1,0.2,0.2C186.8,408.3,185.6,414.5,185.4,417.5z M141.4,420
				c-2.1,0.3-4.5,1.1-5.7,2.7c-0.1,0.2,0.1,0.4,0.3,0.3c1.1-0.5,2-1.2,3-1.7c0.8-0.4,1.7-0.6,2.5-0.8c0.5,2,1.2,3.8,2,5.2
				c4,7.2,11.7,11.5,19.9,11.7c0.2,0,0.3,0,0.5,0c-0.3,2.2-0.6,4.4-0.3,6.6c-12.6-0.6-27.2-12.6-29.6-25.8c0.2-0.1,0.3-0.1,0.5-0.2
				c0.1,0,0.1-0.2,0-0.2c-0.2,0-0.4-0.1-0.6-0.1c-0.2-1.1-0.2-2.2-0.2-3.4c0.5,0,1.1-0.1,1.6-0.1c0.9,0,1-1.2,0.1-1.4
				c-0.6-0.1-1.1-0.2-1.7-0.3c0.1-0.7,0.2-1.4,0.4-2.1c0.3-0.2,0.4-0.7,0.3-1.1c0.4-1.3,0.9-2.5,1.6-3.8c2.6,0,5.1,0.1,7.7,0.1
				C140.3,409,140.2,415,141.4,420z M133.5,407.6c-2.6-1.8-6.2-2.1-9.5-1.8c0-0.1,0-0.2,0-0.2c3.5,0,7.1,0.1,10.6,0.1
				C134.2,406.2,133.8,406.9,133.5,407.6z M132.2,412.3c-2-0.4-4-0.8-5.9-1.4c2-0.1,4.1-0.2,6.1-0.2
				C132.4,411.2,132.3,411.8,132.2,412.3z M132.5,417.5c-2.7-0.5-5.5-1.1-8.2-1.7c2.6-0.6,5.2-1.1,7.9-1.3
				C132.2,415.4,132.3,416.4,132.5,417.5z M128.7,407.5c1.5,0.2,3,0.6,4.5,0.8c0,0.1-0.1,0.2-0.1,0.3
				C131.6,408.3,130.1,407.9,128.7,407.5z M127.6,409.1c-1.4,0.1-2.7,0.1-4.1,0.1c0.1-0.3,0.1-0.6,0.2-0.8
				C125,408.6,126.3,408.9,127.6,409.1z M129.8,413.5c-2.3,0.3-4.6,0.8-6.9,1.4c0-0.6,0-1.1,0-1.7c0-0.5,0.1-1,0.2-1.5
				C125.2,412.5,127.5,413.1,129.8,413.5z M205.4,420c-0.8-0.2-1.6-0.5-2.4-0.7c-1-0.3-2.2-0.5-3.2-0.9c-0.4-0.1-0.8-0.3-1.3-0.4
				c-1.8-1.1-2.1-1.6-0.8-1.5c1-0.6,3.4-0.1,4.5-0.3c1.2-0.1,2.4-0.3,3.6-0.5C205.8,417.1,205.7,418.5,205.4,420z M196,415.6
				c-0.2,0-0.5,0.2-0.5,0.5c0.8,3.2,6,3.5,8.5,4.3c0.1,0,0.6,0.2,1.2,0.3c0,0.1,0,0.2-0.1,0.3c-0.5,0-0.9,0-1,0
				c-2.8-0.1-5.5-0.5-8.3-0.9c-0.3-0.1-0.5,0.4-0.3,0.6c0.9,1.1,1.8,1.4,3.2,1.4c0.2,0,0.2-0.2,0-0.3c-0.6-0.3-1.1-0.5-1.7-0.8
				c0.6,0.1,1.3,0.2,1.9,0.3c1.1,0.1,2.1,0.2,3.2,0.3c1,0.1,1.9,0.1,2.9,0.1c-1.4,6.3-4.5,12.3-8.3,17.1c-7.9,10-20.1,15.4-32.8,15
				c-12.2-0.4-24.3-5.7-32.1-15.2c-3.9-4.8-6.7-10.4-8.2-16.4c-0.5-1.9-0.7-3.8-0.9-5.7c2.5,0.3,7.6,0.8,9.6,1.2
				c0,0.2,0.1,0.4,0.1,0.6c-2,0.8-7.9,3.1-8.6,3.5c-0.3,0.2-0.1,0.6,0.2,0.5c2.8-1.1,5.6-2.4,8.4-3.5c0.8,3.8,2.4,7.4,4,10.2
				c5.4,9.2,15.5,16.3,26.4,16.7c9.7,0.4,19.5-4.3,25.1-12.2c1.6-2.2,2.9-4.9,3.9-7.9c0,0,0,0,0,0c0.1,0,0.2-0.2,0.1-0.3
				c0,0,0,0,0-0.1c1.7-3.8,2.3-8,2-12.1c3.8,1.4,7.9,0.5,11.7,1.4c0,0.1,0,0.2,0,0.3C202.6,415.4,199.4,415.7,196,415.6z
				 M203.5,409.7c-2.7,0-5.7-0.2-7.7-1.3c3.2,0,6.3-0.3,9.4-0.8c0.2,0.6,0.3,1.3,0.4,2C204.9,409.7,204.2,409.7,203.5,409.7z
				 M205.8,411.4c0.1,0.6,0.1,1.2,0.1,1.8c-2.9-0.7-5.9-0.5-8.9-1c2-0.4,4.1-0.6,6.2-0.7C204.1,411.5,205,411.4,205.8,411.4z
				 M193.5,408.7c0.8,0.8,1.9,1.4,3.1,1.8c-0.9,0.2-1.7,0.3-2.6,0.5C193.8,410.3,193.7,409.5,193.5,408.7z M197.9,406.9
				c-1.4,0-2.9,0-4.3,0c-0.1,0-0.3,0-0.4,0.1c-0.1-0.1-0.2-0.1-0.3,0c-0.1-0.2-0.2-0.5-0.3-0.7c3.6,0,7.1,0,10.7,0.1
				C201.5,406.4,199.7,406.6,197.9,406.9z M193.4,411.3C193.4,411.3,193.4,411.3,193.4,411.3c-0.3-0.9-0.5-1.8-0.8-2.7
				c0.1,0,0.2,0,0.3,0C193.1,409.5,193.3,410.4,193.4,411.3z M173.8,400.7c-23.8-0.2-47.5-0.4-71.3-0.6c2.6-5.2,4.7-10.7,7.1-15.9
				c3.3-7.2,6.9-14.3,11-21.1c3.6-5.8,7.6-11.3,12.1-16.4c2.7-3,5.6-5.8,8.6-8.4c2.7-2.2,5.9-4,8.3-6.5c2.4,0.9,4.9,1.6,7.4,1.9
				c0.4,0.1,0.9,0.1,1.4,0.1c0.3,0,0.6,0,0.9,0c0.2,0,0.3-0.1,0.3-0.2c2.3-0.7,4.3-2.6,2.8-5c-0.5-0.8-1.2-1.4-2.2-2
				c1.5-0.7,3.4-1.1,4.6-1.5c2.2-0.8,4.5-1.5,6.8-2.1c4.5-1.4,9.2-2.1,13.3-4.4c0.1-0.1,0.2-0.2,0.2-0.3c0,0,0.1,0,0.1,0
				c4.5,0,9,0.1,13.4-0.1c1.9-0.1,4.1-0.1,5.7-1.5c0.9-0.8,1.3-1.7,1.4-2.5c4.7-0.2,9.3-1.1,14-1.5c6.8-0.6,13.7-1.1,20.5-1.1
				c9,0,18,0.6,27,1.8c0,0,0,0,0,0c-0.1,0.3,0.3,0.5,0.5,0.2c0-0.1,0.1-0.1,0.1-0.2c0.4,0.1,0.8,0.1,1.2,0.2
				c2.8,6.5,1.9,13.9-2.5,19.5c-0.1,0.1,0,0.3,0.1,0.4c-2.1,1.3-4.1,2.6-5.9,4.4c-5.5,5.3-9.1,12-10,19.4
				c-2.7-6.1-6.6-11.7-11.3-16.1c-8.3-7.7-19.3-12.4-30.6-12.9c-12.1-0.5-24.8,3.1-36.2,6.7c-12.3,3.9-24.1,9.9-31.7,20.6
				c-0.1,0.1,0.1,0.2,0.2,0.1c9.2-11.1,22.8-16.4,36.5-19.6c12-2.8,24.8-5.4,36.8-2.3c0,0.1,0,0.2,0.1,0.2c0.2,0,0.5,0,0.7,0
				c1.2,0.3,2.3,0.7,3.5,1.1c1.2,0.4,2.3,0.9,3.4,1.4c3.8,2.5,7.1,6.5,9.5,9.6c4,5.2,7,11.3,8.5,17.8c3.2,13,0.4,26.6-7,37.7
				C213.4,401.2,193.6,400.8,173.8,400.7z M241.3,401.5C241.3,401.6,241.3,401.6,241.3,401.5c-2.3,0-4.5,0-6.7-0.1
				c7.5-11.9,9.9-26.5,5.8-40.1c-2.1-7.1-6-13.8-11.1-19.2c-1.5-1.6-3.1-3.3-5-4.7c9.6,5,17.5,13.2,21.5,23.3
				C251.3,374.6,248,389,241.3,401.5z M356.3,390.7c-3.3,3.2-6.6,6.3-10.7,8.3c-4.6,2.3-9.7,2.5-14.7,2.7c-11,0.5-21.9,0.5-32.9,0.4
				c-16.2-0.1-32.4-0.3-48.6-0.5c4.2-6.9,6.1-14.9,6.1-23c6.3,10.9,17.9,18.6,30.7,19.6c3.5,0.4,7.1,0.2,10.4,0.3
				c6.5,0.1,12.9,0.1,19.4,0c5.5-0.1,11-0.2,16.5-0.6c1.7-0.1,3.4-0.4,5-0.8c0.5,0,1-0.1,1.3-0.5c1.2-0.5,2.3-1.3,3.2-2.3
				c7.9-1.7,14.2-9.1,17.9-16c6-11.4,9.8-24.9,11.3-37.6c1.4-11.6,0.3-23.7-4.4-34.5c-2.7-6.1-8.5-11.7-9.6-18.4
				c-1.2-7.1,3.8-13.2,8.2-18.2c2.3,5.3,5.4,10.5,7.9,15.6c3.2,6.7,6.3,13.4,9.3,20.3c2.8,6.6,5.5,13.2,8.1,19.8
				c1.3,3.3,2.6,6.7,3.7,10c1.2,3.6,1.3,6.7,1.7,10.2c-4.9,8.9-11.7,16.1-18.6,23.5C370.6,376.4,363.6,383.7,356.3,390.7z
				 M390.6,359.3c1.4-1.6,2.7-3.3,3.8-5.1c0.3,1,0.4,2.1,0.5,3.1C393.4,357.9,391.9,358.6,390.6,359.3z M394.1,360.8
				c-0.6,1.2-1.5,2.3-3,3.2c-2.2,1.3-4.5,2.4-6.6,3.7c-1.5,0.9-2.9,1.8-4.3,2.8c0.3-0.3,0.5-0.5,0.8-0.8c1.1-1.2,2.3-2.4,3.5-3.6
				C387.5,364.1,390.8,362.3,394.1,360.8z M369.9,417.2c-0.1-0.2-0.3-1.4-0.7-2.4c0.1,0,0.2,0,0.4,0
				C369.6,415.6,369.7,416.4,369.9,417.2C369.9,417.2,369.9,417.2,369.9,417.2z M371.2,415.8c-0.1-0.4-0.3-0.8-0.4-1.2
				c0.2,0,0.4,0,0.5,0c0,0.2,0.1,0.3,0.2,0.4C371.4,415.3,371.3,415.6,371.2,415.8z M374.2,423.9c-0.1-0.5-0.2-1.1-0.2-1.6
				c1.3,0,2.5-0.4,3.7-1.3c0.1-0.1,0-0.2-0.1-0.2c-1.2,0.7-2.4,0.8-3.6,0.5c0-0.1,0-0.2,0-0.3c3.1-1.6,6.3-3.1,9.5-4.4
				c0.2,0.8,0.5,1.7,0.9,2.5c-3.8,1.2-7.1,3.1-10,5.7C374.4,424.5,374.3,424.2,374.2,423.9z M382.9,414.6
				C382.9,414.6,382.9,414.6,382.9,414.6c0,0,0.1,0,0.1,0c0.1,0.3,0.1,0.7,0.2,1c-2.9,0.9-5.8,1.6-8.8,2.1
				C377.2,416.4,380,415.4,382.9,414.6z M375.7,414c0.3-0.1,0.6-0.1,0.9-0.2c0.3-0.1,0.6-0.1,0.9-0.2c0.6-0.1,1.1-0.2,1.7-0.3
				c-0.7,0.3-1.4,0.5-2.1,0.7C376.7,414,376.2,414,375.7,414z M382.2,412.3c0.2-0.1,0.3-0.1,0.5-0.2c0,0.3,0,0.6,0.1,0.9
				c0,0-0.1,0-0.1,0c-0.9,0.3-1.8,0.5-2.7,0.6c0.7-0.2,1.4-0.5,2.2-0.8C382.3,412.7,382.3,412.5,382.2,412.3z M376.3,418.6
				c-0.8,0.4-1.5,0.7-2.2,1.1c0-0.2,0-0.5,0.1-0.7C374.9,418.9,375.6,418.8,376.3,418.6z M374.7,425.9c2.9-2.7,6.2-4.8,9.9-6.3
				c0.4,0.9,0.8,1.7,1.2,2.6c-3.7,1.3-7.1,3.8-11,4.2C374.8,426.3,374.7,426.1,374.7,425.9z M422.8,412.6c-1.1-2.3-3.6-3.5-6.1-3.7
				c0.9-2.6-0.1-5.6-1.5-8.5c10.8,0,19.2,12.2,11.9,22.4c-4.4,6.2-14.1,6.7-20.1,2.6c-6.7-4.5-5.1-11.3-5.1-18.2c0,0,0,0,0,0.1
				c1.2,1.9,2.3,4.3,4,5.8c0.9,0.8,1.9,1.1,2.9,1.1c-0.1,1.1,0.2,2.2,0.8,3.2c1.7,2.9,5.2,3.6,8.2,2.7
				C421,419.1,424.4,416.2,422.8,412.6z M415.4,416.7c2,0.2,4-1.4,4.1-3.5c0-0.9-0.2-1.7-0.6-2.3c0.6,0.2,1.3,0.6,1.8,1.2
				c3.5,3.5-1.7,6.9-5,6.9c-2.4,0-5.7-2.5-5-5c0.2-0.1,0.4-0.1,0.6-0.2c0.1,1.2,0.7,2.3,2,2.9C414,416.9,414.8,416.9,415.4,416.7z
				 M413.2,409.2c-0.2,0.1-0.4,0.1-0.6,0.2c-0.2,0.1-0.3,0.2-0.3,0.4c-0.4,0.1-0.8,0.3-1.2,0.5c-0.4,0.2-0.7,0.5-0.9,0.8
				c-2.5,0.6-3.8-1.6-5.2-3.7c-0.6-0.9-1.2-1.9-1.9-2.8c1.3-0.5,2.6-1,3.8-1.6c0.1,0.1,0.2,0.1,0.3,0.1c1-0.5,2-1.2,2.9-1.8
				c0.7-0.3,1.4-0.4,2.1-0.6C413.8,403.7,414.9,406.9,413.2,409.2z M408.7,401c-1.9,1.2-4,2.1-6.1,2.8c2-1.9,4.3-3.7,5.9-5.9
				c0.1-0.2-0.1-0.5-0.3-0.4c-2.3,1.2-4.4,3.4-6.3,5.4c-0.2-0.3-0.5-0.6-0.7-0.9c1.1-0.8,2.2-1.7,3.2-2.5c1.5-1.3,3-2.5,4.5-3.8
				c0.1,0.1,0.2,0.2,0.3,0.2c0.6,0.9,1.4,2,2.1,3.2C410.3,399.7,409.5,400.3,408.7,401z M401.6,406.8c-0.1,7.9-2.1,15.5,6.3,20
				c6.4,3.4,15.5,2.7,19.9-3.5c7.7-10.9-1.4-24.1-13-23.6c-1.1-2-2.4-3.9-3.4-5.5c8.7-5.1,20.3-0.6,24.7,8.3
				c4.3,8.9,1.3,19.8-6.2,26c-7.6,6.3-18.1,8-26.2,1.7c-7.8-6.1-11.3-16.6-6.3-25.4c0.7-0.5,1.4-0.9,2-1.4c0.3,0.5,0.6,1,0.9,1.6
				c0,0.2,0.1,0.4,0.3,0.4C400.9,405.8,401.3,406.3,401.6,406.8z M402,430.1c8.9,7.8,21.3,6.1,29.7-1.8c7.8-7.3,10.3-19.9,3.9-29
				c-5.2-7.4-15.5-10.7-23.4-6.3c5-3.8,10.3-6.6,17-6.2c1.8,0.8,3.6,1.8,5.2,2.9c-0.3,0.2-0.7,0.3-1,0.5c-0.6,0.3-0.4,1.3,0.4,1.2
				c0.8-0.1,1.6-0.3,2.4-0.4c0.6,0.5,1.2,1,1.8,1.6c-0.3,0.2-0.7,0.4-1,0.6c-0.7,0.4-0.4,1.5,0.4,1.4c0.7-0.1,1.4-0.3,2.1-0.4
				c3.2,3.7,5.4,8.3,6,13.7c1.2,10.7-4.9,21.3-13.5,27.3c-10.5,7.4-22.6,6.5-32.7-1c-4.3-3.1-7.8-7.2-10.4-11.9
				c-0.1-0.2-0.2-0.3-0.2-0.5c0.1-0.2,0-0.5-0.2-0.5c-1.6-3.3-2.4-6.7-3.5-10.2c3.9-1.5,7.6-3.4,11.1-5.6
				C391.9,414.2,394.9,423.9,402,430.1z M434.7,387.7c1.1,0.2,2.2,0.3,3.3,0.5c-0.5,0.2-1.1,0.4-1.6,0.6
				C435.8,388.4,435.3,388,434.7,387.7z M444.8,398.2c1.1,0.1,4.4-0.1,4.4,1.6c0,0.7-2.4,1.8-3.1,2.3c0,0-0.1,0.1-0.1,0.1
				c-0.8-2.2-1.8-4.4-3.1-6.4c1.8-0.3,3.7-0.5,5.5-0.8c-1.3,0.7-2.5,1.5-3.8,2.2C444.2,397.4,444.3,398.1,444.8,398.2z M442.1,394.5
				c-0.2-0.3-0.4-0.5-0.6-0.8c1-0.3,2.1-0.6,3.1-0.9C443.7,393.4,442.9,394,442.1,394.5z M445.3,394.1c1.3-0.9,2.6-1.7,4-2.6
				c0.4,0.7,0.8,1.4,1.1,2.1C448.7,393.8,447,393.9,445.3,394.1z M441.5,392.2c1.8-1.1,3.7-2.1,5.5-3.2c0.2-0.1,0.3-0.4,0.4-0.6
				c0,0,0.1,0,0.1,0c0.3,0.5,0.6,1,0.8,1.5C446.1,390.9,443.8,391.6,441.5,392.2z M439.6,391.6c-0.3-0.3-0.6-0.6-1-1
				c1.3-0.2,2.6-0.5,3.8-0.7C441.5,390.5,440.6,391.1,439.6,391.6z M438.4,389.3c0.6-0.2,1.2-0.5,1.8-0.7c0.2-0.1,0.3-0.1,0.5-0.2
				c0.3,0,0.6,0,0.8,0.1c0,0.1,0,0.1,0.1,0.1c0,0,0.1,0,0.1-0.1c0.2,0,0.3,0,0.5,0C441,388.8,439.7,389.1,438.4,389.3z M453.9,404.2
				c1.3,6.5,1.4,13.2-0.5,19.6c-3.6,12-12.9,21.8-24.5,26.6c-12,4.9-25.6,3.6-36.7-3c-5.3-3.1-9.9-7.3-13.3-12.4
				c-1.6-2.4-3-5.1-3.9-7.9c3.9-0.8,7.4-3,11-4.5c0,0,0,0.1,0,0.1c-0.5,0.2-0.9,0.4-1.1,0.6c-0.9,0.5-1.8,1.1-2.6,1.7
				c-2.1,1.5-4.1,3.1-5.8,5.1c-0.3,0.3,0.2,0.8,0.6,0.5c3-2.7,5.9-5.2,9.3-7.3c3.4,5.9,8.6,11.1,13.7,14.3c11,6.9,23.1,6.7,33.6-1.1
				c9.2-6.8,15.4-18.5,13.4-30.1c-0.2-1.3-0.6-2.6-1-3.9c0.1,0,0.2,0.1,0.3,0c2-0.7,3.5-2,4.8-3.6c0.2-0.2,0.1-0.7-0.2-0.7
				c-1.5-0.4-3-0.8-4.5-1c1.5-0.9,2.9-1.8,4.4-2.6C452.3,397.8,453.3,400.9,453.9,404.2z M454.2,381.8c-1.6,0.8-3.2,1.3-4.7,1.7
				c-0.9-0.5-1.8-0.2-2.4,0.4c-6,0.6-11.8-1.2-18.3-1.6c-6.4-0.5-12,2-17,5.7c-6.1,4.5-11.2,10-17.6,14.1
				c-6.8,4.4-14.6,7.8-22.7,8.4c-2.3,0.2-5.5,0.3-7.8-0.4c-3.1-0.9-3.5-2.9-2.6-5.7c1-3.6,2.1-7.1,3.3-10.6
				c1.9-5.5,4.2-10.5,7.8-14.7c0.5-0.5,0.9-1,1.4-1.5c9-7,20-11.3,31.4-12.3c13.6-1.2,36.9,2,40.6,17.9c0.1,0.4,0.7,0.3,0.6-0.1
				c-2.7-15-24.6-19-37.1-18.7c-12.1,0.3-23.8,4.2-33.4,11.2c0.7-0.6,1.4-1.2,2.2-1.7c0.3-0.2,0.2-0.6,0-0.8c2.2-1.6,4.5-3,6.9-4.4
				c2.7-1.6,5.8-2.8,8.4-4.6c1.6-1.1,2.4-2.5,2.8-3.9c0.1-0.1,0.3-0.1,0.4-0.2c0,0.1,0.1,0.3,0.1,0.4c0.3,0.7,1.3,0.2,1.1-0.5
				c0-0.1-0.1-0.2-0.1-0.3c7.5-2.8,15.5-4.1,23.7-3.4c8,0.7,15.9,3.2,22.9,7.2c3.1,1.8,6,3.9,8.6,6.2c1.5,1.3,3.8,3.1,4.8,4.8
				C459.8,377.9,457.4,380.3,454.2,381.8z"/>
		</g>
	</g>
</g>
</svg>
