<?xml version="1.0" encoding="utf-8"?>
<!-- Generator: Adobe Illustrator 21.0.0, SVG Export Plug-In . SVG Version: 6.00 Build 0)  -->
<svg version="1.1" id="Layer_1" xmlns="http://www.w3.org/2000/svg" xmlns:xlink="http://www.w3.org/1999/xlink" x="0px" y="0px"
	 viewBox="0 0 999 345" style="enable-background:new 0 0 999 345;" xml:space="preserve">
<style type="text/css">
	.st0{fill:#DCFFC9;}
	.st1{fill:#EF5160;}
	.st2{fill:#ECB967;}
	.st3{fill:#A57C52;}
	.st4{fill:#3CB778;}
	.st5{fill:#FBE867;}
	.st6{fill:#E3D04E;}
	.st7{fill:#010101;}
	.st8{fill:#FEF094;}
	.st9{fill:#010001;}
	.st10{fill:#C69C6D;}
	.st11{fill:#C59C6D;}
	.st12{fill:#F7D19A;}
	.st13{fill:#FF8597;}
	.st14{fill:#9B1D10;}
</style>
<title>Untitled-21</title>
<rect class="st0" width="999" height="342.5"/>
<g id="illustration">
	<path class="st1" d="M527.5,229c0.5-1.6,0-3.2-0.2-4.8c-0.9-11.4-1.4-22.8-2.1-34.2c-0.7-11.9-1.7-23.8-3.2-35.6
		c-0.4-1.5-0.2-3.1,0.5-4.6c1.1-0.8,1.7-0.1,2.4,0.6c4.5,5,9.3,9.6,15.2,13c1.3,0.7,2.5,1.5,3.8,2.1c5,2.6,10.3,4.9,15.6,6.7
		c4.1,1.6,8.4,2.9,12.7,3.9c2.8,0.6,5.5,1.1,8.3,1.6c9.1,1.7,18.5,1.5,27.6-0.5c3.5-0.6,6.9-1.4,10.3-2.4
		c9.8-3.1,19.5-6.6,28.3-12.1c5-2.9,9.2-7,13.2-11.1c0.3-0.4,0.7-0.9,0.9-1.4c0.4-0.5,0.8-0.9,1.5-0.6c1.2,2.4,0.7,4.8,0.4,7.3
		c-0.7,5.8-1.2,11.5-1.8,17.3c-1.2,13.6-1.7,27.4-2.6,41c-0.5,7.7-1.2,15.5-1.9,23.2c0,0.6,0,1.1,0,1.7c0.3,1.4,0.1,2.9-0.4,4.3
		c-0.7,3.5-0.9,7.1-1.3,10.6c-1.1,8.7-2.2,17.4-3.2,26.1c-0.7,5.9-1.8,11.7-2.3,17.7c-0.2,2.6-1.6,4.1-3.9,5.1
		c-3.7,1.5-7.6,2.6-11.6,3.2c-5.4,1.1-10.9,1.7-16.3,1.9c-0.4,0-0.8,0.1-1.2,0.2c-1.2,0.3-2.4,0.8-3.7,0.1c-3.7,0.1-7.3,0.2-11,0.2
		c-8.3,0-16.6-0.1-24.9-0.2c-0.6-0.1-1.2,0-1.8,0.2c-1.2,0.4-2.5,0.4-3.7-0.2c-2.6-0.5-5.3-0.3-8-0.5c-6.7-0.5-13.3-1.7-19.8-3.4
		c-1.6-0.5-3.1-1.1-4.6-1.9c-1.7-0.9-2.9-2.6-3-4.5c-1.6-12.4-3.2-24.9-4.8-37.3c-1-8.6-1.9-17.2-2.8-25.8c0-0.5-0.1-0.9-0.3-1.3
		C527.3,232.7,527.6,230.8,527.5,229z"/>
	<path class="st2" d="M330.2,221.5c-3-5.7-1.4-11.4-0.1-17.1c1.9-8.5,5.5-16.4,9.7-24c5.4-9.5,12.5-17.9,21-24.7
		c3.6-3,7.8-5.2,11.9-7.4c5.6-3,11.4-5.3,17.5-6.9c7.5-2,15.4-1.8,22.7,0.6c9.3,3,18.2,7.3,26.2,12.9c3.7,2.6,7,5.7,9.8,9.1
		c3.5,4.2,7.5,8.1,10.3,13c5,8.7,9.4,17.6,11.7,27.4c0.6,2.7,1,5.4,1.3,8.2c0.4,2.7,0,5.5-1.1,8c-0.1,1.5-1.1,2.5-2,3.6
		c-2.5,3-5.9,4.6-9.3,6c-7.6,3.1-15.5,5.1-23.7,5.9c-5.8,0.6-11.5,0.8-17.3,0.9c-3.9,0.2-7.7,0.3-11.6,0.1
		c-3.8-0.3-7.5-0.3-11.3-0.1c-3.1,0.1-6.2,0.3-9.4,0.2c-8.9-0.4-17.8-0.3-26.6-1.8c-7.9-1.4-15.5-3.4-22.7-7.1
		c-2.5-1.3-4.6-3.1-6.3-5.3C330.6,222.7,330.3,222.1,330.2,221.5z"/>
	<path class="st2" d="M370.4,304.9c0,0,0-0.1,0-0.1c-0.1-3.2-0.1-3.2-3.3-3.3c-8.4-0.3-16.4-2.2-24.4-4.4c-4.4-1.2-9-1.8-13.1-4.1
		c-5.3-2.8-8.7-8.1-9-14.1c-0.2-2.6-0.1-5.2,0.3-7.8c0.4-3.2,1.8-6.1,4.1-8.4c0.5,0.1,0.9,0.4,1.2,0.9c2.4,3,5.7,5.3,9.3,6.5
		c7,2.5,14,5.2,21.4,6.3c4.5,0.7,9,0.9,13.5,1.2c5.5,0.4,11,0,16.5,0.3c9.1,0.5,18.1,0.3,27.2,0.2c6.6-0.1,13.2-0.2,19.8-0.5
		c11.8-0.4,22.8-3.6,33.7-7.9c2.8-1.1,5.3-2.8,7.3-5c0.4-0.4,0.7-1,1.4-1c2.6,5.3,3.5,11.3,2.4,17.2c-1,6.5-5,10.8-11,13.3
		c-4.2,1.8-8.6,2.4-12.9,3.5c-5,1.5-10.1,2.6-15.3,3.2c-3.9,0.5-7.8,0.8-11.7,0.8c-3.8-0.1-7.5,0.6-11.3,0.7c-0.7,0-1,0.3-0.9,1
		c0,0.5,0,1,0,1.5c-0.8,0-0.6-0.6-0.7-1.1c-0.1-0.6-0.4-0.9-1.1-0.8s-1.2,0.2-1.3,1c0,0.5,0,1,0,1.5c0,5.9,0,11.8,0,17.7
		c0,0.8,0.2,1.6-0.5,2.3c-0.4-0.5-0.2-1.1-0.2-1.6c0-6.5-0.1-13,0-19.5c0-1.3-0.3-1.8-1.8-1.8c-7.4,0.2-14.7,0.2-22.1,0.3
		c-4.5,0.1-9-0.4-13.4-0.6c-0.5,0.2-1.1,0.2-1.6,0c-1.1-0.3-1.7,0-1.7,1.3C371.1,304,371.4,304.8,370.4,304.9z"/>
	<path class="st3" d="M476.3,263.6c-3,3.6-7,6.2-11.5,7.5c-6,1.9-11.8,4.2-18.1,5.3c-3,0.5-6.1,0.9-9.1,1.1
		c-6.8,0.5-13.7,0.5-20.5,0.7c-9.2,0.4-18.4,0.3-27.6,0.1c-5-0.1-10.1,0-15.1-0.2c-8-0.5-16.1-0.5-23.9-2.7
		c-5.4-1.5-10.8-3.2-16-5.3c-3.8-1.5-7.2-4-9.5-7.4c-2.6-5-1.9-10.2-0.8-15.4c0.5-0.4,1.1-0.2,1.6-0.1c3.4,0.8,6.9,0.8,10.3,0
		c1.5-0.3,3.1-0.4,4.6-0.7c3.2-0.7,5.7,0.5,7.8,2.6c4.8,4.9,10.7,7.5,17.3,9c4.5,1,8.9,0.3,13.3-0.5c6.7-1.5,13.6-1.1,20.1,1
		c6.4,2.3,13.4,1.6,19.2-1.9c4.4-2.5,9.2-3,14.1-3.2c3.5-0.1,6.9-0.2,10.4-0.3c0.9,0,1.7-0.2,2.5-0.6c2.1-0.7,4.1-1.6,6.1-2.7
		c3.3-1.8,7-2.3,10.6-2.5c1.3-0.1,2.6-0.1,3.9,0c3.4,0.3,6.9-0.6,9.8-2.5c0.4-0.2,0.8-0.5,1.2-0.4c1,3.3,1.5,6.8,1.6,10.3
		C478.8,257.9,478,261,476.3,263.6z"/>
	<path class="st4" d="M477.1,244.6c-2.9,2.2-6.5,3.4-10.1,3.3c-3-0.1-5.9,0-8.9,0.3c-3.4,0.4-6.2,2-9.1,3.4
		c-2.9,1.5-6.1,2.2-9.3,2.1c-4.8-0.1-9.7,0.1-14.4,0.8c-3.2,0.4-6,2.2-8.8,3.6c-5.8,2.9-11.7,2.9-17.7,0.8c-3-0.9-6.1-1.5-9.3-1.6
		c-5.2-0.4-10.2,0.8-15.2,1.6c-4.9,0.8-9.5-0.2-14-1.8c-1.6-0.6-3.1-1.4-4.7-2c-2.5-1.1-4.8-2.8-6.6-4.9c-2.8-3-6-3.8-9.8-2.9
		c-2.2,0.5-4.4,0.8-6.7,1.1c-2.8,0.1-5.5-0.2-8.2-0.9c-0.8-0.4-1.3-1.3-2.3-1.5c-0.9-0.9-1.6-2.1-2-3.4c-2-5-1.4-10.6,1.6-15
		c2.1-3.2,5.3-4.7,8.7-5.8c4.8,7.1,12.5,9.2,20,11.4c7.4,2.1,15,3.2,22.6,3.4c5.4,0.2,10.8,0.4,16.2,0.5c2.4,0,4.7-0.1,7.1-0.2
		c4-0.1,8,0.1,11.9,0.1c9.6,0.2,19.2-0.2,28.8-1.2c8.9-0.9,17.7-3.3,25.8-7.2c3.6-1.7,6.6-4.4,8.5-7.9c2.1,1.5,4.2,3,6.2,4.6
		c3.2,2.7,4.9,6.1,4.2,10.4c-0.2,1.5-0.3,3.1-0.5,4.6c-0.4,1.3-1.3,2.5-2.4,3.3C478,243.7,477.6,244.3,477.1,244.6z"/>
	<path class="st5" d="M580.4,178.1c-2.8-0.4-5.5-0.9-8.2-1.7c0.5-2.4-0.2-4.7-0.5-7c-1.2-7.1-2.3-14.3-3-21.5
		c-0.7-6.4-1.3-12.9-2-19.4c-0.7-6.2-1.3-12.4-2.4-18.6c-0.3-2.6-1.5-5.1-3.5-6.9c-0.8-0.8-1.9-1.3-3.1-1.3c-0.9,0-1.9,0.3-2.8-0.4
		c0.3-0.9,1.1-0.7,1.8-0.7c1.7-0.1,1.8-0.2,1.7-1.9c-0.1-1.9-0.2-3.8-0.4-5.7c-0.3-4.5-0.8-9-0.8-13.5c0-0.9-0.4-1.7-0.5-2.6
		c1,0.1,0.9-0.5,0.9-1.2c0-2.1,0.2-4.2,0-6.2c-0.3-3.6,3.4-7.4,6.2-8.5c2.6-0.9,5.3-1.4,8-1.4c1.6-0.1,3.2,0,4.8-0.2
		c2.9-0.4,4.6,1.4,6,3.6c1.6,2.6,1.9,5.6,2.3,8.5c0.2,1.6,0,3.2,0.6,4.7c0.3,0.3,0.5,0.8,0.4,1.2c-0.1,3.9,0.6,7.8,0.6,11.7
		c0.1,1.2,0.3,2.3,0.5,3.4c-0.2,0.7-0.8,0.6-1.4,0.7c-2.4,0.5-4.5,1.9-6,3.8c-1.2,1.4-1.2,3.2-1.3,4.9c-0.3,6.5-0.2,13.1,0.2,19.6
		c0.2,5.2,0.5,10.3,0.8,15.5c0.3,5.8,0.5,11.6,0.8,17.3c0.2,5.4,0.6,10.8,0.4,16.1c-0.1,1.8,0,3.6,0.2,5.4
		C581,176.9,580.8,177.6,580.4,178.1z"/>
	<path class="st5" d="M618.8,175.2c-3.4,1.1-6.8,1.9-10.3,2.4c-0.8-1.5-0.7-3.2-0.7-4.9c-0.3-6.1-0.8-12.2-1.1-18.4
		c-0.3-4.5-0.8-8.9-0.7-13.4c0.1-6.5-0.2-13-0.4-19.5s-0.3-13-0.8-19.5c-0.3-4.1-1.8-7.6-5.7-9.4c-0.5-3.6-0.9-7.3,0.8-10.6
		s4.9-4.8,8.6-5.2c1-0.1,2-0.4,2.9-0.8c0.3,0.7,1,1,1.7,0.9c1.8-0.1,3.7,0,5.5,0c1.1-0.2,2.3,0,3.3,0.6c0.5,0.3,0.7,0,1-0.3
		c3.9,3.8,4.3,8.8,4.3,13.9c0.1,3,0.2,6,0.6,9c-0.1,0.2,0.1,0-0.1,0.1c-2.9,2-3.4,5-3.9,8.1c-0.8,5.7-1.2,11.4-1.5,17.1
		c-0.4,8-0.7,16-1.2,24c-0.4,6.7-0.8,13.5-1.2,20.2C619.8,171.5,619.5,173.4,618.8,175.2z"/>
	<path class="st5" d="M543.8,165.8c-4.8-2.3-9.1-5.3-13-8.9c-2.2-2-4.3-4.2-6.3-6.5c-0.5-0.5-1.2-0.8-1.9-0.5
		c-0.4-6.4-0.8-12.8-1.2-19.2s-1-13.1-1.4-19.7c-0.3-5-0.2-10.1,0-15.1c0.1-3.2,3.8-6,6.3-6.8c2.7-0.7,5.4-1.1,8.2-1.1
		c0.7,0,1.2-0.2,1.2-1c0.9,0.3,1.8,0.5,2.8,0.5c4.7-0.5,7.4,2.8,8.5,6.9c0.7,2.6,0.7,5.3,1.2,7.9c-0.4,0.6-1,0.6-1.6,0.7
		c-2.1,0.4-4.2,1.3-5.8,2.8c-1.6,1.3-2.5,3.3-2.5,5.4c0.1,6.7,0.7,13.4,1.6,20c1.4,10.8,2.9,21.6,4.1,32.4
		C543.9,164.2,544.3,165,543.8,165.8z"/>
	<path class="st5" d="M662.5,149.8c-0.5,0.1-1,0.3-1.2,0.8c-3.9,5-8.6,9.2-14.1,12.5c-0.5-0.9-0.7-1.9-0.4-2.9
		c0.4-3.3,0.2-6.6,0.5-9.9c0.4-4.8,0.8-9.6,1.1-14.4c0.2-3.4,0.5-6.8,0.8-10.2c0.3-4.4,0.5-8.8,0.8-13.2c0.3-2.7,0.1-5.3-0.5-7.9
		c-0.5-1.7-1.8-2.9-2.6-4.4c0.9-3.7,0.9-7.5,1.5-11.2c0.5-3,0.7-6,0.7-9c-0.1-0.6,0.1-1.2,0.4-1.7c0.4,0.5,1,0.4,1.5,0.4
		c4.2-0.2,8.2,0.6,12.3,1.3c2.9,0.5,5,3.6,5.2,7.1c0.1,4.1-0.1,8.2-0.7,12.3c-0.6,5.7-1.3,11.4-2,17.1c-0.6,5.2-1.3,10.5-1.9,15.7
		c-0.5,4.3-0.8,8.6-1.1,12.9C662.6,146.6,662.1,148.1,662.5,149.8z"/>
	<path class="st6" d="M649.4,78.1c0.1,3.2-0.1,6.5-0.5,9.7c-0.5,3.1-0.7,6.2-1,9.4c-0.1,1,0.1,2.1-0.9,2.8c-3.6-0.7-7.3-1.1-11-1.3
		c-2.4-0.3-4.7,0-6.9,1c-0.4,0.3-0.9,0.4-1.4,0.3c-0.6-0.1-0.6-0.6-0.6-1c0-2.8-0.3-5.6-0.4-8.4c0-2.4-0.2-4.8-0.8-7.1
		c-0.3-1.7-1.2-3.2-2.4-4.4c-0.5-0.4-0.7-1.1-0.7-1.8c0.2-4.2,3.5-7.6,7.7-7.9c3.4-0.5,6.7,0.1,10,0.5c0.8,0.1,1.5,0.2,2.2,0.3
		C647,70.9,649.3,73.5,649.4,78.1z"/>
	<path d="M478.7,243.6l2.4-3.3c2.7,5.8,6.8,10.8,9.9,16.4c3.4,5.9,6.9,11.7,9.2,18.1c0.1,0.2,0.2,0.3,0.4,0.5
		c7.2-16.5,16.9-31.5,26.9-46.3c0.5,1.8,0.7,3.6,0.6,5.4c-7.6,12-15.5,23.8-21.6,36.7c-1,2.1-1.9,4.2-2.8,6.3
		c-0.2,0.4-0.6,0.9,0,1.3c1.5,1,1.4,2.5,0.9,3.9c-0.2,0.6-0.3,0.9,0.4,1.2c0.9,0.3,1.3,1.2,1,2.1c0,0.1,0,0.1-0.1,0.2
		c-0.3,0.9-1.3,1.4-2.2,1.1c-0.1,0-0.1,0-0.2-0.1c-2.1-0.6-3.8-2.2-4.5-4.4c-3.2-11.1-8.9-21-15.2-30.6
		C482,249.4,480.2,246.6,478.7,243.6z"/>
	<path class="st6" d="M548,102c-1.1-0.9-0.7-2.2-0.9-3.4c-0.4-3-0.7-5.9-2.7-8.4c-1.1-1.5-2.9-2.4-4.8-2.4c-0.8-0.1-1.6-0.1-2.4,0
		c-0.7,0.1-1.4-0.3-1.7-0.9c-0.3-2.3,0.9-4,2.4-5.6c2.1-2.2,4.8-3,7.7-3.5s5.5-0.8,8.3-1.1c0.9-0.2,1.9-0.1,2.8,0.3
		c0.6,0.4,1,1.1,0.9,1.9c-0.1,5.8,0.8,11.6,0.9,17.3c0,1.1,0.2,2.2,0.3,3.3c0.1,1.3-0.3,1.8-1.6,1.7c-0.8-0.2-1.6-0.1-2.3,0.2
		C552.8,102.3,550.3,102.5,548,102z"/>
	<path class="st6" d="M611.2,76c0,0.6-0.2,0.8-0.9,0.9c-1.3,0.2-2.7,0.5-4,0.7c-2.3,0.6-4.3,1.9-5.8,3.7c-1.4,1.6-1.2,3.6-1.4,5.6
		s0.3,3.6-0.3,5.4c-0.5,0.4-1.1,0.6-1.7,0.5c-3,0.1-5.9-0.2-8.8,0.2c-0.5,0.1-0.9,0-1.2-0.4c-1.1-0.5-0.8-1.6-0.8-2.3
		c-0.1-4.7-0.9-9.3-0.7-14c1.6-3.1,4.7-5.1,8.2-5.5c4.1-0.6,8.2-0.2,12.3,0.1C608.9,71.2,610.3,73.5,611.2,76z"/>
	<path d="M656.1,244.4c-0.1-1.4,0-2.9,0.4-4.3c3.2,2,5.1,5.1,6.8,8.3c4.4,8.4,6.4,17.6,8,26.8c0.6,4,0.9,8.1,1,12.2
		c0,0.9,0.3,1.7,0.8,2.3c2.5,3.1,3.8,6.9,5.6,10.4c0.5,0.8,0.2,1.8-0.6,2.3c-0.1,0.1-0.2,0.1-0.3,0.1c-0.9,0.5-2,0.1-2.5-0.8
		c0-0.1-0.1-0.1-0.1-0.2c-0.7-1.4-1.3-2.8-2-4.2c-0.2-0.5-0.6-1-1-1.3c-0.1,1.6-0.2,3.1-0.3,4.7s-0.7,2.4-1.9,2.4s-1.9-1-1.8-2.6
		l0.5-6.5c-0.9,1.2-1.6,2.5-2.1,4c-0.4,1-0.8,2.1-1.3,3.1c-0.4,0.8-1.3,1.1-2.1,0.8c0,0,0,0-0.1,0c-0.9-0.3-1.3-1.2-1.1-2.1
		c0-0.1,0-0.1,0.1-0.2c1.5-3.8,2.6-7.8,6-10.5c0.3-0.3,0.5-0.8,0.4-1.2c-0.2-12.3-2.9-24.5-7.7-35.8
		C659.9,249.2,658.2,246.6,656.1,244.4z"/>
	<path d="M319.9,242.4c0.8,1,1.5,2.2,2,3.4c-3.4,5-5.2,10.6-6.6,16.5c-2.1,8.4-3,17-2.9,25.6c0,0.8,0.3,1.6,1,2
		c2.3,1.8,3.5,4.4,4.8,6.9c0.4,0.8,0.7,1.7,1.1,2.5c0.5,1.1,0.5,2.1-0.6,2.7c-1,0.5-2,0-2.7-1.2c-0.7-1.8-1.5-3.5-2.5-5.2
		c-0.2-0.2-0.2-0.6-0.7-0.7c0.3,2,0.5,4.1,0.8,6.1c0.2,1.6-0.4,2.6-1.6,2.7s-2-0.7-2.1-2.4c-0.1-1.6-0.4-3.1-0.8-4.6
		c-0.7,1.5-1.3,3-2,4.5c-0.9,2.1-1.8,2.8-3.1,2.2s-1.2-1.6-0.3-3.7c1.5-3.3,2.7-6.9,4.9-9.9c0.3-0.6,0.4-1.4,0.3-2
		c-0.2-10.4,1.2-20.8,4-30.8C314.3,251.7,316.4,246.6,319.9,242.4z"/>
	<path d="M370.4,304.9c0.2-0.8,0.3-1.5,0.2-2.3c0-0.9,0.3-1,1.1-0.8c0.9,0.1,1.8,0.2,2.6,0.6c-0.2,1.9-0.3,3.8-0.2,5.7
		c0,8,0.1,16-0.3,24c-0.2,3.3-0.4,3.7-3.5,4.7c-3.6,1.1-7,2.5-10.4,4c-0.9,0.5-2.1,0.2-2.6-0.7c-0.5-0.9-0.2-2.1,0.7-2.6
		c0.1-0.1,0.3-0.1,0.5-0.2c3.4-1.3,6.8-2.8,10.3-3.8c0.9-0.1,1.5-0.9,1.4-1.8C370.6,322.7,370.3,313.8,370.4,304.9z"/>
	<path class="st7" d="M411.8,325.5c0-7.1,0-14.3,0-21.4c0-1.1,0.1-1.7,1.4-1.6c1,0.1,2.4-0.6,2.1,1.4c0,0.3,0.1,0.7,0.2,1
		c0.1,8.9-0.2,17.7,0.3,26.6c-0.1,0.9,0.6,1.8,1.5,2c3.4,1.1,6.7,2.4,10.1,3.7c1.4,0.5,2,1.5,1.5,2.7s-1.6,1.4-3.1,0.8
		c-3.5-1.6-7.2-2.9-10.9-4c-1.6-0.4-2.8-1.8-2.7-3.5C412,330.5,411.9,328,411.8,325.5z"/>
	<path class="st7" d="M612.7,309.3c1.2-0.2,2.4-0.2,3.7-0.1c0.1,8-0.2,15.9,0.2,23.9c-0.1,1,0.6,1.8,1.5,2c3.4,1.2,6.7,2.4,10.1,3.7
		c1.4,0.5,1.9,1.6,1.4,2.7s-1.6,1.4-3,0.8c-3.5-1.5-7.1-2.9-10.7-4c-2.5-0.8-2.8-1.3-2.9-4.1C612.6,325.8,612.7,317.5,612.7,309.3z"
		/>
	<path class="st7" d="M571.3,309.3c1.2-0.1,2.5-0.1,3.7,0.2c0,8,0.1,16.1-0.3,24.2c-0.2,3.2-0.4,3.6-3.4,4.6c-3.6,1.1-7,2.5-10.4,4
		c-1,0.5-2.2,0.2-2.7-0.7c0,0-0.1-0.1-0.1-0.1c-0.4-1,0.1-2.1,1.1-2.5c0.1,0,0.2-0.1,0.3-0.1c3.3-1.3,6.6-2.5,9.9-3.7
		c1.1-0.2,1.9-1.2,1.8-2.3C571.5,325,571.2,317.1,571.3,309.3z"/>
	<path class="st8" d="M587,92.7c3.9-0.5,7.9-0.2,11.8-0.3c3,0.7,4.5,2.8,5.5,5.5c0.8,2.3,1.2,4.8,1.1,7.2c0.1,3.6,0.3,7.1,0.4,10.7
		c0.2,5.5,0.1,11,0.3,16.4c0.2,3.9-0.1,7.9,0.3,11.8c0.5,5.3,0.5,10.6,1.1,15.9c0.2,1.8,0.3,3.6,0.3,5.4c0,4.2,0.6,8.3,0.6,12.5
		c-6.2,1.4-12.6,2-19,1.6c-3.1-0.2-6.1-0.6-9.1-1.1c-0.5-5-0.1-10.1-0.3-15.1s-0.4-10-0.6-15.1c-0.2-4.7-0.3-9.3-0.6-14
		c-0.4-6.4-0.5-12.8-1-19.2c-0.3-4.4,0.2-8.7,0.2-13.1c0-4.8,3.6-8.3,8.3-8.8C586.6,92.8,586.8,92.8,587,92.7z"/>
	<path class="st8" d="M627.6,99.9c3-1.8,6.2-2,9.6-1.6c2.4,0.3,4.9,0.5,7.3,0.6c0.9,0,1.8,0.3,2.5,0.9c2.7,2.1,3.6,5.1,3.6,8.2
		c0,5.2-0.5,10.4-0.8,15.6c-0.2,2.9-0.5,5.8-0.6,8.7c-0.3,5.1-0.8,10.2-1.2,15.3c-0.2,2.2-0.3,4.5-0.3,6.8c0.1,2.9-0.4,5.7-0.3,8.6
		c-8.8,5.6-18.5,9.1-28.4,12.2c0.3-3.3,0.6-6.7,0.8-10c0.2-2,0.2-4.1,0.3-6.2c0.2-4.5,0.6-8.9,0.8-13.4c0.2-4.1,0.4-8.3,0.6-12.5
		c0.2-5.2,0.5-10.5,0.9-15.8c0.3-4.5,0.9-9,1.8-13.5C624.4,102,625.9,100.9,627.6,99.9z"/>
	<path class="st8" d="M548,102l7-0.6h1.4c3.6-0.1,6.8,2.3,7.7,5.8c1.1,3.6,1.3,7.3,1.8,10.9c0.6,4,1,8,1.5,12.1
		c0.4,3.2,0.6,6.4,1,9.6c0.5,5.1,1,10.1,1.7,15.2c0.8,6,1.9,11.9,2.6,17.8c0.1,1,0.2,2,0.4,3c0.2,0.8-0.3,0.7-0.7,0.8
		c-4.4-0.9-8.7-2.2-12.8-3.9c-5.3-2-10.7-3.9-15.6-6.8c-0.6-5-1.2-9.9-1.8-14.9c-0.6-4.1-1-8.2-1.7-12.3c-0.6-3.8-0.8-7.8-1.3-11.6
		c-0.7-5.4-1.1-10.9-1.2-16.3c0-1.7,0.7-3.4,1.9-4.6c1.9-2.1,4.6-3.5,7.5-3.8C547.4,102.3,547.7,102.4,548,102z"/>
	<path class="st9" d="M571.7,209.4c6.4,0,10.8,3.4,12.9,10.3c0.6,1.9,0.8,3.9,0.8,5.8c0,1.2-0.4,2.1-1.8,2.1s-1.8-0.9-1.8-2.1
		c0-2.7-0.6-5.3-1.9-7.7c-1.6-2.9-3.9-4.8-7.5-4.8c-6.5,0-10.3,3.5-10.7,10c0,0.9,0.1,1.7,0.3,2.5c0.1,1.1-0.2,2.1-1.5,2.3
		s-2-0.6-2.2-1.8c-0.8-6,1-10.9,5.7-14.7C566,209.8,568,209.4,571.7,209.4z"/>
	<path class="st9" d="M614,209.4c7.5,0,13.6,6.1,13.6,13.6c0,1-0.1,2.1-0.4,3.1c-0.3,1.2-0.9,2-2.2,1.7s-1.6-1.4-1.3-2.6
		c0.5-3.4-0.5-6.9-2.8-9.5c-1.3-1.6-3.3-2.6-5.4-2.7c-3.5-0.4-6.7,0.4-8.9,3.3c-1.8,2.5-2.8,5.5-2.8,8.6c0,0.4,0,0.7,0,1.1
		c0,0.9-0.7,1.6-1.6,1.6c0,0,0,0,0,0c-0.9,0.1-1.7-0.5-1.8-1.4c0-0.1,0-0.2,0-0.3c-0.1-1.1-0.1-2.1,0.1-3.2c1-6.6,3.8-11.1,9.6-13.1
		c0.4-0.2,0.9-0.3,1.3-0.3C612.1,209.4,613,209.4,614,209.4z"/>
	<path class="st9" d="M580.3,244.4c0.1-0.8,0.1-1.5,0.2-2.2c0.2-1.6,1.1-2.4,2.2-2.1c1.4,0.3,1.5,1.4,1.4,2.6
		c-0.3,2.3-0.2,4.6,1.2,6.7c1.9,2.7,4.5,4.4,7.8,4.1s5.1-2.7,6.4-5.4c0.6-1.6,1-3.4,1-5.2c0.2-1.2,0.6-2.1,2-2s1.7,1.1,1.6,2.3
		c-0.3,4.6-1.6,8.7-5.4,11.7c-2.5,2-5.7,2.8-8.8,1.9C584.2,255.5,580.2,250.3,580.3,244.4z"/>
	<path class="st7" d="M421.4,205.6c-6.7,0-11-3.4-13.2-10.3c-0.6-1.9-0.8-3.9-0.8-5.8c0-1.2,0.4-2.1,1.8-2.2s1.8,0.9,1.8,2.1
		c0,2.4,0.5,4.7,1.5,6.9c1.6,3.6,4.4,5.6,8,5.6c5.2,0,7.8-1.5,9.5-5.6c1-2.1,1.3-4.4,0.9-6.6c-0.3-1.2,0-2.3,1.4-2.6
		c1.2-0.3,2,0.5,2.2,2.1c0.9,5.1-1,10.3-4.9,13.8C427.4,204.9,424.4,205.9,421.4,205.6z"/>
	<path class="st7" d="M379.2,205.6c-7.6,0.1-13.8-5.9-13.9-13.5c0-1.1,0.1-2.2,0.3-3.2c0.3-1.2,0.9-2,2.2-1.8s1.6,1.4,1.4,2.6
		c-0.5,3.3,0.4,6.7,2.5,9.3c1.4,1.8,3.6,2.9,5.9,3c3.3,0.3,6.3-0.4,8.4-3.1c1.9-2.6,3-5.7,3-8.9c0-0.4,0-0.8,0.1-1.2
		c0.1-0.8,0.8-1.5,1.6-1.5c0.8-0.1,1.6,0.4,1.8,1.3c0,0.1,0,0.1,0,0.2c0.1,1.1,0.1,2.2,0,3.3c-0.9,5.8-3.2,10.6-9,13
		C382.1,205.5,380.7,205.7,379.2,205.6z"/>
	<path class="st7" d="M387.9,212.1c0.1-0.9,0.1-1.7,0.3-2.6c0.2-1.2,0.8-2,2.1-1.9s1.7,1.2,1.5,2.4c-0.2,1.3-0.2,2.7,0,4.1
		c0.8,4,4.3,6.9,8.4,7c2.8,0,6.2-2.9,7.2-6.1c0.4-1.6,0.7-3.1,0.8-4.8c0-0.9,0.7-1.7,1.7-1.8c0.1,0,0.1,0,0.2,0
		c1.1,0,1.6,0.8,1.7,1.8c0.6,5.1-3,11.4-7.7,13.6c-4.5,2.1-10.6,0.2-13.7-4.1C388.7,217.5,387.9,214.9,387.9,212.1z"/>
	<path class="st10" d="M367.3,172.8c-1.8,0-2.6-0.6-2.9-2.1c-0.1-1.3,0.9-2.5,2.2-2.8c1-0.3,2-0.6,3-0.8c2.2-0.4,3.6,0.8,3.5,2.7
		c-0.1,0.8-0.5,1.4-1.2,1.8C370.5,172.4,368.9,172.9,367.3,172.8z"/>
	<path class="st11" d="M376.3,159.2c-1,0.1-2.1,0-2.5-1.2s0.2-2.1,1.1-2.9c1.3-1.1,2.9-1.8,4.6-2.2c1-0.3,2,0.2,2.4,1.1
		c0.5,0.7,0.5,1.7-0.1,2.4C380.4,158.1,378.8,159.4,376.3,159.2z"/>
	<path class="st10" d="M402.4,145.6c0.8-0.1,1.7,0,2.5,0.2c1,0.4,2,0.8,2.1,2.1c0,1.1-0.7,2.2-1.7,2.6c-1.2,0.7-5.2,0.2-6.2-0.8
		c-0.5-0.6-1.4-1.1-1-2.2c0.3-1,1.3-1.8,2.3-1.9C401,145.6,401.7,145.6,402.4,145.6z"/>
	<path class="st10" d="M388,168.9c-1,0.3-1.6-0.4-2-1.3c-0.4-0.9-0.2-2,0.6-2.6c1-1,2.3-1.8,3.7-2.3c0.8-0.3,1.7,0,2.3,0.6
		c0.6,0.6,0.7,1.5,0.4,2.2C392,167.5,390.1,168.7,388,168.9z"/>
	<path class="st10" d="M422.2,166.8c1.6-0.1,4.4,2.1,4.7,3.7c0.1,1.5-0.9,2.7-2.4,2.9c-0.2,0-0.3,0-0.5,0c-1.8-0.6-3.3-1.9-4-3.7
		c-0.3-1.2,0.5-2.5,1.7-2.8C421.9,166.8,422.1,166.8,422.2,166.8z"/>
	<path class="st10" d="M407.4,159.2c1.7-0.1,2.5,1.4,2.5,3.4c0,0.7-0.1,1.4-0.2,2.1c-0.1,1-0.8,1.8-1.7,2.1
		c-1.1,0.3-2.2-0.3-2.6-1.4c-0.7-1.5-0.7-3.2-0.2-4.7C405.5,159.7,406.4,159.1,407.4,159.2z"/>
	<path class="st10" d="M429.1,158.9c0.1,1.1-0.7,2.1-1.8,2.1c-0.2,0-0.4,0-0.6-0.1c-1.8-0.4-3.5-1.5-4.6-3c-0.5-0.6-0.1-1.3,0.2-1.8
		c1-1.2,2.7-1.5,4-0.8C427.6,156.3,429,157.1,429.1,158.9z"/>
	<ellipse class="st12" cx="370.2" cy="214.7" rx="10.1" ry="5.6"/>
	<ellipse class="st12" cx="427.1" cy="214.7" rx="10.1" ry="5.6"/>
	<ellipse class="st13" cx="563" cy="244.3" rx="8.8" ry="7.3"/>
	<ellipse class="st13" cx="619.6" cy="244.3" rx="8.8" ry="7.3"/>
</g>
<g>
	<path class="st14" d="M282.9,25h11.7l4,12l4-12h7.5l4,12l4-12h11.7l-11.4,34.5h-8.6L306.3,49l-3.5,10.4h-8.6L282.9,25z M299.4,55.3
		l6.9-21.7l6.9,21.7h1.3l8.6-26.2h-1.4l-7.9,23.8l-7.5-23.8l-7.5,23.8l-7.9-23.8h-1.4l8.6,26.2H299.4z"/>
	<path class="st14" d="M335.6,25h8.3l13.1,34.5h-10.9l-1.1-3.1h-10.4l-1.1,3.1h-10.9L335.6,25z M330.2,55.3l1-2.6h17.1l1,2.6h1.4
		l-10-26.2h-2l-10,26.2H330.2z M339.7,30.4l8.1,21.1h-16.1L339.7,30.4z M342,48.8l-2.3-6l-2.3,6H342z"/>
	<path class="st14" d="M357.7,25h11.7v34.5h-11.7V25z M364.2,55.3V29.1h-1.3v26.2H364.2z"/>
	<path class="st14" d="M377.5,34h-6.4v-9h24.1v9h-6.4v25.4h-11.4V34z M383.9,55.3v-25h7.4v-1.2h-16.1v1.2h7.4v25H383.9z"/>
	<path class="st14" d="M397.1,25h11.7v34.5h-11.7V25z M403.6,55.3V29.1h-1.3v26.2H403.6z"/>
	<path class="st14" d="M412.4,25h9l9.5,13.3V25h10.8v34.5h-9.1l-9.5-13.2v13.2h-10.8V25z M418.5,55.3V31.5l17.1,23.9h1.3V29.1h-1.3
		V53l-17.1-23.9h-1.3v26.2H418.5z"/>
	<path class="st14" d="M467.3,36.7c-0.6-0.6-1.4-1-2.3-1.3c-0.9-0.3-1.8-0.4-2.7-0.4c-1,0-1.9,0.2-2.7,0.5c-0.8,0.4-1.5,0.9-2.1,1.5
		c-0.6,0.6-1.1,1.4-1.4,2.3c-0.3,0.9-0.5,1.9-0.5,2.9c0,1,0.2,2,0.6,2.9c0.4,0.9,0.9,1.7,1.6,2.3c0.7,0.6,1.4,1.1,2.3,1.5
		c0.9,0.4,1.8,0.5,2.8,0.5c1.2,0,2.2-0.2,3.2-0.7c1-0.5,1.8-1.2,2.5-2h-3.1v-7.2h13.3v11.5c-0.8,1.4-1.7,2.7-2.8,3.9
		c-1.1,1.2-2.3,2.1-3.7,3c-1.4,0.8-2.8,1.5-4.4,1.9c-1.6,0.4-3.2,0.7-4.9,0.7c-2.5,0-4.8-0.5-7-1.4c-2.2-0.9-4.1-2.2-5.8-3.8
		c-1.6-1.6-2.9-3.5-3.9-5.7c-0.9-2.2-1.4-4.6-1.4-7.1c0-2.5,0.4-4.8,1.3-7c0.9-2.2,2.1-4.1,3.7-5.8c1.6-1.6,3.4-2.9,5.6-3.9
		c2.2-0.9,4.5-1.4,7-1.4c1.9,0,3.6,0.2,5,0.6c1.4,0.4,2.6,0.8,3.6,1.3c1.1,0.6,2.1,1.2,2.8,1.8L467.3,36.7z M467.8,30.1
		c-0.4-0.2-0.9-0.4-1.5-0.5c-0.5-0.1-1.1-0.3-1.7-0.4c-0.7-0.1-1.4-0.2-2.2-0.2c-1.8,0-3.5,0.3-5.1,1c-1.6,0.7-3,1.6-4.1,2.7
		c-1.2,1.2-2.1,2.5-2.8,4.2c-0.7,1.6-1,3.4-1,5.4s0.3,3.8,1,5.4c0.7,1.6,1.6,3,2.8,4.2c1.2,1.2,2.6,2.1,4.2,2.7c1.6,0.7,3.3,1,5.1,1
		c2.4,0,4.5-0.6,6.5-1.7c1.9-1.1,3.5-2.6,4.7-4.5v-6.8h-5.5v1.2h4.1V49c-1.1,1.6-2.5,2.8-4.2,3.8c-1.7,0.9-3.6,1.4-5.7,1.4
		c-1.7,0-3.2-0.3-4.6-0.9c-1.4-0.6-2.7-1.4-3.8-2.4c-1.1-1.1-1.9-2.3-2.6-3.8c-0.6-1.5-0.9-3.1-0.9-4.8c0-1.8,0.3-3.4,0.9-4.8
		c0.6-1.5,1.4-2.7,2.5-3.8c1.1-1.1,2.3-1.9,3.7-2.4c1.4-0.6,2.9-0.9,4.6-0.9c0.6,0,1.2,0.1,1.8,0.2c0.6,0.1,1,0.2,1.4,0.3
		c0.5,0.1,0.9,0.3,1.3,0.4L467.8,30.1z"/>
	<path class="st14" d="M491.7,25H512v9h-9.3v3.8h9.1v8.6h-9.1v13h-11V25z M498.2,55.3V42.8h9.8v-1.2h-9.8V30.4h10.3v-1.2h-11.7v26.2
		H498.2z"/>
	<path class="st14" d="M514.1,42.3c0-2.5,0.5-4.8,1.4-7c0.9-2.2,2.2-4.1,3.9-5.8c1.6-1.6,3.6-2.9,5.8-3.9c2.2-0.9,4.5-1.4,7-1.4
		c2.5,0,4.8,0.5,7,1.4c2.2,0.9,4.1,2.2,5.8,3.9c1.6,1.6,2.9,3.6,3.9,5.8c0.9,2.2,1.4,4.5,1.4,7c0,2.5-0.5,4.8-1.4,7
		c-0.9,2.2-2.2,4.1-3.9,5.8c-1.6,1.6-3.6,2.9-5.8,3.9s-4.5,1.4-7,1.4c-2.5,0-4.8-0.5-7-1.4s-4.1-2.2-5.8-3.9
		c-1.6-1.6-2.9-3.6-3.9-5.8C514.5,47.1,514.1,44.7,514.1,42.3z M518.9,42.3c0,1.8,0.3,3.5,1,5.1s1.6,3,2.8,4.2
		c1.2,1.2,2.6,2.2,4.2,2.8c1.6,0.7,3.3,1,5.1,1c1.8,0,3.5-0.3,5.1-1c1.6-0.7,3-1.6,4.2-2.8c1.2-1.2,2.2-2.6,2.8-4.2s1-3.3,1-5.1
		c0-1.8-0.3-3.5-1-5.1s-1.6-3-2.8-4.2c-1.2-1.2-2.6-2.2-4.2-2.8c-1.6-0.7-3.3-1-5.1-1c-1.8,0-3.5,0.3-5.1,1c-1.6,0.7-3,1.6-4.2,2.8
		c-1.2,1.2-2.2,2.6-2.8,4.2S518.9,40.4,518.9,42.3z M532.2,54.1c-1.7,0-3.2-0.3-4.6-0.9s-2.7-1.5-3.8-2.6s-1.9-2.3-2.6-3.8
		c-0.6-1.4-0.9-3-0.9-4.6c0-1.7,0.3-3.2,0.9-4.6s1.5-2.7,2.6-3.8s2.3-1.9,3.8-2.6s3-0.9,4.6-0.9c1.7,0,3.2,0.3,4.6,0.9
		s2.7,1.5,3.8,2.6c1.1,1.1,1.9,2.3,2.6,3.8c0.6,1.4,0.9,3,0.9,4.6c0,1.7-0.3,3.2-0.9,4.6c-0.6,1.4-1.5,2.7-2.6,3.8
		c-1.1,1.1-2.3,1.9-3.8,2.6S533.8,54.1,532.2,54.1z M524.9,42.3c0,1,0.2,1.9,0.6,2.8c0.4,0.9,0.9,1.6,1.5,2.3
		c0.7,0.7,1.4,1.2,2.3,1.6c0.9,0.4,1.8,0.6,2.8,0.6c1,0,1.9-0.2,2.8-0.6c0.9-0.4,1.6-0.9,2.3-1.6c0.7-0.7,1.2-1.4,1.6-2.3
		s0.6-1.8,0.6-2.8c0-1-0.2-1.9-0.6-2.8s-0.9-1.6-1.6-2.3c-0.7-0.7-1.4-1.2-2.3-1.6c-0.9-0.4-1.8-0.6-2.8-0.6c-1,0-1.9,0.2-2.8,0.6
		c-0.9,0.4-1.6,0.9-2.3,1.6c-0.7,0.7-1.2,1.4-1.5,2.3C525.1,40.3,524.9,41.3,524.9,42.3z"/>
	<path class="st14" d="M553.1,25H565c2.2,0,4.2,0.3,6.1,0.9c1.9,0.6,3.5,1.4,4.9,2.6c1.4,1.1,2.5,2.5,3.2,4.2
		c0.8,1.7,1.2,3.6,1.2,5.8c0,1.7-0.2,3.2-0.7,4.4c-0.5,1.2-1,2.2-1.6,3c-0.7,0.9-1.5,1.7-2.3,2.3l6.5,11.4h-12.9l-5.2-8.7v8.7h-11
		V25z M563.8,47.5c1.3,0,2.7-0.1,3.9-0.4l4.9,8.3h1.6l-5.2-8.7c1.9-0.7,3.3-1.7,4.4-3c1.1-1.4,1.7-3.1,1.7-5.3c0-1.5-0.3-2.8-0.9-4
		c-0.6-1.1-1.4-2.1-2.4-2.9c-1-0.8-2.2-1.4-3.6-1.8c-1.4-0.4-2.9-0.6-4.5-0.6h-5.6v26.2h1.3v-7.9H563.8z M559.6,46.2V30.4h4.2
		c3.1,0,5.6,0.7,7.4,2.1c1.8,1.4,2.7,3.3,2.7,5.9c0,2.6-0.9,4.5-2.7,5.9c-1.8,1.4-4.2,2-7.4,2H559.6z M564.1,41.9h0.6
		c1.3,0,2.4-0.3,3.3-0.9c0.9-0.6,1.4-1.6,1.4-2.9c0-1.4-0.5-2.4-1.4-2.9c-0.9-0.6-2-0.9-3.3-0.9h-0.6V41.9z"/>
	<path class="st14" d="M601.4,44.6L590.7,25H603l4,7.3l3.9-7.3h12.2l-10.7,19.6v14.8h-11V44.6z M607.6,55.3V43l7.5-13.9h-1.6
		l-6.6,12.2l-6.7-12.2h-1.6l7.5,13.9v12.4H607.6z"/>
	<path class="st14" d="M623.1,42.3c0-2.5,0.5-4.8,1.4-7c0.9-2.2,2.2-4.1,3.9-5.8c1.6-1.6,3.6-2.9,5.8-3.9c2.2-0.9,4.5-1.4,7-1.4
		s4.8,0.5,7,1.4c2.2,0.9,4.1,2.2,5.8,3.9c1.6,1.6,2.9,3.6,3.9,5.8c0.9,2.2,1.4,4.5,1.4,7c0,2.5-0.5,4.8-1.4,7
		c-0.9,2.2-2.2,4.1-3.9,5.8c-1.6,1.6-3.6,2.9-5.8,3.9s-4.5,1.4-7,1.4s-4.8-0.5-7-1.4c-2.2-0.9-4.1-2.2-5.8-3.9
		c-1.6-1.6-2.9-3.6-3.9-5.8C623.6,47.1,623.1,44.7,623.1,42.3z M628,42.3c0,1.8,0.3,3.5,1,5.1s1.6,3,2.8,4.2
		c1.2,1.2,2.6,2.2,4.2,2.8c1.6,0.7,3.3,1,5.1,1c1.8,0,3.5-0.3,5.1-1c1.6-0.7,3-1.6,4.2-2.8c1.2-1.2,2.2-2.6,2.8-4.2s1-3.3,1-5.1
		c0-1.8-0.3-3.5-1-5.1s-1.6-3-2.8-4.2c-1.2-1.2-2.6-2.2-4.2-2.8c-1.6-0.7-3.3-1-5.1-1c-1.8,0-3.5,0.3-5.1,1c-1.6,0.7-3,1.6-4.2,2.8
		c-1.2,1.2-2.2,2.6-2.8,4.2S628,40.4,628,42.3z M641.2,54.1c-1.7,0-3.2-0.3-4.6-0.9s-2.7-1.5-3.8-2.6s-1.9-2.3-2.6-3.8
		c-0.6-1.4-0.9-3-0.9-4.6c0-1.7,0.3-3.2,0.9-4.6c0.6-1.4,1.5-2.7,2.6-3.8s2.3-1.9,3.8-2.6s3-0.9,4.6-0.9c1.7,0,3.2,0.3,4.6,0.9
		s2.7,1.5,3.8,2.6c1.1,1.1,1.9,2.3,2.6,3.8s0.9,3,0.9,4.6c0,1.7-0.3,3.2-0.9,4.6c-0.6,1.4-1.5,2.7-2.6,3.8c-1.1,1.1-2.3,1.9-3.8,2.6
		S642.9,54.1,641.2,54.1z M634,42.3c0,1,0.2,1.9,0.6,2.8c0.4,0.9,0.9,1.6,1.6,2.3c0.7,0.7,1.4,1.2,2.3,1.6c0.9,0.4,1.8,0.6,2.8,0.6
		c1,0,1.9-0.2,2.8-0.6c0.9-0.4,1.6-0.9,2.3-1.6c0.7-0.7,1.2-1.4,1.6-2.3c0.4-0.9,0.6-1.8,0.6-2.8c0-1-0.2-1.9-0.6-2.8
		c-0.4-0.9-0.9-1.6-1.6-2.3c-0.7-0.7-1.4-1.2-2.3-1.6c-0.9-0.4-1.8-0.6-2.8-0.6c-1,0-1.9,0.2-2.8,0.6c-0.9,0.4-1.6,0.9-2.3,1.6
		c-0.7,0.7-1.2,1.4-1.6,2.3C634.2,40.3,634,41.3,634,42.3z"/>
	<path class="st14" d="M676.2,60.3c-2.2,0-4.1-0.3-5.9-0.8c-1.8-0.6-3.3-1.4-4.5-2.5c-1.2-1.1-2.2-2.5-2.9-4.2c-0.7-1.7-1-3.7-1-5.9
		V25h11v21.4c0,1.2,0.2,2.1,0.7,2.8c0.5,0.6,1.3,1,2.5,1c1.2,0,2-0.3,2.5-1c0.5-0.6,0.8-1.6,0.8-2.8V25h11.1v21.9
		c0,2.3-0.3,4.3-1,5.9c-0.7,1.7-1.6,3.1-2.9,4.2c-1.3,1.1-2.8,1.9-4.5,2.5C680.4,60.1,678.4,60.3,676.2,60.3z M676.2,54.1
		c-5.2,0-7.8-2.5-7.8-7.6V29.1h-1.3v17.4c0,2.9,0.8,5.1,2.4,6.6c1.6,1.5,3.8,2.3,6.7,2.3c2.9,0,5.2-0.8,6.8-2.3
		c1.6-1.5,2.4-3.7,2.4-6.6V29.1H684v17.4C684,51.6,681.4,54.1,676.2,54.1z"/>
</g>
</svg>
